<?xml version="1.0" encoding="UTF-8"?>
<svg id="_レイヤー_1" data-name="レイヤー 1" xmlns="http://www.w3.org/2000/svg" xmlns:xlink="http://www.w3.org/1999/xlink" viewBox="0 0 3872.13 2177.01">
  <defs>
    <clipPath id="clippath">
      <rect y="0" width="3872.13" height="2177.01" fill="none"/>
    </clipPath>
  </defs>
  <g clip-path="url(#clippath)">
    <g>
      <g>
        <polygon points="326.75 2659.44 4509.7 244.42 4509.7 802.96 326.75 3217.98 326.75 2659.44" fill="#c9caca"/>
        <path d="M4509.32,245.07V802.74L327.13,3217.33v-557.67L4509.32,245.07m.75-1.3L326.38,2659.23v559.41L4510.07,803.17V243.77h0Z" fill="#231815"/>
      </g>
      <g>
        <polygon points="3783.74 663.55 4025.22 524.13 4025.22 802.96 3783.74 942.39 3783.74 663.55" fill="#c9caca"/>
        <path d="M4024.85,524.78v277.97l-240.74,138.99v-277.97l240.74-138.99m.75-1.3l-242.24,139.86v279.7l242.24-139.86v-279.7h0Z" fill="#231815"/>
      </g>
      <g>
        <polygon points="3783.74 943.25 4025.22 803.83 4025.22 1082.67 3783.74 1222.09 3783.74 943.25" fill="#c9caca"/>
        <path d="M4024.85,804.48v277.97l-240.74,138.99v-277.97l240.74-138.99m.75-1.3l-242.24,139.86v279.7l242.24-139.86v-279.7h0Z" fill="#231815"/>
      </g>
      <g>
        <polygon points="3541.5 803.41 3782.99 663.98 3782.99 942.82 3541.5 1082.24 3541.5 803.41" fill="#c9caca"/>
        <path d="M3782.61,664.63v277.97l-240.74,138.99v-277.97l240.74-138.99m.75-1.3l-242.24,139.86v279.7l242.24-139.86v-279.7h0Z" fill="#231815"/>
      </g>
      <g>
        <polygon points="3541.5 1083.11 3782.99 943.69 3782.99 1222.52 3541.5 1361.95 3541.5 1083.11" fill="#c9caca"/>
        <path d="M3782.61,944.34v277.97l-240.74,138.99v-277.97l240.74-138.99m.75-1.3l-242.24,139.86v279.7l242.24-139.86v-279.7h0Z" fill="#231815"/>
      </g>
      <g>
        <polygon points="3299.26 943.26 3540.75 803.84 3540.75 1082.68 3299.26 1222.1 3299.26 943.26" fill="#c9caca"/>
        <path d="M3540.37,804.49v277.97l-240.74,138.99v-277.97l240.74-138.99m.75-1.3l-242.24,139.86v279.7l242.24-139.86v-279.7h0Z" fill="#231815"/>
      </g>
      <g>
        <polygon points="3299.26 1222.97 3540.75 1083.54 3540.75 1362.38 3299.26 1501.8 3299.26 1222.97" fill="#c9caca"/>
        <path d="M3540.37,1084.19v277.97l-240.74,138.99v-277.97l240.74-138.99m.75-1.3l-242.24,139.86v279.7l242.24-139.86v-279.7h0Z" fill="#231815"/>
      </g>
      <g>
        <polygon points="3057.02 1083.12 3298.51 943.7 3298.51 1222.53 3057.02 1361.96 3057.02 1083.12" fill="#c9caca"/>
        <path d="M3298.14,944.34v277.97l-240.74,138.99v-277.97l240.74-138.99m.75-1.3l-242.24,139.86v279.7l242.24-139.86v-279.7h0Z" fill="#231815"/>
      </g>
      <g>
        <polygon points="3057.02 1362.82 3298.51 1223.4 3298.51 1502.24 3057.02 1641.66 3057.02 1362.82" fill="#c9caca"/>
        <path d="M3298.14,1224.05v277.97l-240.74,138.99v-277.97l240.74-138.99m.75-1.3l-242.24,139.86v279.7l242.24-139.86v-279.7h0Z" fill="#231815"/>
      </g>
      <g>
        <polygon points="2814.79 1222.97 3056.27 1083.55 3056.27 1362.39 2814.79 1501.81 2814.79 1222.97" fill="#c9caca"/>
        <path d="M3055.9,1084.2v277.97l-240.74,138.99v-277.97l240.74-138.99m.75-1.3l-242.24,139.86v279.7l242.24-139.86v-279.7h0Z" fill="#231815"/>
      </g>
      <g>
        <polygon points="2814.79 1502.68 3056.27 1363.25 3056.27 1642.09 2814.79 1781.51 2814.79 1502.68" fill="#c9caca"/>
        <path d="M3055.9,1363.9v277.97l-240.74,138.99v-277.97l240.74-138.99m.75-1.3l-242.24,139.86v279.7l242.24-139.86v-279.7h0Z" fill="#231815"/>
      </g>
      <g>
        <polygon points="2572.55 1362.83 2814.04 1223.41 2814.04 1502.24 2572.55 1641.67 2572.55 1362.83" fill="#c9caca"/>
        <path d="M2813.66,1224.06v277.97l-240.74,138.99v-277.97l240.74-138.99m.75-1.3l-242.24,139.86v279.7l242.24-139.86v-279.7h0Z" fill="#231815"/>
      </g>
      <g>
        <polygon points="2572.55 1642.53 2814.04 1503.11 2814.04 1781.95 2572.55 1921.37 2572.55 1642.53" fill="#c9caca"/>
        <path d="M2813.66,1503.76v277.97l-240.74,138.99v-277.97l240.74-138.99m.75-1.3l-242.24,139.86v279.7l242.24-139.86v-279.7h0Z" fill="#231815"/>
      </g>
      <g>
        <polygon points="2330.31 1502.69 2571.8 1363.26 2571.8 1642.1 2330.31 1781.52 2330.31 1502.69" fill="#c9caca"/>
        <path d="M2571.42,1363.91v277.97l-240.74,138.99v-277.97l240.74-138.99m.75-1.3l-242.24,139.86v279.7l242.24-139.86v-279.7h0Z" fill="#231815"/>
      </g>
      <g>
        <polygon points="2330.31 1782.39 2571.8 1642.97 2571.8 1921.8 2330.31 2061.23 2330.31 1782.39" fill="#c9caca"/>
        <path d="M2571.42,1643.62v277.97l-240.74,138.99v-277.97l240.74-138.99m.75-1.3l-242.24,139.86v279.7l242.24-139.86v-279.7h0Z" fill="#231815"/>
      </g>
      <g>
        <polygon points="2088.07 1642.54 2329.56 1503.12 2329.56 1781.96 2088.07 1921.38 2088.07 1642.54" fill="#c9caca"/>
        <path d="M2329.19,1503.77v277.97l-240.74,138.99v-277.97l240.74-138.99m.75-1.3l-242.24,139.86v279.7l242.24-139.86v-279.7h0Z" fill="#231815"/>
      </g>
      <g>
        <polygon points="2088.07 1922.24 2329.56 1782.82 2329.56 2061.66 2088.07 2201.08 2088.07 1922.24" fill="#c9caca"/>
        <path d="M2329.19,1783.47v277.97l-240.74,138.99v-277.97l240.74-138.99m.75-1.3l-242.24,139.86v279.7l242.24-139.86v-279.7h0Z" fill="#231815"/>
      </g>
      <g>
        <polygon points="1845.84 1782.4 2087.32 1642.97 2087.32 1921.81 1845.84 2061.23 1845.84 1782.4" fill="#c9caca"/>
        <path d="M2086.95,1643.62v277.97l-240.74,138.99v-277.97l240.74-138.99m.75-1.3l-242.24,139.86v279.7l242.24-139.86v-279.7h0Z" fill="#231815"/>
      </g>
      <g>
        <polygon points="1845.84 2062.1 2087.32 1922.68 2087.32 2201.51 1845.84 2340.94 1845.84 2062.1" fill="#c9caca"/>
        <path d="M2086.95,1923.33v277.97l-240.74,138.99v-277.97l240.74-138.99m.75-1.3l-242.24,139.86v279.7l242.24-139.86v-279.7h0Z" fill="#231815"/>
      </g>
      <g>
        <polygon points="1603.6 1922.25 1845.09 1782.83 1845.09 2061.67 1603.6 2201.09 1603.6 1922.25" fill="#c9caca"/>
        <path d="M1844.71,1783.48v277.97l-240.74,138.99v-277.97l240.74-138.99m.75-1.3l-242.24,139.86v279.7l242.24-139.86v-279.7h0Z" fill="#231815"/>
      </g>
      <g>
        <polygon points="1603.6 2201.96 1845.09 2062.53 1845.09 2341.37 1603.6 2480.79 1603.6 2201.96" fill="#c9caca"/>
        <path d="M1844.71,2063.18v277.97l-240.74,138.99v-277.97l240.74-138.99m.75-1.3l-242.24,139.86v279.7l242.24-139.86v-279.7h0Z" fill="#231815"/>
      </g>
      <g>
        <polygon points="1361.36 2062.11 1602.85 1922.69 1602.85 2201.52 1361.36 2340.95 1361.36 2062.11" fill="#c9caca"/>
        <path d="M1602.48,1923.33v277.97l-240.74,138.99v-277.97l240.74-138.99m.75-1.3l-242.24,139.86v279.7l242.24-139.86v-279.7h0Z" fill="#231815"/>
      </g>
      <g>
        <polygon points="1119.13 2201.96 1360.61 2062.54 1360.61 2341.38 1119.13 2480.8 1119.13 2201.96" fill="#c9caca"/>
        <path d="M1360.24,2063.19v277.97l-240.74,138.99v-277.97l240.74-138.99m.75-1.3l-242.24,139.86v279.7l242.24-139.86v-279.7h0Z" fill="#231815"/>
      </g>
    </g>
    <g>
      <g>
        <polygon points="3541.88 -35.95 3783.36 -175.37 4024.85 -35.94 3783.37 103.48 3541.88 -35.95" fill="#f7f8f8"/>
        <path d="M3783.36-174.93l240.74,138.99-240.73,138.99-240.74-138.99,240.73-138.99m0-.87l-242.23,139.85,242.24,139.86,242.23-139.85-242.24-139.86h0Z" fill="#231815"/>
      </g>
      <g>
        <polygon points="3784.12 103.91 4025.6 -35.51 4267.09 103.91 4025.6 243.33 3784.12 103.91" fill="#f7f8f8"/>
        <path d="M4025.6-35.08l240.74,138.99-240.73,138.99-240.74-138.99,240.73-138.99m0-.87l-242.23,139.85,242.24,139.86,242.23-139.85-242.24-139.86h0Z" fill="#231815"/>
      </g>
      <g>
        <polygon points="3057.41 -35.95 3298.89 -175.37 3540.38 -35.95 3298.9 103.47 3057.41 -35.95" fill="#f7f8f8"/>
        <path d="M3298.89-174.94l240.74,138.99-240.73,138.99-240.74-138.99,240.73-138.99m0-.87l-242.23,139.85,242.24,139.86,242.23-139.85-242.24-139.86h0Z" fill="#231815"/>
      </g>
      <g>
        <polygon points="3299.65 103.9 3541.13 -35.51 3782.62 103.91 3541.14 243.33 3299.65 103.9" fill="#f7f8f8"/>
        <path d="M3541.13-35.08l240.74,138.99-240.73,138.99-240.74-138.99,240.73-138.99m0-.87l-242.23,139.85,242.24,139.86,242.23-139.85-242.24-139.86h0Z" fill="#231815"/>
      </g>
      <g>
        <polygon points="3541.89 243.76 3783.37 104.34 4024.85 243.76 3783.38 383.18 3541.89 243.76" fill="#f7f8f8"/>
        <path d="M3783.37,104.78l240.74,138.99-240.73,138.99-240.74-138.99,240.73-138.99m0-.87l-242.23,139.85,242.24,139.86,242.23-139.85-242.24-139.86h0Z" fill="#231815"/>
      </g>
      <g>
        <polygon points="3784.13 383.62 4025.6 244.2 4267.09 383.62 4025.61 523.04 3784.13 383.62" fill="#f7f8f8"/>
        <path d="M4025.61,244.63l240.74,138.99-240.73,138.99-240.74-138.99,240.73-138.99m0-.87l-242.23,139.85,242.24,139.86,242.23-139.85-242.24-139.86h0Z" fill="#231815"/>
      </g>
      <g>
        <polygon points="2572.95 -35.95 2814.43 -175.37 3055.91 -35.95 2814.43 103.47 2572.95 -35.95" fill="#f7f8f8"/>
        <path d="M2814.43-174.94l240.74,138.99-240.73,138.99-240.74-138.99,240.73-138.99m0-.87l-242.23,139.85,242.24,139.86,242.23-139.85-242.24-139.86h0Z" fill="#231815"/>
      </g>
      <g>
        <polygon points="2815.18 103.9 3056.66 -35.52 3298.15 103.9 3056.67 243.32 2815.18 103.9" fill="#f7f8f8"/>
        <path d="M3056.66-35.08l240.74,138.99-240.73,138.99-240.74-138.99,240.73-138.99m0-.87l-242.23,139.85,242.24,139.86,242.23-139.85-242.24-139.86h0Z" fill="#231815"/>
      </g>
      <g>
        <polygon points="3057.42 243.76 3298.9 104.34 3540.39 243.76 3298.91 383.18 3057.42 243.76" fill="#f7f8f8"/>
        <path d="M3298.9,104.77l240.74,138.99-240.73,138.99-240.74-138.99,240.73-138.99m0-.87l-242.23,139.85,242.24,139.86,242.23-139.85-242.24-139.86h0Z" fill="#231815"/>
      </g>
      <g>
        <polygon points="3299.66 383.61 3541.14 244.19 3782.63 383.62 3541.14 523.03 3299.66 383.61" fill="#f7f8f8"/>
        <path d="M3541.14,244.63l240.74,138.99-240.73,138.99-240.74-138.99,240.73-138.99m0-.87l-242.23,139.85,242.24,139.86,242.23-139.85-242.24-139.86h0Z" fill="#231815"/>
      </g>
      <g>
        <polygon points="3541.89 523.47 3783.38 384.05 4024.86 523.47 3783.38 662.89 3541.89 523.47" fill="#f7f8f8"/>
        <path d="M3783.37,384.48l240.74,138.99-240.73,138.99-240.74-138.99,240.73-138.99m0-.87l-242.23,139.85,242.24,139.86,242.23-139.85-242.24-139.86h0Z" fill="#231815"/>
      </g>
      <g>
        <polygon points="2330.72 103.9 2572.2 -35.52 2813.68 103.9 2572.2 243.32 2330.72 103.9" fill="#f7f8f8"/>
        <path d="M2572.2-35.09l240.74,138.99-240.73,138.99-240.74-138.99,240.73-138.99m0-.87l-242.23,139.85,242.24,139.86,242.23-139.85-242.24-139.86h0Z" fill="#231815"/>
      </g>
      <g>
        <polygon points="2572.95 243.75 2814.43 104.33 3055.92 243.76 2814.44 383.18 2572.95 243.75" fill="#f7f8f8"/>
        <path d="M2814.43,104.77l240.74,138.99-240.73,138.99-240.74-138.99,240.73-138.99m0-.87l-242.23,139.85,242.24,139.86,242.23-139.85-242.24-139.86h0Z" fill="#231815"/>
      </g>
      <g>
        <polygon points="2815.19 383.61 3056.67 244.19 3298.16 383.61 3056.68 523.03 2815.19 383.61" fill="#f7f8f8"/>
        <path d="M3056.67,244.62l240.74,138.99-240.73,138.99-240.74-138.99,240.73-138.99m0-.87l-242.23,139.85,242.24,139.86,242.23-139.85-242.24-139.86h0Z" fill="#231815"/>
      </g>
      <g>
        <polygon points="3057.43 523.46 3298.91 384.05 3540.39 523.47 3298.91 662.89 3057.43 523.46" fill="#f7f8f8"/>
        <path d="M3298.91,384.48l240.74,138.99-240.73,138.99-240.74-138.99,240.73-138.99m0-.87l-242.23,139.85,242.24,139.86,242.23-139.85-242.24-139.86h0Z" fill="#231815"/>
      </g>
      <g>
        <polygon points="3299.66 663.32 3541.14 523.9 3782.63 663.32 3541.15 802.74 3299.66 663.32" fill="#f7f8f8"/>
        <path d="M3541.14,524.33l240.74,138.99-240.73,138.99-240.74-138.99,240.73-138.99m0-.87l-242.23,139.85,242.24,139.86,242.23-139.85-242.24-139.86h0Z" fill="#231815"/>
      </g>
      <g>
        <polygon points="2088.49 243.75 2329.97 104.33 2571.45 243.75 2329.97 383.17 2088.49 243.75" fill="#f7f8f8"/>
        <path d="M2329.97,104.76l240.74,138.99-240.73,138.99-240.74-138.99,240.73-138.99m0-.87l-242.23,139.85,242.24,139.86,242.23-139.85-242.24-139.86h0Z" fill="#231815"/>
      </g>
      <g>
        <polygon points="2330.72 383.6 2572.2 244.19 2813.69 383.61 2572.21 523.03 2330.72 383.6" fill="#f7f8f8"/>
        <path d="M2572.2,244.62l240.74,138.99-240.73,138.99-240.74-138.99,240.73-138.99m0-.87l-242.23,139.85,242.24,139.86,242.23-139.85-242.24-139.86h0Z" fill="#231815"/>
      </g>
      <g>
        <polygon points="2572.96 523.46 2814.44 384.04 3055.93 523.46 2814.45 662.88 2572.96 523.46" fill="#f7f8f8"/>
        <path d="M2814.44,384.47l240.74,138.99-240.73,138.99-240.74-138.99,240.73-138.99m0-.87l-242.23,139.85,242.24,139.86,242.23-139.85-242.24-139.86h0Z" fill="#231815"/>
      </g>
      <g>
        <polygon points="2815.2 663.32 3056.68 523.9 3298.16 663.32 3056.68 802.74 2815.2 663.32" fill="#f7f8f8"/>
        <path d="M3056.68,524.33l240.74,138.99-240.73,138.99-240.74-138.99,240.73-138.99m0-.87l-242.23,139.85,242.24,139.86,242.23-139.85-242.24-139.86h0Z" fill="#231815"/>
      </g>
      <g>
        <polygon points="3057.43 803.17 3298.91 663.75 3540.4 803.18 3298.92 942.59 3057.43 803.17" fill="#f7f8f8"/>
        <path d="M3298.91,664.19l240.74,138.99-240.73,138.99-240.74-138.99,240.73-138.99m0-.87l-242.23,139.85,242.24,139.86,242.23-139.85-242.24-139.86h0Z" fill="#231815"/>
      </g>
      <g>
        <polygon points="1846.26 383.6 2087.74 244.18 2329.22 383.6 2087.74 523.02 1846.26 383.6" fill="#f7f8f8"/>
        <path d="M2087.74,244.61l240.74,138.99-240.73,138.99-240.74-138.99,240.73-138.99m0-.87l-242.23,139.85,242.24,139.86,242.23-139.85-242.24-139.86h0Z" fill="#231815"/>
      </g>
      <g>
        <polygon points="2088.49 523.46 2329.97 384.04 2571.46 523.46 2329.98 662.88 2088.49 523.46" fill="#f7f8f8"/>
        <path d="M2329.97,384.47l240.74,138.99-240.73,138.99-240.74-138.99,240.73-138.99m0-.87l-242.23,139.85,242.24,139.86,242.23-139.85-242.24-139.86h0Z" fill="#231815"/>
      </g>
      <g>
        <polygon points="2330.73 663.31 2572.21 523.89 2813.7 663.32 2572.22 802.73 2330.73 663.31" fill="#f7f8f8"/>
        <path d="M2572.21,524.33l240.74,138.99-240.73,138.99-240.74-138.99,240.73-138.99m0-.87l-242.23,139.85,242.24,139.86,242.23-139.85-242.24-139.86h0Z" fill="#231815"/>
      </g>
      <g>
        <polygon points="2572.97 803.17 2814.45 663.75 3055.93 803.17 2814.45 942.59 2572.97 803.17" fill="#f7f8f8"/>
        <path d="M2814.45,664.18l240.74,138.99-240.73,138.99-240.74-138.99,240.73-138.99m0-.87l-242.23,139.85,242.24,139.86,242.23-139.85-242.24-139.86h0Z" fill="#231815"/>
      </g>
      <g>
        <polygon points="2815.2 943.02 3056.68 803.6 3298.17 943.03 3056.69 1082.45 2815.2 943.02" fill="#f7f8f8"/>
        <path d="M3056.68,804.04l240.74,138.99-240.73,138.99-240.74-138.99,240.73-138.99m0-.87l-242.23,139.85,242.24,139.86,242.23-139.85-242.24-139.86h0Z" fill="#231815"/>
      </g>
      <g>
        <polygon points="1604.02 523.45 1845.51 384.03 2086.99 523.46 1845.51 662.88 1604.02 523.45" fill="#f7f8f8"/>
        <path d="M1845.51,384.47l240.74,138.99-240.73,138.99-240.74-138.99,240.73-138.99m0-.87l-242.23,139.85,242.24,139.86,242.23-139.85-242.24-139.86h0Z" fill="#231815"/>
      </g>
      <g>
        <polygon points="1846.26 663.31 2087.74 523.89 2329.23 663.31 2087.75 802.73 1846.26 663.31" fill="#f7f8f8"/>
        <path d="M2087.74,524.32l240.74,138.99-240.73,138.99-240.74-138.99,240.73-138.99m0-.87l-242.23,139.85,242.24,139.86,242.23-139.85-242.24-139.86h0Z" fill="#231815"/>
      </g>
      <g>
        <polygon points="2088.5 803.16 2329.98 663.74 2571.47 803.17 2329.99 942.59 2088.5 803.16" fill="#f7f8f8"/>
        <path d="M2329.98,664.18l240.74,138.99-240.73,138.99-240.74-138.99,240.73-138.99m0-.87l-242.23,139.85,242.24,139.86,242.23-139.85-242.24-139.86h0Z" fill="#231815"/>
      </g>
      <g>
        <polygon points="2330.74 943.02 2572.22 803.6 2813.7 943.02 2572.22 1082.44 2330.74 943.02" fill="#f7f8f8"/>
        <path d="M2572.22,804.03l240.74,138.99-240.73,138.99-240.74-138.99,240.73-138.99m0-.87l-242.23,139.85,242.24,139.86,242.23-139.85-242.24-139.86h0Z" fill="#231815"/>
      </g>
      <g>
        <polygon points="2572.97 1082.88 2814.45 943.46 3055.94 1082.88 2814.46 1222.3 2572.97 1082.88" fill="#f7f8f8"/>
        <path d="M2814.45,943.89l240.74,138.99-240.73,138.99-240.74-138.99,240.73-138.99m0-.87l-242.23,139.85,242.24,139.86,242.23-139.85-242.24-139.86h0Z" fill="#231815"/>
      </g>
      <g>
        <polygon points="1361.8 663.3 1603.27 523.88 1844.76 663.31 1603.28 802.73 1361.8 663.3" fill="#f7f8f8"/>
        <path d="M1603.28,524.32l240.74,138.99-240.73,138.99-240.74-138.99,240.73-138.99m0-.87l-242.23,139.85,242.24,139.86,242.23-139.85-242.24-139.86h0Z" fill="#231815"/>
      </g>
      <g>
        <polygon points="1604.03 803.16 1845.51 663.74 2087 803.16 1845.52 942.58 1604.03 803.16" fill="#f7f8f8"/>
        <path d="M1845.51,664.17l240.74,138.99-240.73,138.99-240.74-138.99,240.73-138.99m0-.87l-242.23,139.85,242.24,139.86,242.23-139.85-242.24-139.86h0Z" fill="#231815"/>
      </g>
      <g>
        <polygon points="1846.27 943.01 2087.75 803.6 2329.24 943.02 2087.76 1082.44 1846.27 943.01" fill="#f7f8f8"/>
        <path d="M2087.75,804.03l240.74,138.99-240.73,138.99-240.74-138.99,240.73-138.99m0-.87l-242.23,139.85,242.24,139.86,242.23-139.85-242.24-139.86h0Z" fill="#231815"/>
      </g>
      <g>
        <polygon points="2088.51 1082.87 2329.99 943.45 2571.47 1082.88 2329.99 1222.29 2088.51 1082.87" fill="#f7f8f8"/>
        <path d="M2329.99,943.88l240.74,138.99-240.73,138.99-240.74-138.99,240.73-138.99m0-.87l-242.23,139.85,242.24,139.86,242.23-139.85-242.24-139.86h0Z" fill="#231815"/>
      </g>
      <g>
        <polygon points="2330.74 1222.73 2572.22 1083.31 2813.71 1222.73 2572.23 1362.15 2330.74 1222.73" fill="#f7f8f8"/>
        <path d="M2572.22,1083.74l240.74,138.99-240.73,138.99-240.74-138.99,240.73-138.99m0-.87l-242.23,139.85,242.24,139.86,242.23-139.85-242.24-139.86h0Z" fill="#231815"/>
      </g>
      <g>
        <polygon points="1361.8 943.01 1603.28 803.59 1844.77 943.01 1603.29 1082.43 1361.8 943.01" fill="#f7f8f8"/>
        <path d="M1603.28,804.03l240.74,138.99-240.73,138.99-240.74-138.99,240.73-138.99m0-.87l-242.23,139.85,242.24,139.86,242.23-139.85-242.24-139.86h0Z" fill="#231815"/>
      </g>
      <g>
        <polygon points="1604.04 1082.87 1845.52 943.45 2087.01 1082.87 1845.53 1222.29 1604.04 1082.87" fill="#f7f8f8"/>
        <path d="M1845.52,943.88l240.74,138.99-240.73,138.99-240.74-138.99,240.73-138.99m0-.87l-242.23,139.85,242.24,139.86,242.23-139.85-242.24-139.86h0Z" fill="#231815"/>
      </g>
      <g>
        <polygon points="1846.28 1222.72 2087.76 1083.3 2329.24 1222.73 2087.76 1362.15 1846.28 1222.72" fill="#f7f8f8"/>
        <path d="M2087.76,1083.74l240.74,138.99-240.73,138.99-240.74-138.99,240.73-138.99m0-.87l-242.23,139.85,242.24,139.86,242.23-139.85-242.24-139.86h0Z" fill="#231815"/>
      </g>
      <g>
        <polygon points="2088.51 1362.58 2329.99 1223.16 2571.48 1362.58 2330 1502 2088.51 1362.58" fill="#f7f8f8"/>
        <path d="M2329.99,1223.59l240.74,138.99-240.73,138.99-240.74-138.99,240.73-138.99m0-.87l-242.23,139.85,242.24,139.86,242.23-139.85-242.24-139.86h0Z" fill="#231815"/>
      </g>
      <g>
        <polygon points="877.33 943.01 1118.81 803.59 1360.3 943.01 1118.82 1082.43 877.33 943.01" fill="#f7f8f8"/>
        <path d="M1118.81,804.02l240.74,138.99-240.73,138.99-240.74-138.99,240.73-138.99m0-.87l-242.23,139.85,242.24,139.86,242.23-139.85-242.24-139.86h0Z" fill="#231815"/>
      </g>
      <g>
        <polygon points="1119.57 1082.86 1361.05 943.44 1602.54 1082.87 1361.06 1222.29 1119.57 1082.86" fill="#f7f8f8"/>
        <path d="M1361.05,943.88l240.74,138.99-240.73,138.99-240.74-138.99,240.73-138.99m0-.87l-242.23,139.85,242.24,139.86,242.23-139.85-242.24-139.86h0Z" fill="#231815"/>
      </g>
      <g>
        <polygon points="1361.81 1222.72 1603.29 1083.3 1844.78 1222.72 1603.3 1362.14 1361.81 1222.72" fill="#f7f8f8"/>
        <path d="M1603.29,1083.73l240.74,138.99-240.73,138.99-240.74-138.99,240.73-138.99m0-.87l-242.23,139.85,242.24,139.86,242.23-139.85-242.24-139.86h0Z" fill="#231815"/>
      </g>
      <g>
        <polygon points="1604.05 1362.57 1845.53 1223.15 2087.01 1362.58 1845.53 1502 1604.05 1362.57" fill="#f7f8f8"/>
        <path d="M1845.53,1223.59l240.74,138.99-240.73,138.99-240.74-138.99,240.73-138.99m0-.87l-242.23,139.85,242.24,139.86,242.23-139.85-242.24-139.86h0Z" fill="#231815"/>
      </g>
      <g>
        <polygon points="1846.28 1502.43 2087.76 1363.01 2329.25 1502.43 2087.77 1641.85 1846.28 1502.43" fill="#f7f8f8"/>
        <path d="M2087.76,1363.44l240.74,138.99-240.73,138.99-240.74-138.99,240.73-138.99m0-.87l-242.23,139.85,242.24,139.86,242.23-139.85-242.24-139.86h0Z" fill="#231815"/>
      </g>
      <g>
        <polygon points="635.1 1082.86 876.58 943.44 1118.07 1082.86 876.59 1222.28 635.1 1082.86" fill="#f7f8f8"/>
        <path d="M876.58,943.87l240.74,138.99-240.73,138.99-240.74-138.99,240.73-138.99m0-.87l-242.23,139.85,242.24,139.86,242.23-139.85-242.24-139.86h0Z" fill="#231815"/>
      </g>
      <g>
        <polygon points="877.34 1222.71 1118.82 1083.3 1360.31 1222.72 1118.83 1362.14 877.34 1222.71" fill="#f7f8f8"/>
        <path d="M1118.82,1083.73l240.74,138.99-240.73,138.99-240.74-138.99,240.73-138.99m0-.87l-242.23,139.85,242.24,139.86,242.23-139.85-242.24-139.86h0Z" fill="#231815"/>
      </g>
      <g>
        <polygon points="1119.58 1362.57 1361.06 1223.15 1602.55 1362.57 1361.07 1501.99 1119.58 1362.57" fill="#f7f8f8"/>
        <path d="M1361.06,1223.58l240.74,138.99-240.73,138.99-240.74-138.99,240.73-138.99m0-.87l-242.23,139.85,242.24,139.86,242.23-139.85-242.24-139.86h0Z" fill="#231815"/>
      </g>
      <g>
        <polygon points="1361.82 1502.43 1603.3 1363.01 1844.78 1502.43 1603.3 1641.85 1361.82 1502.43" fill="#f7f8f8"/>
        <path d="M1603.3,1363.44l240.74,138.99-240.73,138.99-240.74-138.99,240.73-138.99m0-.87l-242.23,139.85,242.24,139.86,242.23-139.85-242.24-139.86h0Z" fill="#231815"/>
      </g>
      <g>
        <polygon points="1604.05 1642.28 1845.53 1502.86 2087.02 1642.29 1845.54 1781.7 1604.05 1642.28" fill="#f7f8f8"/>
        <path d="M1845.53,1503.3l240.74,138.99-240.73,138.99-240.74-138.99,240.73-138.99m0-.87l-242.23,139.85,242.24,139.86,242.23-139.85-242.24-139.86h0Z" fill="#231815"/>
      </g>
      <g>
        <polygon points="392.87 1222.71 634.35 1083.29 875.84 1222.71 634.36 1362.13 392.87 1222.71" fill="#f7f8f8"/>
        <path d="M634.35,1083.72l240.74,138.99-240.73,138.99-240.74-138.99,240.73-138.99m0-.87l-242.23,139.85,242.24,139.86,242.23-139.85-242.24-139.86h0Z" fill="#231815"/>
      </g>
      <g>
        <polygon points="635.11 1362.57 876.59 1223.15 1118.08 1362.57 876.6 1501.99 635.11 1362.57" fill="#f7f8f8"/>
        <path d="M876.59,1223.58l240.74,138.99-240.73,138.99-240.74-138.99,240.73-138.99m0-.87l-242.23,139.85,242.24,139.86,242.23-139.85-242.24-139.86h0Z" fill="#231815"/>
      </g>
      <g>
        <polygon points="877.35 1502.42 1118.83 1363 1360.32 1502.43 1118.84 1641.84 877.35 1502.42" fill="#f7f8f8"/>
        <path d="M1118.83,1363.44l240.74,138.99-240.73,138.99-240.74-138.99,240.73-138.99m0-.87l-242.23,139.85,242.24,139.86,242.23-139.85-242.24-139.86h0Z" fill="#231815"/>
      </g>
      <g>
        <polygon points="1119.59 1642.28 1361.07 1502.86 1602.55 1642.28 1361.07 1781.7 1119.59 1642.28" fill="#f7f8f8"/>
        <path d="M1361.07,1503.29l240.74,138.99-240.73,138.99-240.74-138.99,240.73-138.99m0-.87l-242.23,139.85,242.24,139.86,242.23-139.85-242.24-139.86h0Z" fill="#231815"/>
      </g>
      <g>
        <polygon points="1361.82 1782.13 1603.3 1642.71 1844.79 1782.14 1603.31 1921.56 1361.82 1782.13" fill="#f7f8f8"/>
        <path d="M1603.3,1643.15l240.74,138.99-240.73,138.99-240.74-138.99,240.73-138.99m0-.87l-242.23,139.85,242.24,139.86,242.23-139.85-242.24-139.86h0Z" fill="#231815"/>
      </g>
      <g>
        <polygon points="150.64 1362.56 392.12 1223.14 633.61 1362.57 392.13 1501.98 150.64 1362.56" fill="#f7f8f8"/>
        <path d="M392.12,1223.58l240.74,138.99-240.73,138.99-240.74-138.99,240.73-138.99m0-.87l-242.23,139.85,242.24,139.86,242.23-139.85-242.24-139.86h0Z" fill="#231815"/>
      </g>
      <g>
        <polygon points="392.88 1502.42 634.36 1363 875.85 1502.42 634.37 1641.84 392.88 1502.42" fill="#f7f8f8"/>
        <path d="M634.36,1363.43l240.74,138.99-240.73,138.99-240.74-138.99,240.73-138.99m0-.87l-242.23,139.85,242.24,139.86,242.23-139.85-242.24-139.86h0Z" fill="#231815"/>
      </g>
      <g>
        <polygon points="635.12 1642.27 876.6 1502.85 1118.09 1642.28 876.61 1781.7 635.12 1642.27" fill="#f7f8f8"/>
        <path d="M876.6,1503.29l240.74,138.99-240.73,138.99-240.74-138.99,240.73-138.99m0-.87l-242.23,139.85,242.24,139.86,242.23-139.85-242.24-139.86h0Z" fill="#231815"/>
      </g>
      <g>
        <polygon points="877.36 1782.13 1118.84 1642.71 1360.32 1782.13 1118.84 1921.55 877.36 1782.13" fill="#f7f8f8"/>
        <path d="M1118.84,1643.14l240.74,138.99-240.73,138.99-240.74-138.99,240.73-138.99m0-.87l-242.23,139.85,242.24,139.86,242.23-139.85-242.24-139.86h0Z" fill="#231815"/>
      </g>
      <g>
        <polygon points="1119.59 1921.98 1361.07 1782.57 1602.56 1921.99 1361.08 2061.41 1119.59 1921.98" fill="#f7f8f8"/>
        <path d="M1361.07,1783l240.74,138.99-240.73,138.99-240.74-138.99,240.73-138.99m0-.87l-242.23,139.85,242.24,139.86,242.23-139.85-242.24-139.86h0Z" fill="#231815"/>
      </g>
      <g>
        <polygon points="-91.59 1502.41 149.89 1362.99 391.38 1502.42 149.9 1641.84 -91.59 1502.41" fill="#f7f8f8"/>
        <path d="M149.89,1363.43l240.74,138.99-240.73,138.99-240.74-138.99,240.73-138.99m0-.87l-242.23,139.85,242.24,139.86,242.23-139.85-242.24-139.86h0Z" fill="#231815"/>
      </g>
      <g>
        <polygon points="150.65 1642.27 392.13 1502.85 633.62 1642.27 392.14 1781.69 150.65 1642.27" fill="#f7f8f8"/>
        <path d="M392.13,1503.28l240.74,138.99-240.73,138.99-240.74-138.99,240.73-138.99m0-.87l-242.23,139.85,242.24,139.86,242.23-139.85-242.24-139.86h0Z" fill="#231815"/>
      </g>
      <g>
        <polygon points="392.89 1782.13 634.37 1642.71 875.86 1782.13 634.38 1921.55 392.89 1782.13" fill="#f7f8f8"/>
        <path d="M634.37,1643.14l240.74,138.99-240.73,138.99-240.74-138.99,240.73-138.99m0-.87l-242.23,139.85,242.24,139.86,242.23-139.85-242.24-139.86h0Z" fill="#231815"/>
      </g>
      <g>
        <polygon points="635.13 1921.98 876.61 1782.56 1118.09 1921.98 876.61 2061.4 635.13 1921.98" fill="#f7f8f8"/>
        <path d="M876.61,1782.99l240.74,138.99-240.73,138.99-240.74-138.99,240.73-138.99m0-.87l-242.23,139.85,242.24,139.86,242.23-139.85-242.24-139.86h0Z" fill="#231815"/>
      </g>
      <g>
        <polygon points="877.36 2061.84 1118.84 1922.42 1360.33 2061.84 1118.85 2201.26 877.36 2061.84" fill="#f7f8f8"/>
        <path d="M1118.84,1922.85l240.74,138.99-240.73,138.99-240.74-138.99,240.73-138.99m0-.87l-242.23,139.85,242.24,139.86,242.23-139.85-242.24-139.86h0Z" fill="#231815"/>
      </g>
      <g>
        <polygon points="-333.82 1642.26 -92.34 1502.85 149.15 1642.27 -92.33 1781.69 -333.82 1642.26" fill="#f7f8f8"/>
        <path d="M-92.34,1503.28l240.74,138.99-240.73,138.99-240.74-138.99,240.73-138.99m0-.87l-242.23,139.85,242.24,139.86,242.23-139.85-242.24-139.86h0Z" fill="#231815"/>
      </g>
      <g>
        <polygon points="-91.58 1782.12 149.9 1642.7 391.39 1782.13 149.91 1921.54 -91.58 1782.12" fill="#f7f8f8"/>
        <path d="M149.9,1643.13l240.74,138.99-240.73,138.99-240.74-138.99,240.73-138.99m0-.87l-242.23,139.85,242.24,139.86,242.23-139.85-242.24-139.86h0Z" fill="#231815"/>
      </g>
      <g>
        <polygon points="150.66 1921.98 392.14 1782.56 633.63 1921.98 392.15 2061.4 150.66 1921.98" fill="#f7f8f8"/>
        <path d="M392.14,1782.99l240.74,138.99-240.73,138.99-240.74-138.99,240.73-138.99m0-.87l-242.23,139.85,242.24,139.86,242.23-139.85-242.24-139.86h0Z" fill="#231815"/>
      </g>
      <g>
        <polygon points="392.9 2061.83 634.38 1922.41 875.86 2061.84 634.38 2201.25 392.9 2061.83" fill="#f7f8f8"/>
        <path d="M634.38,1922.85l240.74,138.99-240.73,138.99-240.74-138.99,240.73-138.99m0-.87l-242.23,139.85,242.24,139.86,242.23-139.85-242.24-139.86h0Z" fill="#231815"/>
      </g>
      <g>
        <polygon points="635.13 2201.69 876.61 2062.27 1118.1 2201.69 876.62 2341.11 635.13 2201.69" fill="#f7f8f8"/>
        <path d="M876.61,2062.7l240.74,138.99-240.73,138.99-240.74-138.99,240.73-138.99m0-.87l-242.23,139.85,242.24,139.86,242.23-139.85-242.24-139.86h0Z" fill="#231815"/>
      </g>
      <g>
        <polygon points="-333.81 1921.97 -92.33 1782.55 149.16 1921.98 -92.32 2061.4 -333.81 1921.97" fill="#f7f8f8"/>
        <path d="M-92.33,1782.99l240.74,138.99-240.73,138.99-240.74-138.99,240.73-138.99m0-.87l-242.23,139.85,242.24,139.86,242.23-139.85-242.24-139.86h0Z" fill="#231815"/>
      </g>
      <g>
        <polygon points="-91.57 2061.83 149.91 1922.41 391.4 2061.83 149.92 2201.25 -91.57 2061.83" fill="#f7f8f8"/>
        <path d="M149.91,1922.84l240.74,138.99-240.73,138.99-240.74-138.99,240.73-138.99m0-.87l-242.23,139.85,242.24,139.86,242.23-139.85-242.24-139.86h0Z" fill="#231815"/>
      </g>
      <g>
        <polygon points="150.67 2201.68 392.15 2062.26 633.63 2201.69 392.15 2341.11 150.67 2201.68" fill="#f7f8f8"/>
        <path d="M392.15,2062.7l240.74,138.99-240.73,138.99-240.74-138.99,240.73-138.99m0-.87l-242.23,139.85,242.24,139.86,242.23-139.85-242.24-139.86h0Z" fill="#231815"/>
      </g>
      <g>
        <polygon points="-333.8 2201.68 -92.32 2062.26 149.17 2201.68 -92.31 2341.1 -333.8 2201.68" fill="#f7f8f8"/>
        <path d="M-92.32,2062.69l240.74,138.99-240.73,138.99-240.74-138.99,240.73-138.99m0-.87l-242.23,139.85,242.24,139.86,242.23-139.85-242.24-139.86h0Z" fill="#231815"/>
      </g>
    </g>
    <g>
      <polygon points="1361.2 1223.5 1603.22 1362.71 1361.66 1501.65 1361.2 1223.5" fill="#9fa0a0"/>
      <path d="M1361.58,1224.15l240.9,138.56-240.44,138.29-.46-276.85m-.75-1.3l.47,279.44,242.69-139.59-243.15-139.86h0Z" fill="#231815"/>
    </g>
    <g>
      <polygon points="1118.89 1362.44 1360.45 1223.5 1360.91 1501.65 1118.89 1362.44" fill="#c9caca"/>
      <path d="M1360.08,1224.15l.46,276.85-240.9-138.56,240.44-138.29m.75-1.3l-242.69,139.59,243.15,139.86-.47-279.44h0Z" fill="#231815"/>
    </g>
    <g>
      <polygon points="2330.08 943.79 2572.11 1082.99 2330.54 1221.93 2330.08 943.79" fill="#9fa0a0"/>
      <path d="M2330.46,944.43l240.9,138.56-240.44,138.29-.46-276.85m-.75-1.3l.47,279.44,242.69-139.59-243.15-139.86h0Z" fill="#231815"/>
    </g>
    <g>
      <polygon points="2087.77 1082.72 2329.33 943.78 2329.79 1221.93 2087.77 1082.72" fill="#c9caca"/>
      <path d="M2328.96,944.43l.46,276.85-240.9-138.56,240.44-138.29m.75-1.3l-242.69,139.59,243.15,139.86-.47-279.44h0Z" fill="#231815"/>
    </g>
    <g>
      <polygon points="1361.89 664.09 1603.91 803.29 1362.35 942.23 1361.89 664.09" fill="#9fa0a0"/>
      <path d="M1362.26,664.74l240.9,138.56-240.44,138.29-.46-276.85m-.75-1.3l.47,279.44,242.69-139.59-243.15-139.86h0Z" fill="#231815"/>
    </g>
  </g>
</svg>