<?xml version="1.0" encoding="UTF-8"?>
<svg id="_レイヤー_2" data-name="レイヤー 2" xmlns="http://www.w3.org/2000/svg" xmlns:xlink="http://www.w3.org/1999/xlink" viewBox="0 0 307.16 534.11">
  <defs>
    <clipPath id="clippath">
      <path d="M245.65,522.85L6.5,384.77V135.71c0-81.94,49.82-119.6,111.27-84.12l16.6,9.58c61.46,35.48,111.27,130.67,111.27,212.61v249.06Z" fill="none"/>
    </clipPath>
  </defs>
  <g id="_レイヤー_1-2" data-name="レイヤー 1">
    <g>
      <path d="M307.16,242.03c0-40.66-11.84-85.67-33.33-126.74-21.58-41.23-50.42-73.73-81.19-91.5l-16.6-9.58C147.19-2.45,119.02-4.53,96.73,8.34c-.03,.02-.05,.03-.08,.05-.03,.02-.07,.04-.1,.06-.03,.02-.05,.03-.08,.05-.03,.02-.07,.04-.1,.06-.03,.02-.05,.03-.08,.05-.03,.02-.07,.04-.1,.06-.03,.02-.05,.03-.08,.05-.03,.02-.07,.04-.1,.06-.03,.02-.05,.03-.08,.05-.03,.02-.07,.04-.1,.06-.03,.02-.05,.03-.08,.05-.03,.02-.07,.04-.1,.06-.03,.02-.05,.03-.08,.05-.03,.02-.07,.04-.1,.06-.03,.02-.05,.03-.08,.05-.03,.02-.07,.04-.1,.06-.03,.02-.05,.03-.08,.05-.03,.02-.07,.04-.1,.06-.03,.02-.05,.03-.08,.05-.03,.02-.07,.04-.1,.06-.03,.02-.05,.03-.08,.05-.03,.02-.07,.04-.1,.06-.03,.02-.06,.03-.08,.05-.03,.02-.07,.04-.1,.06-.03,.02-.05,.03-.08,.05-.03,.02-.07,.04-.1,.06-.03,.02-.05,.03-.08,.05-.03,.02-.07,.04-.1,.06-.03,.02-.05,.03-.08,.05-.03,.02-.07,.04-.1,.06-.03,.02-.05,.03-.08,.05-.03,.02-.07,.04-.1,.06-.03,.02-.05,.03-.08,.05-.03,.02-.07,.04-.1,.06-.03,.02-.05,.03-.08,.05-.03,.02-.07,.04-.1,.06-.03,.02-.05,.03-.08,.05-.03,.02-.07,.04-.1,.06-.03,.02-.05,.03-.08,.05-.03,.02-.07,.04-.1,.06-.03,.02-.05,.03-.08,.05-.03,.02-.07,.04-.1,.06-.03,.02-.05,.03-.08,.05-.03,.02-.07,.04-.1,.06-.03,.02-.05,.03-.08,.05-.03,.02-.07,.04-.1,.06-.03,.02-.05,.03-.08,.05-.03,.02-.07,.04-.1,.06-.03,.02-.05,.03-.08,.05-.03,.02-.07,.04-.1,.06-.03,.02-.05,.03-.08,.05-.03,.02-.07,.04-.1,.06-.03,.02-.05,.03-.08,.05-.03,.02-.07,.04-.1,.06-.03,.02-.05,.03-.08,.05-.03,.02-.07,.04-.1,.06-.03,.02-.05,.03-.08,.05-.03,.02-.07,.04-.1,.06-.03,.02-.05,.03-.08,.05-.03,.02-.07,.04-.1,.06-.03,.02-.05,.03-.08,.05-.03,.02-.07,.04-.1,.06-.03,.02-.05,.03-.08,.05-.03,.02-.07,.04-.1,.06-.03,.02-.05,.03-.08,.05-.03,.02-.07,.04-.1,.06-.03,.02-.05,.03-.08,.05-.03,.02-.07,.04-.1,.06-.03,.02-.06,.03-.08,.05-.03,.02-.07,.04-.1,.06-.03,.02-.05,.03-.08,.05-.03,.02-.07,.04-.1,.06-.03,.02-.05,.03-.08,.05-.03,.02-.07,.04-.1,.06-.03,.02-.05,.03-.08,.05-.03,.02-.07,.04-.1,.06-.03,.02-.05,.03-.08,.05-.03,.02-.07,.04-.1,.06-.03,.02-.05,.03-.08,.05-.03,.02-.07,.04-.1,.06-.03,.02-.05,.03-.08,.05-.03,.02-.07,.04-.1,.06-.03,.02-.05,.03-.08,.05-.03,.02-.07,.04-.1,.06-.03,.02-.05,.03-.08,.05-.03,.02-.07,.04-.1,.06-.03,.02-.05,.03-.08,.05-.03,.02-.07,.04-.1,.06-.03,.02-.05,.03-.08,.05-.03,.02-.07,.04-.1,.06-.03,.02-.05,.03-.08,.05-.03,.02-.07,.04-.1,.06-.03,.02-.05,.03-.08,.05-.03,.02-.07,.04-.1,.06-.03,.02-.05,.03-.08,.05-.03,.02-.07,.04-.1,.06-.03,.02-.05,.03-.08,.05-.03,.02-.07,.04-.1,.06-.03,.02-.05,.03-.08,.05-.03,.02-.07,.04-.1,.06-.03,.02-.05,.03-.08,.05-.03,.02-.07,.04-.1,.06-.03,.02-.06,.03-.08,.05-.03,.02-.07,.04-.1,.06-.03,.02-.05,.03-.08,.05-.03,.02-.07,.04-.1,.06-.03,.02-.05,.03-.08,.05-.03,.02-.07,.04-.1,.06-.03,.02-.06,.03-.08,.05-.03,.02-.07,.04-.1,.06-.03,.02-.05,.03-.08,.05-.03,.02-.07,.04-.1,.06-.03,.02-.05,.03-.08,.05-.03,.02-.07,.04-.1,.06-.03,.02-.05,.03-.08,.05-.03,.02-.07,.04-.1,.06-.03,.02-.05,.03-.08,.05-.03,.02-.07,.04-.1,.06-.03,.02-.05,.03-.08,.05-.03,.02-.07,.04-.1,.06-.03,.02-.05,.03-.08,.05-.03,.02-.07,.04-.1,.06-.03,.02-.05,.03-.08,.05-.03,.02-.07,.04-.1,.06-.03,.02-.05,.03-.08,.05-.03,.02-.07,.04-.1,.06-.03,.02-.05,.03-.08,.05-.03,.02-.07,.04-.1,.06-.03,.02-.06,.03-.08,.05-.03,.02-.07,.04-.1,.06-.03,.02-.05,.03-.08,.05-.03,.02-.07,.04-.1,.06-.03,.02-.05,.03-.08,.05-.03,.02-.07,.04-.1,.06-.03,.02-.06,.03-.08,.05-.03,.02-.07,.04-.1,.06-.03,.02-.05,.03-.08,.05-.03,.02-.07,.04-.1,.06-.03,.02-.05,.03-.08,.05-.03,.02-.07,.04-.1,.06-.03,.02-.05,.03-.08,.05-.03,.02-.07,.04-.1,.06-.03,.02-.05,.03-.08,.05-.03,.02-.07,.04-.1,.06-.03,.02-.05,.03-.08,.05-.03,.02-.07,.04-.1,.06-.03,.02-.05,.03-.08,.05-.03,.02-.07,.04-.1,.06-.03,.02-.06,.03-.08,.05-.03,.02-.07,.04-.1,.06-.03,.02-.05,.03-.08,.05-.03,.02-.07,.04-.1,.06-.03,.02-.05,.03-.08,.05-.03,.02-.07,.04-.1,.06-.03,.02-.05,.03-.08,.05-.03,.02-.07,.04-.1,.06-.03,.02-.05,.03-.08,.05-.03,.02-.07,.04-.1,.06-.03,.02-.05,.03-.08,.05-.03,.02-.07,.04-.1,.06-.03,.02-.05,.03-.08,.05-.03,.02-.07,.04-.1,.06-.03,.02-.05,.03-.08,.05-.03,.02-.07,.04-.1,.06-.03,.02-.05,.03-.08,.05-.03,.02-.07,.04-.1,.06-.03,.02-.05,.03-.08,.05-.03,.02-.07,.04-.1,.06-.03,.02-.05,.03-.08,.05-.03,.02-.07,.04-.1,.06-.03,.02-.05,.03-.08,.05-.03,.02-.07,.04-.1,.06-.03,.02-.05,.03-.08,.05-.03,.02-.07,.04-.1,.06-.03,.02-.06,.03-.08,.05-.03,.02-.07,.04-.1,.06-.03,.02-.05,.03-.08,.05-.03,.02-.07,.04-.1,.06-.03,.02-.05,.03-.08,.05-.03,.02-.07,.04-.1,.06-.03,.02-.05,.03-.08,.05-.03,.02-.07,.04-.1,.06-.03,.02-.05,.03-.08,.05-.03,.02-.07,.04-.1,.06-.03,.02-.05,.03-.08,.05-.03,.02-.07,.04-.1,.06-.03,.02-.05,.03-.08,.05-.03,.02-.07,.04-.1,.06-.03,.02-.06,.03-.08,.05-.03,.02-.07,.04-.1,.06-.03,.02-.05,.03-.08,.05-.03,.02-.07,.04-.1,.06-.03,.02-.05,.03-.08,.05-.03,.02-.07,.04-.1,.06-.03,.02-.05,.03-.08,.05-.03,.02-.07,.04-.1,.06-.03,.02-.05,.03-.08,.05-.03,.02-.07,.04-.1,.06-.03,.02-.05,.03-.08,.05-.03,.02-.07,.04-.1,.06-.03,.02-.05,.03-.08,.05-.03,.02-.07,.04-.1,.06-.03,.02-.05,.03-.08,.05-.03,.02-.07,.04-.1,.06-.03,.02-.05,.03-.08,.05-.03,.02-.07,.04-.1,.06-.03,.02-.05,.03-.08,.05-.03,.02-.07,.04-.1,.06-.03,.02-.06,.03-.08,.05-.03,.02-.07,.04-.1,.06-.03,.02-.05,.03-.08,.05-.03,.02-.07,.04-.1,.06-.03,.02-.05,.03-.08,.05-.03,.02-.07,.04-.1,.06-.03,.02-.06,.03-.08,.05-.03,.02-.07,.04-.1,.06-.03,.02-.05,.03-.08,.05-.03,.02-.07,.04-.1,.06-.03,.02-.05,.03-.08,.05-.03,.02-.07,.04-.1,.06-.03,.02-.05,.03-.08,.05-.03,.02-.07,.04-.1,.06-.03,.02-.05,.03-.08,.05-.03,.02-.07,.04-.1,.06-.03,.02-.05,.03-.08,.05-.03,.02-.07,.04-.1,.06-.03,.02-.05,.03-.08,.05-.03,.02-.07,.04-.1,.06-.03,.02-.05,.03-.08,.05-.03,.02-.07,.04-.1,.06-.03,.02-.05,.03-.08,.05-.03,.02-.07,.04-.1,.06-.03,.02-.05,.03-.08,.05-.03,.02-.07,.04-.1,.06-.03,.02-.05,.03-.08,.05-.03,.02-.07,.04-.1,.06-.03,.02-.06,.03-.08,.05-.03,.02-.07,.04-.1,.06-.03,.02-.05,.03-.08,.05-.03,.02-.07,.04-.1,.06-.03,.02-.05,.03-.08,.05-.03,.02-.07,.04-.1,.06-.03,.02-.05,.03-.08,.05-.03,.02-.07,.04-.1,.06-.03,.02-.05,.03-.08,.05-.03,.02-.07,.04-.1,.06-.03,.02-.05,.03-.08,.05-.03,.02-.07,.04-.1,.06-.03,.02-.05,.03-.08,.05-.03,.02-.07,.04-.1,.06-.03,.02-.05,.03-.08,.05-.03,.02-.07,.04-.1,.06-.03,.02-.05,.03-.08,.05-.03,.02-.07,.04-.1,.06-.03,.02-.05,.03-.08,.05-.03,.02-.07,.04-.1,.06-.03,.02-.05,.03-.08,.05-.03,.02-.07,.04-.1,.06-.03,.02-.05,.03-.08,.05-.03,.02-.07,.04-.1,.06-.03,.02-.05,.03-.08,.05-.03,.02-.07,.04-.1,.06-.03,.02-.06,.03-.08,.05-.03,.02-.07,.04-.1,.06-.03,.02-.05,.03-.08,.05-.03,.02-.07,.04-.1,.06-.03,.02-.05,.03-.08,.05-.03,.02-.07,.04-.1,.06-.03,.02-.05,.03-.08,.05-.03,.02-.07,.04-.1,.06-.03,.02-.05,.03-.08,.05-.03,.02-.07,.04-.1,.06-.03,.02-.05,.03-.08,.05-.03,.02-.07,.04-.1,.06-.03,.02-.05,.03-.08,.05-.03,.02-.07,.04-.1,.06-.03,.02-.06,.03-.08,.05-.03,.02-.07,.04-.1,.06-.03,.02-.05,.03-.08,.05-.03,.02-.07,.04-.1,.06-.03,.02-.05,.03-.08,.05-.03,.02-.07,.04-.1,.06-.03,.02-.06,.03-.08,.05-.03,.02-.07,.04-.1,.06-.03,.02-.05,.03-.08,.05-.03,.02-.07,.04-.1,.06-.03,.02-.05,.03-.08,.05-.03,.02-.07,.04-.1,.06-.03,.02-.05,.03-.08,.05-.03,.02-.07,.04-.1,.06-.03,.02-.05,.03-.08,.05-.03,.02-.07,.04-.1,.06-.03,.02-.05,.03-.08,.05-.03,.02-.07,.04-.1,.06-.03,.02-.05,.03-.08,.05-.03,.02-.07,.04-.1,.06-.03,.02-.05,.03-.08,.05-.03,.02-.07,.04-.1,.06-.03,.02-.05,.03-.08,.05-.03,.02-.07,.04-.1,.06-.03,.02-.05,.03-.08,.05-.03,.02-.07,.04-.1,.06-.03,.02-.06,.03-.08,.05-.03,.02-.07,.04-.1,.06-.03,.02-.05,.03-.08,.05-.03,.02-.07,.04-.1,.06-.03,.02-.05,.03-.08,.05-.03,.02-.07,.04-.1,.06-.03,.02-.05,.03-.08,.05-.03,.02-.07,.04-.1,.06-.03,.02-.05,.03-.08,.05-.03,.02-.07,.04-.1,.06-.03,.02-.05,.03-.08,.05-.03,.02-.07,.04-.1,.06-.03,.02-.05,.03-.08,.05-.03,.02-.07,.04-.1,.06-.03,.02-.05,.03-.08,.05-.03,.02-.07,.04-.1,.06-.03,.02-.05,.03-.08,.05-.03,.02-.07,.04-.1,.06-.03,.02-.05,.03-.08,.05-.03,.02-.07,.04-.1,.06-.03,.02-.06,.03-.08,.05-.03,.02-.07,.04-.1,.06-.03,.02-.05,.03-.08,.05-.03,.02-.07,.04-.1,.06-.03,.02-.05,.03-.08,.05-.03,.02-.07,.04-.1,.06-.03,.02-.05,.03-.08,.05-.03,.02-.07,.04-.1,.06-.03,.02-.05,.03-.08,.05-.03,.02-.07,.04-.1,.06-.03,.02-.05,.03-.08,.05-.03,.02-.07,.04-.1,.06-.03,.02-.05,.03-.08,.05-.03,.02-.07,.04-.1,.06-.03,.02-.05,.03-.08,.05-.03,.02-.07,.04-.1,.06-.03,.02-.05,.03-.08,.05-.03,.02-.07,.04-.1,.06-.03,.02-.05,.03-.08,.05-.03,.02-.07,.04-.1,.06-.03,.02-.05,.03-.08,.05-.03,.02-.07,.04-.1,.06-.03,.02-.05,.03-.08,.05-.03,.02-.07,.04-.1,.06-.03,.02-.05,.03-.08,.05-.03,.02-.07,.04-.1,.06-.03,.02-.06,.03-.08,.05-.03,.02-.07,.04-.1,.06-.03,.02-.05,.03-.08,.05-.03,.02-.07,.04-.1,.06-.03,.02-.05,.03-.08,.05-.03,.02-.07,.04-.1,.06-.03,.02-.05,.03-.08,.05-.03,.02-.07,.04-.1,.06-.03,.02-.06,.03-.08,.05-.03,.02-.07,.04-.1,.06-.03,.02-.05,.03-.08,.05-.03,.02-.07,.04-.1,.06-.03,.02-.05,.03-.08,.05-.03,.02-.07,.04-.1,.06-.03,.02-.06,.03-.08,.05-.03,.02-.07,.04-.1,.06-.03,.02-.05,.03-.08,.05-.03,.02-.07,.04-.1,.06-.03,.02-.05,.03-.08,.05-.03,.02-.07,.04-.1,.06-.03,.02-.05,.03-.08,.05-.03,.02-.07,.04-.1,.06-.03,.02-.05,.03-.08,.05-.03,.02-.07,.04-.1,.06-.03,.02-.05,.03-.08,.05-.03,.02-.07,.04-.1,.06-.03,.02-.05,.03-.08,.05-.03,.02-.07,.04-.1,.06-.03,.02-.05,.03-.08,.05-.03,.02-.07,.04-.1,.06-.03,.02-.05,.03-.08,.05-.03,.02-.07,.04-.1,.06-.03,.02-.05,.03-.08,.05-.03,.02-.07,.04-.1,.06-.03,.02-.05,.03-.08,.05-.03,.02-.07,.04-.1,.06-.03,.02-.05,.03-.08,.05-.03,.02-.07,.04-.1,.06-.03,.02-.05,.03-.08,.05-.03,.02-.07,.04-.1,.06-.03,.02-.05,.03-.08,.05-.03,.02-.07,.04-.1,.06-.03,.02-.05,.03-.08,.05-.03,.02-.07,.04-.1,.06-.03,.02-.05,.03-.08,.05-.03,.02-.07,.04-.1,.06-.03,.02-.05,.03-.08,.05-.03,.02-.07,.04-.1,.06-.03,.02-.05,.03-.08,.05-.03,.02-.07,.04-.1,.06-.03,.02-.05,.03-.08,.05-.03,.02-.07,.04-.1,.06-.03,.02-.05,.03-.08,.05-.03,.02-.07,.04-.1,.06-.03,.02-.05,.03-.08,.05-.03,.02-.07,.04-.1,.06-.03,.02-.05,.03-.08,.05-.03,.02-.07,.04-.1,.06-.03,.02-.05,.03-.08,.05-.03,.02-.07,.04-.1,.06-.03,.02-.05,.03-.08,.05-.03,.02-.07,.04-.1,.06-.03,.02-.05,.03-.08,.05-.03,.02-.07,.04-.1,.06-.03,.02-.05,.03-.08,.05-.03,.02-.07,.04-.1,.06-.03,.02-.05,.03-.08,.05-.03,.02-.07,.04-.1,.06-.03,.02-.05,.03-.08,.05-.03,.02-.07,.04-.1,.06-.03,.02-.05,.03-.08,.05-.03,.02-.07,.04-.1,.06-.03,.02-.05,.03-.08,.05-.03,.02-.07,.04-.1,.06-.03,.02-.05,.03-.08,.05-.03,.02-.07,.04-.1,.06-.03,.02-.05,.03-.08,.05-.03,.02-.07,.04-.1,.06-.03,.02-.05,.03-.08,.05-.03,.02-.07,.04-.1,.06-.03,.02-.05,.03-.08,.05-.03,.02-.07,.04-.1,.06-.03,.02-.05,.03-.08,.05-.03,.02-.07,.04-.1,.06-.03,.02-.05,.03-.08,.05-.03,.02-.07,.04-.1,.06-.03,.02-.05,.03-.08,.05-.03,.02-.07,.04-.1,.06-.03,.02-.05,.03-.08,.05-.03,.02-.07,.04-.1,.06-.03,.02-.05,.03-.08,.05-.03,.02-.07,.04-.1,.06-.03,.02-.05,.03-.08,.05-.03,.02-.07,.04-.1,.06-.03,.02-.05,.03-.08,.05-.03,.02-.07,.04-.1,.06-.03,.02-.05,.03-.08,.05-.03,.02-.07,.04-.1,.06-.03,.02-.05,.03-.08,.05-.03,.02-.07,.04-.1,.06-.03,.02-.05,.03-.08,.05-.03,.02-.07,.04-.1,.06-.03,.02-.06,.03-.08,.05-.03,.02-.07,.04-.1,.06-.03,.02-.05,.03-.08,.05-.03,.02-.07,.04-.1,.06-.03,.02-.05,.03-.08,.05-.03,.02-.07,.04-.1,.06-.03,.02-.05,.03-.08,.05-.03,.02-.07,.04-.1,.06-.03,.02-.05,.03-.08,.05-.03,.02-.07,.04-.1,.06-.03,.02-.05,.03-.08,.05-.03,.02-.07,.04-.1,.06-.03,.02-.05,.03-.08,.05-.03,.02-.07,.04-.1,.06-.03,.02-.05,.03-.08,.05-.03,.02-.07,.04-.1,.06-.03,.02-.05,.03-.08,.05-.03,.02-.07,.04-.1,.06-.03,.02-.05,.03-.08,.05-.03,.02-.07,.04-.1,.06-.03,.02-.05,.03-.08,.05-.03,.02-.07,.04-.1,.06-.03,.02-.05,.03-.08,.05-.03,.02-.07,.04-.1,.06-.03,.02-.05,.03-.08,.05-.03,.02-.07,.04-.1,.06-.03,.02-.05,.03-.08,.05-.03,.02-.07,.04-.1,.06-.03,.02-.05,.03-.08,.05-.03,.02-.07,.04-.1,.06-.03,.02-.05,.03-.08,.05-.03,.02-.07,.04-.1,.06-.03,.02-.05,.03-.08,.05-.03,.02-.07,.04-.1,.06-.03,.02-.05,.03-.08,.05-.03,.02-.07,.04-.1,.06-.03,.02-.05,.03-.08,.05-.03,.02-.07,.04-.1,.06-.03,.02-.05,.03-.08,.05-.03,.02-.07,.04-.1,.06-.03,.02-.05,.03-.08,.05-.03,.02-.07,.04-.1,.06-.03,.02-.05,.03-.08,.05-.03,.02-.07,.04-.1,.06-.03,.02-.06,.03-.08,.05-.03,.02-.07,.04-.1,.06-.03,.02-.06,.03-.08,.05-.03,.02-.07,.04-.1,.06-.03,.02-.05,.03-.08,.05-.03,.02-.07,.04-.1,.06-.03,.02-.05,.03-.08,.05-.03,.02-.07,.04-.1,.06-.03,.02-.05,.03-.08,.05-.03,.02-.07,.04-.1,.06-.03,.02-.05,.03-.08,.05-.03,.02-.07,.04-.1,.06-.03,.02-.05,.03-.08,.05-.03,.02-.07,.04-.1,.06-.03,.02-.05,.03-.08,.05-.03,.02-.07,.04-.1,.06-.03,.02-.05,.03-.08,.05-.03,.02-.07,.04-.1,.06-.03,.02-.05,.03-.08,.05-.03,.02-.07,.04-.1,.06-.03,.02-.05,.03-.08,.05-.03,.02-.07,.04-.1,.06-.03,.02-.05,.03-.08,.05-.03,.02-.07,.04-.1,.06-.03,.02-.05,.03-.08,.05-.03,.02-.07,.04-.1,.06-.03,.02-.05,.03-.08,.05-.03,.02-.07,.04-.1,.06-.03,.02-.06,.03-.08,.05-.03,.02-.07,.04-.1,.06-.03,.02-.05,.03-.08,.05-.03,.02-.07,.04-.1,.06-.03,.02-.05,.03-.08,.05-.03,.02-.07,.04-.1,.06-.03,.02-.05,.03-.08,.05-.03,.02-.07,.04-.1,.06-.03,.02-.06,.03-.08,.05-.03,.02-.07,.04-.1,.06-.03,.02-.05,.03-.08,.05-.03,.02-.07,.04-.1,.06-.03,.02-.05,.03-.08,.05-.03,.02-.07,.04-.1,.06-.03,.02-.06,.03-.08,.05-.03,.02-.07,.04-.1,.06-.03,.02-.05,.03-.08,.05-.03,.02-.07,.04-.1,.06-.03,.02-.05,.03-.08,.05-.03,.02-.07,.04-.1,.06-.03,.02-.05,.03-.08,.05-.03,.02-.07,.04-.1,.06-.03,.02-.05,.03-.08,.05-.03,.02-.07,.04-.1,.06-.03,.02-.05,.03-.08,.05-.03,.02-.07,.04-.1,.06-.03,.02-.05,.03-.08,.05-.03,.02-.07,.04-.1,.06-.03,.02-.05,.03-.08,.05-.03,.02-.07,.04-.1,.06-.03,.02-.05,.03-.08,.05-.03,.02-.07,.04-.1,.06-.03,.02-.05,.03-.08,.05-.03,.02-.07,.04-.1,.06-.03,.02-.06,.03-.08,.05-.03,.02-.07,.04-.1,.06-.03,.02-.05,.03-.08,.05-.03,.02-.07,.04-.1,.06-.03,.02-.05,.03-.08,.05-.03,.02-.07,.04-.1,.06-.03,.02-.06,.03-.08,.05-.03,.02-.07,.04-.1,.06-.03,.02-.05,.03-.08,.05-.03,.02-.07,.04-.1,.06-.03,.02-.05,.03-.08,.05-.03,.02-.07,.04-.1,.06-.03,.02-.05,.03-.08,.05-.03,.02-.07,.04-.1,.06-.03,.02-.05,.03-.08,.05-.03,.02-.07,.04-.1,.06-.03,.02-.05,.03-.08,.05-.03,.02-.07,.04-.1,.06-.03,.02-.05,.03-.08,.05-.03,.02-.07,.04-.1,.06-.03,.02-.06,.03-.08,.05-.03,.02-.07,.04-.1,.06-.03,.02-.05,.03-.08,.05-.03,.02-.07,.04-.1,.06-.03,.02-.05,.03-.08,.05-.03,.02-.07,.04-.1,.06-.03,.02-.06,.03-.08,.05-.03,.02-.07,.04-.1,.06-.03,.02-.05,.03-.08,.05-.03,.02-.07,.04-.1,.06-.03,.02-.05,.03-.08,.05-.03,.02-.07,.04-.1,.06-.03,.02-.06,.03-.08,.05-.03,.02-.07,.04-.1,.06-.03,.02-.05,.03-.08,.05-.03,.02-.07,.04-.1,.06-.03,.02-.05,.03-.08,.05-.03,.02-.07,.04-.1,.06-.03,.02-.05,.03-.08,.05-.03,.02-.07,.04-.1,.06-.03,.02-.06,.03-.08,.05-.03,.02-.07,.04-.1,.06-.03,.02-.05,.03-.08,.05-.03,.02-.07,.04-.1,.06-.03,.02-.05,.03-.08,.05-.03,.02-.07,.04-.1,.06C15.2,55.4,0,90.26,0,135.72v252.82l252.15,145.58v-.21l.18,.11v-.21l.18,.11v-.21l.18,.11v-.21l.18,.11v-.21l.18,.11v-.21l.18,.11v-.21l.18,.11v-.21l.18,.11v-.21l.18,.11v-.21l.18,.11v-.21l.18,.11v-.21l.18,.11v-.21l.18,.11v-.21l.18,.11v-.21l.18,.11v-.21l.18,.11v-.21l.18,.11v-.21l.18,.11v-.21l.18,.11v-.21l.18,.11v-.21l.18,.11v-.21l.18,.11v-.21l.18,.11v-.21l.18,.11v-.21l.18,.11v-.21l.18,.11v-.21l.18,.11v-.21l.18,.11v-.21l.18,.11v-.21l.18,.11v-.21l.18,.11v-.21l.18,.11v-.21l.18,.11v-.21l.18,.11v-.21l.18,.11v-.21l.18,.11v-.21l.18,.11v-.21l.18,.11v-.21l.18,.11v-.21l.18,.11v-.21l.18,.11v-.21l.18,.11v-.21l.18,.11v-.21l.18,.11v-.21l.18,.11v-.21l.18,.11v-.21l.18,.11v-.21l.18,.11v-.21l.18,.11v-.21l.18,.11v-.21l.18,.11v-.21l.18,.11v-.21l.18,.11v-.21l.18,.11v-.21l.18,.11v-.21l.18,.11v-.21l.18,.11v-.21l.18,.11v-.21l.18,.11v-.21l.18,.11v-.21l.18,.11v-.21l.18,.11v-.21l.18,.11v-.21l.18,.11v-.21l.18,.11v-.21l.18,.11v-.21l.18,.11v-.21l.18,.11v-.21l.18,.11v-.21l.18,.11v-.21l.18,.11v-.21l.18,.11v-.21l.18,.11v-.21l.18,.11v-.21l.18,.11v-.21l.18,.11v-.21l.18,.11v-.21l.18,.11v-.21l.18,.11v-.21l.18,.11v-.21l.18,.11v-.21l.18,.11v-.21l.18,.11v-.21l.18,.11v-.21l.18,.11v-.21l.18,.11v-.21l.18,.11v-.21l.18,.11v-.21l.18,.11v-.21l.18,.11v-.21l.18,.11v-.21l.18,.11v-.21l.18,.11v-.21l.18,.11v-.21l.18,.11v-.21l.18,.11v-.21l.18,.11v-.21l.18,.11v-.21l.18,.11v-.21l.18,.11v-.21l.18,.11v-.21l.18,.11v-.21l.18,.11v-.21l.18,.11v-.21l.18,.11v-.21l.18,.11v-.21l.18,.11v-.21l.18,.11v-.21l.18,.11v-.21l.18,.11v-.21l.18,.11v-.21l.18,.11v-.21l.18,.11v-.21l.18,.11v-.21l.18,.11v-.21l.18,.11v-.21l.18,.11v-.21l.18,.11v-.21l.18,.11v-.21l.18,.11v-.21l.18,.11v-.21l.18,.11v-.21l.18,.11v-.21l.18,.11v-.21l.18,.11v-.21l.18,.11v-.21l.18,.11v-.21l.18,.11v-.21l.18,.11v-.21l.18,.11v-.21l.18,.11v-.21l.18,.11v-.21l.18,.11v-.21l.18,.11v-.21l.18,.11v-.21l.18,.11v-.21l.18,.11v-.21l.18,.11v-.21l.18,.11v-.21l.18,.11v-.21l.18,.11v-.21l.18,.11v-.21l.18,.11v-.21l.18,.11v-.21l.18,.11v-.21l.18,.11v-.21l.18,.11v-.21l.18,.11v-.21l.18,.11v-.21l.18,.11v-.21l.18,.11v-.21l.18,.11v-.21l.18,.11v-.21l.18,.11v-.21l.18,.11v-.21l.18,.11v-.21l.18,.11v-.21l.18,.11v-.21l.18,.11v-.21l.18,.11v-.21l.18,.11v-.21l.18,.11v-.21l.18,.11v-.21l.18,.11v-.21l.18,.11v-.21l.18,.11v-.21l.18,.11v-.21l.18,.11v-.21l.18,.11v-.21l.18,.11v-.21l.18,.11v-.21l.18,.11v-.21l.18,.11v-.21l.18,.11v-.21l.18,.11v-.21l.18,.11v-.21l.18,.11v-.21l.18,.11v-.21l.18,.11v-.21l.18,.11v-.21l.18,.11v-.21l.18,.11v-.21l.18,.11v-.21l.18,.11v-.21l.18,.11v-.21l.18,.11v-.21l.18,.11v-.21l.18,.11v-.21l.18,.11v-.21l.18,.11v-.21l.18,.11v-.21l.18,.11v-.21l.18,.11v-.21l.18,.11v-.21l.18,.11v-.21l.18,.11v-.21l.18,.11v-.21l.18,.11v-.21l.18,.11v-.21l.18,.11v-.21l.18,.11v-.21l.18,.11v-.21l.18,.11v-.21l.18,.11v-.21l.18,.11v-.21l.18,.11v-.21l.18,.11v-.21l.18,.11v-.21l.18,.11v-.21l.18,.11v-.21l.18,.11v-.21l.18,.11v-.21l.18,.11v-.21l.18,.11v-.21l.18,.11v-.21l.18,.11v-.21l.18,.11v-.21l.18,.11v-.21l.18,.11v-.21l.18,.11v-.21l.18,.11v-.21l.18,.11v-.21l.18,.11v-.21l.18,.11v-.21l.18,.11v-.21l.18,.11v-.21l.18,.11v-.21l.18,.11v-.21l.18,.11v-.21l.18,.11v-.21l.18,.11v-.21l.18,.11v-.21l.18,.11v-.21l.18,.11v-.21l.18,.11v-.21l.18,.11v-.21l.18,.11v-.21l.18,.11v-.21l.18,.11v-.21l.18,.11v-.21l.18,.11v-.21l.18,.11v-.21l.18,.11v-.21l.18,.11v-.21l.18,.11v-.21l.18,.11v-.21l.18,.11v-.21l.18,.11v-.21l.18,.11v-.21l.18,.11v-.21l.18,.11v-.21l.18,.11v-.21l.18,.11v-.21l.18,.11v-.21l.18,.11v-.21l.18,.11v-.21l.18,.11v-.21l.18,.11v-.21l.18,.11v-.21l.18,.11v-.21l.18,.11v-.21l.18,.11v-.21l.18,.11v-.21l.18,.11v-.21l.18,.11v-.21l.18,.11v-.21l.18,.11v-.21l.18,.11v-.21l.18,.11v-.21l.18,.11v-.21l.18,.11v-.21l.18,.11v-.21l.18,.11v-.21l.18,.11v-.21l.18,.11v-.21l.18,.11v-.21l.18,.11v-.21l.18,.11v-.21l.18,.11v-.21l.18,.11v-.21l.18,.11v-.21l.18,.11v-.21l.18,.11v-.21l.18,.11v-.21l.18,.11v-.21l.18,.11v-.21l.18,.11v-.21l.18,.11v-.21l.18,.11v-.21l.18,.11v-.21l.18,.11v-.21l.18,.11v-.21l.18,.11v-.21l.18,.11v-.21l.18,.11v-.21l.18,.11v-.21l.18,.11v-.21l.18,.11v-.21l.18,.11v-.21l.18,.11v-.21l.18,.11V242.03Z" fill="#c30d23"/>
      <g>
        <g clip-path="url(#clippath)">
          <g>
            <path d="M141.81,471.83c-54.01-83.5-61.05-180.54-15.73-216.74-66.25-10.41-100.4,54.45-76.29,144.87,24.11,90.41,97.36,172.15,163.61,182.55,21.85,3.43,40.21-1.33,54.14-12.49-41.43-6.56-89.53-42.23-125.72-98.2Z" fill="#898989"/>
            <path d="M229.62,485.63c-69.43-54.22-115.79-157.43-103.54-230.53-45.32,36.19-38.27,133.23,15.73,216.74s134.52,121.86,179.84,85.66c14.95-11.94,24.19-30.5,27.94-53.01-28.36,22.58-73.44,17.47-119.97-18.86Z" fill="#9fa0a0"/>
            <path d="M289.68,437.65c-66.25-10.41-139.5-92.14-163.61-182.55-12.24,73.1,34.12,176.31,103.54,230.53,69.43,54.22,135.63,38.92,147.88-34.18,4.04-24.11,1.7-51.5-5.74-79.32-7.69,45.67-37.67,72.5-82.07,65.53Z" fill="#898989"/>
            <path d="M305.91,340.76c-45.32,36.2-125.83-2.16-179.84-85.66,24.11,90.41,97.36,172.15,163.61,182.55,66.25,10.41,100.4-54.45,76.29-144.87-7.95-29.82-21.25-58.7-37.88-84.38,15.04,56.52,8.19,108.1-22.18,132.36Z" fill="#9fa0a0"/>
            <path d="M273.95,220.91c-12.24,73.1-78.45,88.4-147.88,34.18,54.01,83.5,134.52,121.86,179.84,85.66,45.32-36.2,38.27-133.23-15.73-216.74-17.81-27.54-38.51-50.17-59.88-66.83,33.74,52.23,51.86,114.74,43.65,163.72Z" fill="#898989"/>
            <path d="M202.37,110.23c24.11,90.41-10.05,155.27-76.29,144.87,69.43,54.22,135.63,38.92,147.88-34.18,12.24-73.1-34.12-176.31-103.54-230.53-22.9-17.88-45.45-28.2-65.83-31.38C147.98-7.05,186.21,49.64,202.37,110.23Z" fill="#9fa0a0"/>
            <path d="M110.34,38.36c54.01,83.5,61.05,180.54,15.73,216.74,66.25,10.41,100.4-54.45,76.29-144.87C178.25,19.81,105-61.92,38.76-72.32c-21.85-3.43-40.21,1.33-54.14,12.49C26.05-53.28,74.15-17.6,110.34,38.36Z" fill="#898989"/>
            <path d="M22.53,24.57c69.43,54.22,115.79,157.43,103.54,230.53,45.32-36.19,38.27-133.23-15.73-216.74C56.33-45.14-24.18-83.5-69.5-47.3c-14.95,11.94-24.19,30.5-27.94,53.01C-69.08-16.88-24-11.77,22.53,24.57Z" fill="#9fa0a0"/>
            <path d="M-37.54,72.54C28.71,82.95,101.96,164.68,126.07,255.1,138.32,182,91.96,78.79,22.53,24.57-46.9-29.65-113.1-14.35-125.35,58.75c-4.04,24.11-1.7,51.5,5.74,79.32,7.69-45.67,37.67-72.5,82.07-65.53Z" fill="#898989"/>
            <path d="M-53.76,169.43c45.32-36.2,125.83,2.16,179.84,85.66C101.96,164.68,28.71,82.95-37.54,72.54c-66.25-10.41-100.4,54.45-76.29,144.87,7.95,29.82,21.25,58.7,37.88,84.38-15.04-56.52-8.19-108.1,22.18-132.36Z" fill="#9fa0a0"/>
            <path d="M-21.8,289.28c12.24-73.1,78.45-88.4,147.88-34.18C72.07,171.59-8.45,133.24-53.76,169.43c-45.32,36.2-38.27,133.23,15.73,216.74,17.81,27.54,38.51,50.17,59.88,66.83-33.74-52.23-51.86-114.74-43.65-163.72Z" fill="#898989"/>
            <path d="M49.78,399.96c-24.11-90.41,10.05-155.27,76.29-144.87C56.65,200.88-9.56,216.18-21.8,289.28s34.12,176.31,103.54,230.53c22.9,17.88,45.45,28.2,65.83,31.38-43.4-33.94-81.63-90.63-97.79-151.22Z" fill="#9fa0a0"/>
          </g>
        </g>
        <path d="M252.15,534.11L0,388.53V135.71C0,90.25,15.2,55.4,41.71,40.09c22.29-12.87,50.46-10.79,79.31,5.87l16.6,9.58c30.78,17.77,59.61,50.26,81.19,91.5,21.5,41.07,33.33,86.08,33.33,126.74v260.32ZM13,381.02l226.15,130.57v-237.81c0-79.74-48.46-172.59-108.02-206.98l-16.6-9.58c-24.66-14.24-48.21-16.32-66.31-5.87-22.38,12.92-35.21,43.67-35.21,84.36v245.31Z" fill="#c30d23"/>
      </g>
    </g>
  </g>
</svg>