<?xml version="1.0" encoding="UTF-8"?>
<svg id="_レイヤー_1" data-name="レイヤー 1" xmlns="http://www.w3.org/2000/svg" xmlns:xlink="http://www.w3.org/1999/xlink" viewBox="0 0 3872.13 2177.01">
  <defs>
    <clipPath id="clippath">
      <rect width="3872.13" height="2177.01" fill="none"/>
    </clipPath>
  </defs>
  <g clip-path="url(#clippath)">
    <g>
      <path d="M2091.96,2870.36c-535.1-449-604.89-1246.77-155.89-1781.86-656.39,238.91-994.83,964.69-755.92,1621.08,238.91,656.39,964.69,994.83,1621.08,755.92,216.5-78.8,398.39-210.59,536.4-375.37-410.51,148.99-887.07,81.13-1245.67-219.77Z" fill="#898989"/>
      <path d="M2962,2553.69c-687.91-121.3-1147.23-777.28-1025.94-1465.19-449,535.1-379.2,1332.86,155.89,1781.86,535.1,449,1332.86,379.2,1781.86-155.89,148.1-176.5,239.72-381.57,276.85-593.28-281.01,334.29-727.66,513.79-1188.67,432.5Z" fill="#9fa0a0"/>
      <path d="M3557.15,1844.43c-656.39,238.91-1382.18-99.53-1621.08-755.92-121.3,687.91,338.03,1343.89,1025.94,1465.19,687.91,121.3,1343.89-338.03,1465.19-1025.94,40.01-226.9,16.81-450.31-56.88-652.22-76.22,430.01-373.27,808.79-813.16,968.89Z" fill="#898989"/>
      <path d="M3717.92,932.61c-449,535.1-1246.77,604.89-1781.86,155.89,238.91,656.39,964.69,994.83,1621.08,755.92,656.39-238.91,994.83-964.69,755.92-1621.08-78.8-216.5-210.59-398.39-375.37-536.4,148.99,410.51,81.13,887.07-219.77,1245.67Z" fill="#9fa0a0"/>
      <path d="M3401.25,62.57c-121.3,687.91-777.28,1147.23-1465.19,1025.94,535.1,449,1332.86,379.2,1781.86-155.89,449-535.1,379.2-1332.86-155.89-1781.86-176.5-148.1-381.57-239.72-593.28-276.85,334.29,281.01,513.79,727.66,432.5,1188.67Z" fill="#898989"/>
      <path d="M2691.99-532.58c238.91,656.39-99.53,1382.18-755.92,1621.08,687.91,121.3,1343.89-338.03,1465.19-1025.94,121.3-687.91-338.03-1343.89-1025.94-1465.19-226.9-40.01-450.31-16.81-652.22,56.88,430.01,76.22,808.79,373.27,968.89,813.16Z" fill="#9fa0a0"/>
      <path d="M1780.17-693.36c535.1,449,604.89,1246.77,155.89,1781.86,656.39-238.91,994.83-964.69,755.92-1621.08-238.91-656.39-964.69-994.83-1621.08-755.92-216.5,78.8-398.39,210.59-536.4,375.37,410.51-148.99,887.07-81.13,1245.67,219.77Z" fill="#898989"/>
      <path d="M910.13-376.69c687.91,121.3,1147.23,777.28,1025.94,1465.19,449-535.1,379.2-1332.86-155.89-1781.86C1245.07-1142.36,447.31-1072.56-1.69-537.46-149.79-360.97-241.41-155.89-278.54,55.82,2.47-278.47,449.12-457.97,910.13-376.69Z" fill="#9fa0a0"/>
      <path d="M314.98,332.58c656.39-238.91,1382.18,99.53,1621.08,755.92C2057.36,400.6,1598.03-255.39,910.13-376.69,222.22-497.98-433.77-38.65-555.06,649.25c-40.01,226.9-16.81,450.31,56.88,652.22C-421.96,871.47-124.91,492.69,314.98,332.58Z" fill="#898989"/>
      <path d="M154.2,1244.4c449-535.1,1246.77-604.89,1781.86-155.89C1697.16,432.11,971.37,93.67,314.98,332.58c-656.39,238.91-994.83,964.69-755.92,1621.08,78.8,216.5,210.59,398.39,375.37,536.4-148.99-410.51-81.13-887.07,219.77-1245.67Z" fill="#9fa0a0"/>
      <path d="M470.87,2114.44c121.3-687.91,777.28-1147.23,1465.19-1025.94-535.1-449-1332.86-379.2-1781.86,155.89-449,535.1-379.2,1332.86,155.89,1781.86,176.5,148.1,381.57,239.72,593.28,276.85-334.29-281.01-513.79-727.66-432.5-1188.67Z" fill="#898989"/>
      <path d="M1180.14,2709.59c-238.91-656.39,99.53-1382.18,755.92-1621.08-687.91-121.3-1343.89,338.03-1465.19,1025.94-121.3,687.91,338.03,1343.89,1025.94,1465.19,226.9,40.01,450.31,16.81,652.22-56.88-430.01-76.22-808.79-373.27-968.89-813.16Z" fill="#9fa0a0"/>
    </g>
  </g>
</svg>