<?xml version="1.0" encoding="UTF-8"?>
<svg id="_レイヤー_2" data-name="レイヤー 2" xmlns="http://www.w3.org/2000/svg" viewBox="0 0 2625.65 1006.03">
  <g id="_レイヤー_1-2" data-name="レイヤー 1">
    <g>
      <path d="M2625.65,7.06h-79.93l-4.82,2.79h0s-28.95,16.71-28.95,16.71h0s-4.82,2.79-4.82,2.79h0s-4.82,2.79-4.82,2.79h0s-4.82,2.79-4.82,2.79l-4.82,2.79h0s-1.63,.94-1.63,.94V6.69l-22.39,1.85c-18.52,1.53-32.73,6.3-43.56,13.13-1.68,.89-3.29,1.82-4.83,2.79-1.68,.88-3.28,1.81-4.82,2.78-1.68,.89-3.29,1.82-4.83,2.79-1.68,.88-3.28,1.81-4.82,2.78-1.68,.88-3.29,1.81-4.83,2.79-1.68,.88-3.29,1.81-4.83,2.79-1.68,.88-3.29,1.81-4.82,2.78-1.48,.78-2.91,1.6-4.29,2.45h-76.97V10.12h-69.94v1.41h-75.14l-4.82,2.79h0s-5.79,3.34-5.79,3.34v-6.24h-80.31v-.59h-69.94v2.79h-4.83v.04h-53.39c-6.35-5.28-14.93-8.23-25.17-8.23-9.63,0-16.75,2.45-21.96,5.76h-55.44l1.76-4.12h-133.74l-.05-.23h-86.53v2.79h-4.83v1.45h-16.61V0l-26.01,6.94c-1.26,.33-9.16,2.01-41.59,2.01h-.13v-2h-70.52l-12.82,2.7-4.82,2.79h0s-28.95,16.71-28.95,16.71h0s-4.82,2.79-4.82,2.79h0s-4.82,2.79-4.82,2.79h0s-4.82,2.79-4.82,2.79h0s-4.82,2.79-4.82,2.79h0s-9.65,5.57-9.65,5.57h0s-4.82,2.79-4.82,2.79h0s-9.65,5.57-9.65,5.57h0s-14.47,8.36-14.47,8.36l-9.65,5.57h0s-9.65,5.57-9.65,5.57h0s-4.82,2.79-4.82,2.79h0s-9.65,5.57-9.65,5.57h0s-4.82,2.79-4.82,2.79h0s-9.65,5.57-9.65,5.57h0s-14.47,8.36-14.47,8.36h0s-19.3,11.14-19.3,11.14h0s-4.82,2.79-4.82,2.79h0s-9.65,5.57-9.65,5.57h0s-14.47,8.36-14.47,8.36h0s-14.47,8.36-14.47,8.36h0s-14.47,8.36-14.47,8.36h0s-4.82,2.79-4.82,2.79h0s-4.82,2.79-4.82,2.79h0s-4.82,2.79-4.82,2.79h0s-4.82,2.79-4.82,2.79h0s-9.65,5.57-9.65,5.57l-4.82,2.79h0s-9.65,5.57-9.65,5.57l-24.12,13.93h0s-4.82,2.79-4.82,2.79h0s-4.82,2.79-4.82,2.79h0s-4.82,2.79-4.82,2.79h0s-9.65,5.57-9.65,5.57h0s-4.82,2.79-4.82,2.79h0s-9.65,5.57-9.65,5.57h0s-14.47,8.36-14.47,8.36h0s-19.3,11.14-19.3,11.14h0s-4.82,2.79-4.82,2.79h0s-9.65,5.57-9.65,5.57h0s-4.82,2.79-4.82,2.79h0s-9.65,5.57-9.65,5.57h0s-14.47,8.36-14.47,8.36h0s-14.47,8.36-14.47,8.36l-4.82,2.79h0s-4.82,2.79-4.82,2.79h0s-24.12,13.93-24.12,13.93h0s-4.82,2.79-4.82,2.79h0s-9.65,5.57-9.65,5.57h0s-9.65,5.57-9.65,5.57h0s-9.65,5.57-9.65,5.57h0s-9.65,5.57-9.65,5.57h0s-19.3,11.14-19.3,11.14h0s-4.82,2.79-4.82,2.79h0s-4.83,2.79-4.83,2.79l-4.82,2.79h0s-9.65,5.57-9.65,5.57h0s-9.65,5.57-9.65,5.57h0s-4.83,2.79-4.83,2.79l-4.82,2.79h0s-19.3,11.14-19.3,11.14h0s-9.65,5.57-9.65,5.57h0s-4.82,2.79-4.82,2.79h0s-9.65,5.57-9.65,5.57h0s-9.65,5.57-9.65,5.57h0s-9.65,5.57-9.65,5.57h0s-19.3,11.14-19.3,11.14h0s-9.65,5.57-9.65,5.57h0s-4.82,2.79-4.82,2.79h0s-9.65,5.57-9.65,5.57h0s-9.65,5.57-9.65,5.57h0s-9.65,5.57-9.65,5.57h0s-9.65,5.57-9.65,5.57l-19.3,11.14h0s-4.82,2.79-4.82,2.79h0s-9.65,5.57-9.65,5.57h0s-9.65,5.57-9.65,5.57h0s-9.65,5.57-9.65,5.57h0s-9.65,5.57-9.65,5.57h0s-19.3,11.14-19.3,11.14h0s-9.65,5.57-9.65,5.57h0s-4.82,2.79-4.82,2.79h0s-9.65,5.57-9.65,5.57h0s-9.65,5.57-9.65,5.57h0s-4.83,2.79-4.83,2.79l-4.82,2.79h0s-19.3,11.14-19.3,11.14h0s-9.65,5.57-9.65,5.57h0s-4.82,2.79-4.82,2.79h0s-9.65,5.57-9.65,5.57h0s-9.65,5.57-9.65,5.57h0s-9.65,5.57-9.65,5.57h0s-19.3,11.14-19.3,11.14h0s-9.65,5.57-9.65,5.57h0s-4.82,2.79-4.82,2.79h0s-9.65,5.57-9.65,5.57h0s-9.65,5.57-9.65,5.57h0s-9.65,5.57-9.65,5.57h0s-9.65,5.57-9.65,5.57h0s-19.3,11.14-19.3,11.14h0s-9.65,5.57-9.65,5.57l-4.82,2.79h0s-9.65,5.57-9.65,5.57h0s-9.65,5.57-9.65,5.57h0s-9.65,5.57-9.65,5.57h0s-19.3,11.14-19.3,11.14h0s-9.65,5.57-9.65,5.57h0s-4.82,2.79-4.82,2.79h0s-9.65,5.57-9.65,5.57h0s-9.65,5.57-9.65,5.57h0s-4.83,2.79-4.83,2.79h0s-4.82,2.79-4.82,2.79h0s-19.3,11.14-19.3,11.14h0s-9.65,5.57-9.65,5.57h0s-4.82,2.79-4.82,2.79h0s-9.65,5.57-9.65,5.57h0s-9.65,5.57-9.65,5.57h0s-9.65,5.57-9.65,5.57h0s-9.65,5.57-9.65,5.57l-9.65,5.57h0s-9.65,5.57-9.65,5.57h0s-14.47,8.36-14.47,8.36h0s-9.65,5.57-9.65,5.57h0s-9.65,5.57-9.65,5.57h0s-9.65,5.57-9.65,5.57h0s-19.3,11.14-19.3,11.14h0s-9.65,5.57-9.65,5.57h0s-4.82,2.79-4.82,2.79h0s-9.65,5.57-9.65,5.57h0s-9.65,5.57-9.65,5.57h0s-4.83,2.79-4.83,2.79l-4.82,2.79h0s-19.3,11.14-19.3,11.14h0s-9.65,5.57-9.65,5.57h0s-4.82,2.79-4.82,2.79h0s-9.65,5.57-9.65,5.57h0s-9.65,5.57-9.65,5.57h0s-4.83,2.79-4.83,2.79h0s-4.82,2.79-4.82,2.79h0s-19.3,11.14-19.3,11.14h0s-9.65,5.57-9.65,5.57h0s-14.47,8.36-14.47,8.36h0s-9.65,5.57-9.65,5.57h0s-9.65,5.57-9.65,5.57h0s-9.65,5.57-9.65,5.57l-9.65,5.57h0s-9.65,5.57-9.65,5.57h0s-9.65,5.57-9.65,5.57v87.81H.24v69.1l24.26-8.67h28.3v4.77l18.29-3.39,21.08,8.28v-4.68l4.83,1.9v-4.68l4.82,1.9v-3.98h1.78l3.04,1.2v-1.2h77.92v-.02c.44,.01,.89,.02,1.33,.02h12.78v.12h36.38v.71h20.68c4.94,0,9.54-.25,13.83-.71h.19v-.02c12.53-1.36,22.4-4.54,30.16-8.74,6.33,5.45,14.89,8.53,24.96,8.53h22.22c2.1,0,4.05-.02,5.9-.07v1.12l23-2.6c12.68-1.43,23.64-5.14,32.72-10.88,1.67-.87,3.28-1.81,4.84-2.8,1.66-.86,3.25-1.79,4.81-2.77,1.67-.87,3.28-1.81,4.84-2.8,1.66-.86,3.25-1.79,4.81-2.77,1.48-.77,2.91-1.6,4.3-2.46,9.19,11.58,22.31,19.45,38.85,23v1.02h5.71c1.11,.16,2.21,.33,3.35,.46l23.01,2.61v-3.33l4.83,.55v-.99c15.72-1.42,30.03-4.95,42.79-10.57,10.35,5.74,20.91,8.93,37.43,9.9v2.3l22.35-1.81c.6-.05,1.18-.11,1.77-.17h8.53v-1.28c3.07-.63,5.98-1.43,8.73-2.4v3.91h49.96c13.75,0,24.13-3.66,31.94-8.77,.7-.36,1.39-.72,2.06-1.1v9.99h50.31c21.04,0,37.73-4.05,50.66-12.33,1.67-.87,3.29-1.8,4.85-2.8,1.65-.87,3.26-1.79,4.8-2.77,1.67-.87,3.29-1.8,4.85-2.8,1.65-.87,3.26-1.79,4.8-2.77,1.67-.87,3.28-1.8,4.84-2.79,1.66-.87,3.27-1.79,4.82-2.78,1.66-.87,3.28-1.8,4.83-2.79,1.66-.87,3.26-1.79,4.81-2.78,.34-.18,.68-.36,1.02-.55h86.11v34.33h152.36v-2.79h2.97v7.25h75.23l4.82-2.79h0s9.65-5.57,9.65-5.57h0s9.65-5.57,9.65-5.57h0s9.65-5.57,9.65-5.57h0s9.65-5.57,9.65-5.57h0s9.65-5.57,9.65-5.57h0s9.65-5.57,9.65-5.57h0s4.82-2.79,4.82-2.79h0s9.65-5.57,9.65-5.57h0s9.65-5.57,9.65-5.57h0s9.65-5.57,9.65-5.57h0s19.3-11.14,19.3-11.14h0s9.65-5.57,9.65-5.57h0s4.82-2.79,4.82-2.79h0s9.65-5.57,9.65-5.57h0s9.65-5.57,9.65-5.57h0s4.83-2.79,4.83-2.79l4.82-2.79h0s19.3-11.14,19.3-11.14h0s9.65-5.57,9.65-5.57h0s4.82-2.79,4.82-2.79h0s9.65-5.57,9.65-5.57h0s9.65-5.57,9.65-5.57h0s4.83-2.79,4.83-2.79h0s4.82-2.79,4.82-2.79h0s19.3-11.14,19.3-11.14h0s9.65-5.57,9.65-5.57h0s4.82-2.79,4.82-2.79h0s9.65-5.57,9.65-5.57h0s9.65-5.57,9.65-5.57h0s9.65-5.57,9.65-5.57h0s9.65-5.57,9.65-5.57l9.65-5.57h0s9.65-5.57,9.65-5.57h0s4.82-2.79,4.82-2.79h0s9.65-5.57,9.65-5.57h0s9.65-5.57,9.65-5.57h0s9.65-5.57,9.65-5.57h0s9.65-5.57,9.65-5.57h0s19.3-11.14,19.3-11.14h0s4.82-2.79,4.82-2.79h0s9.65-5.57,9.65-5.57h0s9.65-5.57,9.65-5.57h0s9.65-5.57,9.65-5.57h0s9.65-5.57,9.65-5.57h0s19.3-11.14,19.3-11.14h0s4.82-2.79,4.82-2.79h0s4.83-2.79,4.83-2.79h0s4.82-2.79,4.82-2.79h0s9.65-5.57,9.65-5.57h0s9.65-5.57,9.65-5.57h0s9.65-5.57,9.65-5.57h0s19.3-11.14,19.3-11.14h0s4.82-2.79,4.82-2.79h0s4.83-2.79,4.83-2.79h0s4.82-2.79,4.82-2.79h0s9.65-5.57,9.65-5.57h0s9.65-5.57,9.65-5.57h0s9.65-5.57,9.65-5.57h0s19.3-11.14,19.3-11.14h0s4.82-2.79,4.82-2.79h0s4.83-2.79,4.83-2.79h0s4.82-2.79,4.82-2.79h0s9.65-5.57,9.65-5.57h0s9.65-5.57,9.65-5.57h0s9.65-5.57,9.65-5.57h0s24.12-13.93,24.12-13.93h0s4.83-2.79,4.83-2.79h0s4.82-2.79,4.82-2.79h0s9.65-5.57,9.65-5.57h0s9.65-5.57,9.65-5.57h0s9.65-5.57,9.65-5.57h0s9.65-5.57,9.65-5.57l14.47-8.36h0s4.82-2.79,4.82-2.79h0s4.82-2.79,4.82-2.79h0s9.65-5.57,9.65-5.57h0s9.65-5.57,9.65-5.57h0s9.65-5.57,9.65-5.57h0s9.65-5.57,9.65-5.57h0s19.3-11.14,19.3-11.14h0s4.82-2.79,4.82-2.79h0s9.65-5.57,9.65-5.57h0s9.65-5.57,9.65-5.57h0s9.65-5.57,9.65-5.57h0s9.65-5.57,9.65-5.57h0s19.3-11.14,19.3-11.14h0s4.82-2.79,4.82-2.79h0s4.83-2.79,4.83-2.79h0s4.82-2.79,4.82-2.79h0s9.65-5.57,9.65-5.57h0s9.65-5.57,9.65-5.57h0s9.65-5.57,9.65-5.57h0s24.12-13.93,24.12-13.93h0s4.83-2.79,4.83-2.79h0s4.82-2.79,4.82-2.79h0s9.65-5.57,9.65-5.57h0s9.65-5.57,9.65-5.57h0s9.65-5.57,9.65-5.57h0s24.12-13.93,24.12-13.93h0s4.83-2.79,4.83-2.79h0s4.82-2.79,4.82-2.79h0s9.65-5.57,9.65-5.57l9.65-5.57h0s9.65-5.57,9.65-5.57h0s24.12-13.93,24.12-13.93h0s4.83-2.79,4.83-2.79h0s4.82-2.79,4.82-2.79h0s9.65-5.57,9.65-5.57h0s9.65-5.57,9.65-5.57h0s9.65-5.57,9.65-5.57h0s9.65-5.57,9.65-5.57l14.47-8.36h0s4.82-2.79,4.82-2.79h0s4.82-2.79,4.82-2.79h0s9.65-5.57,9.65-5.57h0s9.65-5.57,9.65-5.57h0s9.65-5.57,9.65-5.57h0s9.65-5.57,9.65-5.57h0s14.47-8.36,14.47-8.36h0s9.65-5.57,9.65-5.57h0s9.65-5.57,9.65-5.57h0s9.65-5.57,9.65-5.57h0s9.65-5.57,9.65-5.57h0s9.65-5.57,9.65-5.57h0s28.95-16.71,28.95-16.71h0s19.3-11.14,19.3-11.14h0s4.82-2.79,4.82-2.79h0s9.65-5.57,9.65-5.57h0s4.82-2.79,4.82-2.79h0s9.65-5.57,9.65-5.57h0s14.47-8.36,14.47-8.36h0s19.3-11.14,19.3-11.14h0s4.82-2.79,4.82-2.79h0s9.65-5.57,9.65-5.57h0s14.47-8.36,14.47-8.36h0s14.47-8.36,14.47-8.36h0s14.47-8.36,14.47-8.36l4.82-2.79h0s4.82-2.79,4.82-2.79h0s9.65-5.57,9.65-5.57h0s14.47-8.36,14.47-8.36h0s28.95-16.71,28.95-16.71h0s4.82-2.79,4.82-2.79h0s4.82-2.79,4.82-2.79h0s4.82-2.79,4.82-2.79l4.82-2.79h0s9.65-5.57,9.65-5.57V88.31h-1.41l3.88-24.74V7.06Z" fill="#0e1dee"/>
      <g>
        <g>
          <path d="M1523.35,159.28l-18.29,3.39v-4.78h-28.3l-24.26,8.67V97.46h-.24V9.65h12.82v-2.7h70.52v2h.13c32.42,0,40.33-1.67,41.59-2.01L1603.34,0V110.63h-2v47.39h-56.91v9.55l-21.08-8.28Z" fill="#0e1dee"/>
          <path d="M1650.96,158.13v-.12h-12.79c-.45,0-.89,0-1.33-.02v.02h-73.82l6.96-21.42V47.35l3.88-.48V11.06h50.91V6.83h86.53l.82,4.23h8.81v28.46h4.55l-4.55,22.21v71.42l-1.42-.36,2.53,25.35h-71.08Z" fill="#0e1dee"/>
          <path d="M1687.33,158.84V90.08h4.35v-.73h-4.23V21.8l-7.37-14.74h165.01l-6.69,15.6v127.23l-13.85,4.85c-7.63,2.67-14.47,3.16-25.17,3.16h-22.22c-10.07,0-18.62-3.08-24.96-8.53-10.45,5.67-24.71,9.47-44.18,9.47h-20.68Z" fill="#0e1dee"/>
          <path d="M1932.5,156.35c-23.77-2.69-41.55-13.33-52.11-30.47-10.56,17.15-28.35,27.79-52.13,30.47l-23,2.59V82.09l11.41-2.31V11.18h82.08c5.22-3.32,12.33-5.76,21.96-5.76,22.63,0,37.26,14.4,37.26,36.67,0,12.89-5.11,23.37-13.88,29.79v7.79l11.37,2.08,.03,17.24v59.96l-23.01-2.61Z" fill="#0e1dee"/>
          <path d="M1923.44,155.9V79.96h3.76V13.65h76.9v-2.82h69.94V83.23h-.82v71.61h-20.68c-23.8,0-36.75-3.21-49.41-10.23-17.02,7.49-36.8,11.28-59,11.28h-20.68Z" fill="#0e1dee"/>
          <path d="M2040.56,81.68l6.35-1.59V11.41h107.45V51.27h37.63v20.68c0,25.94-3.94,44.37-12.39,58.02-7.09,11.45-21.11,25.1-47.69,25.1h-49.96v-3.91c-5.65,2-11.99,3.27-19.04,3.84l-22.35,1.81V81.68Z" fill="#0e1dee"/>
          <path d="M2165.91,155.19v-40.13l-7.64,.98V42.59l6.7-3.35V11.53h75.14v-1.41h69.94V82.64h-4.35v11.41h-9.91c-2.26,17.64-9.02,31.76-20.16,42.08-13.85,12.83-33.28,19.06-59.4,19.06h-50.31Z" fill="#0e1dee"/>
          <rect x="2279.85" y="43.63" width="142.13" height="76.4" fill="#0e1dee"/>
          <path d="M2392.62,154.37v-63.72c0-34.59,13.19-76.91,76-82.11l22.39-1.85V41.11c16.93,1.04,29.68,6.04,38.85,15.2,10.17,10.17,15.12,24.63,15.12,44.22v53.84h-152.36Z" fill="#0e1dee"/>
          <polygon points="2547.95 158.84 2547.95 88.31 2549.53 88.31 2545.72 63.54 2545.72 7.06 2625.65 7.06 2625.65 63.57 2621.77 88.31 2623.18 88.31 2623.18 158.84 2547.95 158.84" fill="#0e1dee"/>
        </g>
        <g>
          <path d="M1580.66,89.94v47.39h-26.57v-47.39h-1.06c-1.65,26.81-9.52,44.56-27.28,47.86v-34.22h-9.88c2.12,1.88,4.82,2.94,7.88,3.53v30.1c-3.29-1.29-6.35-2.82-9.29-4.59v4.59h-28.1v-6.23c-3.88,2.47-8.23,4.47-13.17,6.23v-30.1c4.12-.59,7.53-1.65,10.35-3.53h-10.35v-24.69h13.17v-2.12h-13.41v-20.93h4.47c-.24-1.18-.35-2.47-.71-3.76h-3.76V30.33h12.82v-2.7h29.16v2.7h13.17v21.75h-2.59l-.59,3.76h3.17v20.93h-13.64v2.12h13.76v12.93c1.18-2.82,2-7.64,2-15.87V29.62h5.53c15.76,0,38.1-.35,46.92-2.7v27.51c-4.82,1.29-15.17,2.12-26.1,2.47v4.94h26.1v28.1h-2Zm-82.66-37.86c.12,1.29,.35,2.59,.47,3.76h4.94l.35-3.76h-5.76Z" fill="#fff"/>
          <path d="M1696.01,105.58l3.17,31.87h-29.63l-2.59-24.34h-15.52l-.82-10.7h-39.16v-5.29c-2.23,2.94-4.94,5.64-8.11,8h17.75c0,12.7-.35,23.87-1.76,32.22h-27.87c1.53-4.7,2.94-17.05,3.41-27.04-1.41,.71-2.82,1.29-4.23,1.88v-46.56c2.82-.35,3.88-3.06,3.88-7.06V31.74h50.91v-4.23h26.81v4.23h2.7l-.94-4.23h20.22l.82,4.23h5.17v25.75h-22.81c.35,.94,.71,1.88,1.18,2.7h21.52c-.94,4.59-2.47,8.82-4.47,12.82,1.53,.47,3.06,.82,4.58,1.18v32.45c-1.41-.35-2.82-.71-4.23-1.06Zm-44.09-38.92v7.88h-30.69c-.23,.94-.35,1.88-.59,2.7h31.28v20.93h2.71v-21.17c.71-.12,1.18-.35,1.76-.47-1.65-3.06-3.17-6.47-4.47-9.88Zm-2.47-9.17h-27.75l.24,.35v2.35h28.1c-.24-.82-.35-1.76-.59-2.7Zm4.59,79.84h-15.87c-11.41,0-14.93-6.47-14.93-13.17v-19.05h25.99v8.35c0,.82,.71,1.76,2,1.76h3.17c4.47,0,8.7-.35,11.41-1.29v21.64c-2,.82-5.76,1.76-11.76,1.76Zm-19.28-49.15h-6.23v3.53h6.23v-3.53Zm39.51,7.88c-1.29,.82-2.71,1.53-4.12,2.12h4l.82,6.94h19.4c-7.64-2.12-14.34-5.17-20.11-9.05Z" fill="#fff"/>
          <path d="M1799.37,137.21h-22.22c-10.94,0-16.23-6.11-16.23-16.23v-6.23h-3.65c-5.41,13.29-19.28,23.4-49.27,23.4v-27.4c8.94,0,13.52-.59,15.76-2.82h-11.41v-39.27h-4.23V34.33h7.88c-.71-2.47-1.53-4.7-2.47-6.58h27.4c.94,1.65,1.88,4,2.7,6.58h5.29c-.47-2.59-1.06-4.94-1.76-6.58h27.16c.82,1.53,1.41,3.88,2,6.58h5.41l2.7-6.58h29.28l-2.82,6.58h6.82v34.33h-4.35v39.27h-20.34v1.29c0,.94,1.29,1.29,2.35,1.29h4.35c10.7,0,13.52-.71,17.99-2.35v27.04c-4.7,1.65-9.17,2-18.34,2Zm-14.46-79.37h-44.09v2.59h44.09v-2.59Zm-4,13.76h-36.1v2.59h36.1v-2.59Zm0,10.94h-36.1v2.7h36.1v-2.7Zm0,10.82h-36.1v2.7h36.1v-2.7Z" fill="#fff"/>
          <path d="M1825.95,135.8v-36.8c8.7-1.76,11.41-6.94,11.41-16.7V31.86h33.51v49.62c0,32.22-14.7,50.91-44.92,54.32Zm97.48-77.72v24.22c0,9.76,3.06,15.17,11.41,16.7v36.8c-30.1-3.41-44.92-22.11-44.92-54.32V31.86h16.58c2.7-3.88,7.41-5.76,14.23-5.76,11.17,0,16.58,5.06,16.58,15.99,0,9.99-4.82,15.17-13.88,15.99Zm-2.7-20.22c-2.82,0-4.12,1.06-4.12,3.88,0,3.29,1.29,4.23,4.12,4.23s3.88-.94,3.88-4.23c0-2.82-1.29-3.88-3.88-3.88Z" fill="#fff"/>
          <path d="M2039.84,62.55c-.35,10.58-3.53,22.58-10.35,33.63,6.82,2.7,14.23,3.76,23.05,3.76v34.22c-26.46,0-35.04-4.12-48.33-13.29-14.58,8.58-34.1,14.35-60.09,14.35v-34.57c46.45,0,59.5-22.93,59.5-32.57v-2.47h-55.74v-31.28h76.9v-2.82h28.57v13.4h-23.63v4.35h23.63v13.29h-13.52Z" fill="#fff"/>
          <path d="M2061.24,134.39v-36.57c4.7-1.18,6.35-3.41,6.35-14.7V32.09h30.34v47.97c0,38.92-10.58,52.21-36.69,54.32Zm79.02-62.44v.24c0,22.11-4.35,26.34-5.76,26.34h-1.41l.59-6V32.09h-31.04v102.3h29.28c27.75,0,39.39-19.99,39.39-62.44h-31.04Zm31.04-.24v0Z" fill="#fff"/>
          <path d="M2285.01,61.96v11.41h-9.05v6.7c0,36.45-18.46,54.44-59.73,54.44h-29.63v-34.33h29.63c19.05,0,24.22-8.82,24.22-19.99v-6.82h-28.1c-6.35,10.23-16.93,17.05-33.39,19.17V55.37c4.7-2.35,6.7-5.29,6.7-13.29v-9.88h34.33v7.29h40.8v-8.7h28.57v13.4h-24.22v4.47h24.22v13.29h-4.35Z" fill="#fff"/>
          <path d="M2300.54,99.35v-35.04h100.77v35.04h-100.77Z" fill="#fff"/>
          <path d="M2413.3,133.69v-43.04c0-44.92,24.34-58.79,57.03-61.5V63.61c-17.52,2.12-21.87,10.58-21.87,27.04v12.46h41.86v-4.59c0-4.47-1.29-4.82-8.35-4.82V61.61c31.04-.59,42.33,11.29,42.33,38.92v33.16h-111Z" fill="#fff"/>
          <path d="M2597.91,106.99h-24.58l-6.94-45.03V27.74h38.57V61.96l-7.05,45.03Zm-29.28,31.16v-29.16h33.86v29.16h-33.86Z" fill="#fff"/>
        </g>
      </g>
    </g>
  </g>
</svg>