<?xml version="1.0" encoding="UTF-8"?>
<svg id="_レイヤー_1" data-name="レイヤー 1" xmlns="http://www.w3.org/2000/svg" xmlns:xlink="http://www.w3.org/1999/xlink" viewBox="0 0 3872.13 2177.01">
  <defs>
    <clipPath id="clippath">
      <rect y="0" width="3872.13" height="2177.01" fill="none"/>
    </clipPath>
  </defs>
  <g clip-path="url(#clippath)">
    <g>
      <polygon points="2330.27 383.6 2088.03 243.74 2330.26 103.89 2572.5 243.75 2330.27 383.6" fill="none"/>
      <path d="M2411.26,162.11h.02l-.14-.27c-.6-1.33-1.29-2.65-2.09-3.95l-78.69-148.61s-74.44,140.59-78.68,148.6c-.81,1.31-1.5,2.64-2.11,3.99,0,0-.13,.25-.13,.25h.02c-7.04,15.95,.23,33.57,21.85,46.05,32.62,18.83,85.5,18.83,118.11,0,21.62-12.48,28.89-30.1,21.85-46.05Z" fill="#c30d23" stroke="#fff" stroke-miterlimit="10" stroke-width="2"/>
      <path d="M2532.28,232.04h.02l-.14-.27c-.6-1.33-1.29-2.65-2.09-3.95l-78.69-148.61s-74.44,140.59-78.68,148.6c-.81,1.31-1.5,2.64-2.11,3.99,0,0-.13,.25-.13,.25h.02c-7.04,15.95,.23,33.57,21.85,46.05,32.62,18.83,85.5,18.83,118.11,0,21.62-12.48,28.89-30.1,21.85-46.05Z" fill="#c30d23" stroke="#fff" stroke-miterlimit="10" stroke-width="2"/>
      <path d="M2289.83,232.17h.02l-.14-.27c-.6-1.33-1.29-2.65-2.09-3.95l-78.69-148.61s-74.44,140.59-78.68,148.6c-.81,1.31-1.5,2.64-2.11,3.99,0,0-.13,.25-.13,.25h.02c-7.04,15.95,.23,33.57,21.85,46.05,32.62,18.83,85.5,18.83,118.11,0,21.62-12.48,28.89-30.1,21.85-46.05Z" fill="#c30d23" stroke="#fff" stroke-miterlimit="10" stroke-width="2"/>
      <path d="M2411.17,301.97h.02l-.14-.27c-.6-1.33-1.29-2.65-2.09-3.95l-78.69-148.61s-74.44,140.59-78.68,148.6c-.81,1.31-1.5,2.64-2.11,3.99,0,0-.13,.25-.13,.25h.02c-7.04,15.95,.23,33.57,21.85,46.05,32.62,18.83,85.5,18.83,118.11,0,21.62-12.48,28.89-30.1,21.85-46.05Z" fill="#c30d23" stroke="#fff" stroke-miterlimit="10" stroke-width="2"/>
    </g>
    <g>
      <polygon points="392.13 1502.41 149.89 1362.56 392.12 1222.71 634.36 1362.56 392.13 1502.41" fill="none"/>
      <path d="M473.12,1280.93h.02l-.14-.27c-.6-1.33-1.29-2.65-2.09-3.95l-78.69-148.61s-74.44,140.59-78.68,148.6c-.81,1.31-1.5,2.64-2.11,3.99,0,0-.13,.25-.13,.25h.02c-7.04,15.95,.23,33.57,21.85,46.05,32.62,18.83,85.5,18.83,118.11,0,21.62-12.48,28.89-30.1,21.85-46.05Z" fill="#c30d23" stroke="#fff" stroke-miterlimit="10" stroke-width="2"/>
      <path d="M594.15,1350.86h.02l-.14-.27c-.6-1.33-1.29-2.65-2.09-3.95l-78.69-148.61s-74.44,140.59-78.68,148.6c-.81,1.31-1.5,2.64-2.11,3.99,0,0-.13,.25-.13,.25h.02c-7.04,15.95,.23,33.57,21.85,46.05,32.62,18.83,85.5,18.83,118.11,0,21.62-12.48,28.89-30.1,21.85-46.05Z" fill="#c30d23" stroke="#fff" stroke-miterlimit="10" stroke-width="2"/>
      <path d="M351.69,1350.98h.02l-.14-.27c-.6-1.33-1.29-2.65-2.09-3.95l-78.69-148.61s-74.44,140.59-78.68,148.6c-.81,1.31-1.5,2.64-2.11,3.99,0,0-.13,.25-.13,.25h.02c-7.04,15.95,.23,33.57,21.85,46.05,32.62,18.83,85.5,18.83,118.11,0,21.62-12.48,28.89-30.1,21.85-46.05Z" fill="#c30d23" stroke="#fff" stroke-miterlimit="10" stroke-width="2"/>
      <path d="M473.03,1420.78h.02l-.14-.27c-.6-1.33-1.29-2.65-2.09-3.95l-78.69-148.61s-74.44,140.59-78.68,148.6c-.81,1.31-1.5,2.64-2.11,3.99,0,0-.13,.25-.13,.25h.02c-7.04,15.95,.23,33.57,21.85,46.05,32.62,18.83,85.5,18.83,118.11,0,21.62-12.48,28.89-30.1,21.85-46.05Z" fill="#c30d23" stroke="#fff" stroke-miterlimit="10" stroke-width="2"/>
    </g>
  </g>
</svg>