<?xml version="1.0" encoding="UTF-8"?>
<svg id="_レイヤー_2" data-name="レイヤー 2" xmlns="http://www.w3.org/2000/svg" viewBox="0 0 2945.75 1246.49">
  <g id="_レイヤー_1-2" data-name="レイヤー 1">
    <g>
      <path d="M2885.94,74.93c-22.17,0-34.87-1.71-41.76-3.22V8.15h-130.94l-5.71,3.3h0s-9.85,5.68-9.85,5.68V6.76h-134.71l-5.71,3.3h0s-3.93,2.27-3.93,2.27h-246.17l-2.75,1.59h-191.24l-5.71,3.3h0s-11.42,6.59-11.42,6.59h0s-17.13,9.89-17.13,9.89h0s-22.84,13.18-22.84,13.18h0s-17.13,9.89-17.13,9.89h0s-11.42,6.59-11.42,6.59l-2.15,1.24h-59c.03-.86,.05-1.73,.05-2.61,0-37.66-24.72-61.99-62.98-61.99-14.86,0-27.69,3.67-37.84,10.33-1.99,1-3.89,2.1-5.71,3.3-1.99,1-3.89,2.1-5.7,3.29-1.99,1-3.89,2.1-5.71,3.3-1.41,.71-2.76,1.47-4.08,2.28V10.14h-125.97L0,1002.26v136.33c0,35.24,10.11,61.31,30.91,79.7,20.4,18.04,49.88,26.81,90.12,26.81h118.84v-3.3h5.71v-3.3h5.71v-3.3h5.71v-3.3h5.71v-3.3h5.71v-3.3h5.71v-3.3h5.71v-3.3h5.71v-3.3h5.71v-3.3h5.71v-3.3h5.71v-3.3h5.71v-3.3h5.71v-3.3h5.71v-3.3h5.71v-3.3h5.71v-3.3h5.71v-3.2h51.48v60.62h34.96c37.53,0,70.98-6.41,99.74-19.07,17.99,9.98,36.34,15.4,65.66,16.87v.81h69.94c22.94,0,42.55-5.05,58.48-14.99,1.96-1.03,3.85-2.14,5.71-3.3,1.96-1.03,3.86-2.14,5.72-3.3,1.95-1.02,3.85-2.13,5.7-3.29,1.96-1.03,3.85-2.14,5.71-3.3,1.96-1.03,3.85-2.14,5.71-3.3,1.96-1.03,3.85-2.14,5.71-3.3,1.96-1.03,3.86-2.14,5.72-3.3,1.95-1.02,3.84-2.13,5.7-3.29,1.96-1.03,3.85-2.14,5.71-3.3,1.96-1.03,3.85-2.14,5.71-3.3,1.96-1.03,3.85-2.14,5.71-3.3,1.96-1.03,3.86-2.14,5.72-3.3,1.95-1.02,3.85-2.13,5.7-3.29,1.96-1.03,3.85-2.14,5.71-3.3,1.96-1.03,3.85-2.14,5.71-3.3,1.96-1.03,3.86-2.14,5.72-3.3,1.95-1.02,3.85-2.13,5.7-3.29,.18-.09,.35-.19,.52-.29v71.31h84.65c36.98,0,66.16-6.74,88.4-20.5,1.95-1.05,3.85-2.15,5.71-3.3,.45-.24,.89-.49,1.33-.73v24.52h130.94l17.13-13.18h5.71l11.42-9.89h5.71v-3.3h5.71v-3.3h5.71v-3.3h5.71v-3.3h5.71v-3.3h5.71v-3.3h5.71v-3.3h5.71l21.64-3.54,5.71-3.3h0s5.71-3.3,5.71-3.3h0s22.84-13.18,22.84-13.18h0s5.71-3.3,5.71-3.3h0s17.13-9.89,17.13-9.89h0s5.71-3.3,5.71-3.3h0s5.71-3.3,5.71-3.3h0s17.13-9.89,17.13-9.89h0s5.71-3.3,5.71-3.3h0s22.84-13.18,22.84-13.18h0s5.71-3.3,5.71-3.3h0s28.54-16.48,28.54-16.48h0s17.13-9.89,17.13-9.89l5.71-3.3h0s5.71-3.3,5.71-3.3h0s22.84-13.18,22.84-13.18h0s5.71-3.3,5.71-3.3h0s22.84-13.18,22.84-13.18h0s5.71-3.3,5.71-3.3h0s22.84-13.18,22.84-13.18h0s5.71-3.3,5.71-3.3h0s17.13-9.89,17.13-9.89h0s5.71-3.3,5.71-3.3h0s22.84-13.18,22.84-13.18l5.71-3.3h0s28.54-16.48,28.54-16.48h0s22.84-13.18,22.84-13.18h0s5.71-3.3,5.71-3.3h0s22.84-13.18,22.84-13.18h0s5.71-3.3,5.71-3.3h0s22.84-13.18,22.84-13.18h0s5.71-3.3,5.71-3.3h0s22.84-13.18,22.84-13.18l5.71-3.3h0s5.71-3.3,5.71-3.3h0s11.42-6.59,11.42-6.59h0s5.71-3.3,5.71-3.3h0s5.71-3.3,5.71-3.3h0s5.71-3.3,5.71-3.3h0s17.13-9.89,17.13-9.89h0s5.71-3.3,5.71-3.3h0s5.71-3.3,5.71-3.3h0s5.71-3.3,5.71-3.3h0s5.71-3.3,5.71-3.3h0s5.71-3.3,5.71-3.3h0s5.71-3.3,5.71-3.3h0s11.42-6.59,11.42-6.59h0s5.71-3.3,5.71-3.3h0s5.71-3.3,5.71-3.3h0s5.71-3.3,5.71-3.3h0s5.71-3.3,5.71-3.3h0s5.71-3.3,5.71-3.3h0s5.71-3.3,5.71-3.3h0s5.71-3.3,5.71-3.3h0s5.71-3.3,5.71-3.3h0s5.71-3.3,5.71-3.3h0s5.71-3.3,5.71-3.3h0s5.71-3.3,5.71-3.3h0s5.71-3.3,5.71-3.3h0s5.71-3.3,5.71-3.3h0s5.71-3.3,5.71-3.3h0s5.71-3.3,5.71-3.3h0s11.42-6.59,11.42-6.59h0s5.71-3.3,5.71-3.3h0s5.71-3.3,5.71-3.3h0s5.71-3.3,5.71-3.3h0s5.71-3.3,5.71-3.3h0s5.71-3.3,5.71-3.3h0s5.71-3.3,5.71-3.3h0s5.71-3.3,5.71-3.3h0s5.71-3.3,5.71-3.3h0s5.71-3.3,5.71-3.3h0s5.71-3.3,5.71-3.3h0s5.71-3.3,5.71-3.3h0s5.71-3.3,5.71-3.3h0s5.71-3.3,5.71-3.3h0s5.71-3.3,5.71-3.3h0s5.71-3.3,5.71-3.3h0s11.42-6.59,11.42-6.59h0s5.71-3.3,5.71-3.3h0s5.71-3.3,5.71-3.3h0s5.71-3.3,5.71-3.3h0s5.71-3.3,5.71-3.3h0s5.71-3.3,5.71-3.3h0s5.71-3.3,5.71-3.3h0s5.71-3.3,5.71-3.3h0s5.71-3.3,5.71-3.3h0s5.71-3.3,5.71-3.3h0s5.71-3.3,5.71-3.3h0s5.71-3.3,5.71-3.3h0s5.71-3.3,5.71-3.3h0s5.71-3.3,5.71-3.3h0s5.71-3.3,5.71-3.3h0s5.71-3.3,5.71-3.3h0s11.42-6.59,11.42-6.59h0s5.71-3.3,5.71-3.3h0s5.71-3.3,5.71-3.3l5.71-3.3h0s5.71-3.3,5.71-3.3h0s5.71-3.3,5.71-3.3h0s5.71-3.3,5.71-3.3h0s5.71-3.3,5.71-3.3h0s5.71-3.3,5.71-3.3h0s5.71-3.3,5.71-3.3h0s5.71-3.3,5.71-3.3h0s11.42-6.59,11.42-6.59h0s5.71-3.3,5.71-3.3h0s5.71-3.3,5.71-3.3h0s5.71-3.3,5.71-3.3h0s11.42-6.59,11.42-6.59h0s5.71-3.3,5.71-3.3h0s11.42-6.59,11.42-6.59h0s5.71-3.3,5.71-3.3h0s5.71-3.3,5.71-3.3h0s5.71-3.3,5.71-3.3h0s5.71-3.3,5.71-3.3h0s5.71-3.3,5.71-3.3h0s5.71-3.3,5.71-3.3h0s5.71-3.3,5.71-3.3h0s11.42-6.59,11.42-6.59h0s5.71-3.3,5.71-3.3h0s5.71-3.3,5.71-3.3h0s5.71-3.3,5.71-3.3h0s11.42-6.59,11.42-6.59h0s5.71-3.3,5.71-3.3h0s11.42-6.59,11.42-6.59h0s5.71-3.3,5.71-3.3h0s5.71-3.3,5.71-3.3h0s5.71-3.3,5.71-3.3h0s5.71-3.3,5.71-3.3h0s5.71-3.3,5.71-3.3h0s5.71-3.3,5.71-3.3h0s5.71-3.3,5.71-3.3h0s11.42-6.59,11.42-6.59h0s5.71-3.3,5.71-3.3h0s5.71-3.3,5.71-3.3h0l5.71-3.3h0s11.42-6.59,11.42-6.59h0s5.71-3.3,5.71-3.3h0s11.42-6.59,11.42-6.59h0s11.42-6.59,11.42-6.59h0s5.71-3.3,5.71-3.3h0s5.71-3.3,5.71-3.3h0s5.71-3.3,5.71-3.3h0s5.71-3.3,5.71-3.3h0s5.71-3.3,5.71-3.3h0s11.42-6.59,11.42-6.59h0s5.71-3.3,5.71-3.3h0s5.71-3.3,5.71-3.3l5.71-3.3h0s11.42-6.59,11.42-6.59h0s5.71-3.3,5.71-3.3h0s11.42-6.59,11.42-6.59h0s11.42-6.59,11.42-6.59l5.71-3.3h0s5.71-3.3,5.71-3.3h0s5.71-3.3,5.71-3.3h0s5.71-3.3,5.71-3.3h0s5.71-3.3,5.71-3.3h0s11.42-6.59,11.42-6.59h0s5.71-3.3,5.71-3.3h0s11.42-6.59,11.42-6.59h0s11.42-6.59,11.42-6.59h0s5.71-3.3,5.71-3.3h0s11.42-6.59,11.42-6.59h0s11.42-6.59,11.42-6.59l5.71-3.3h0s5.71-3.3,5.71-3.3h0s5.71-3.3,5.71-3.3h0s5.71-3.3,5.71-3.3h0s5.71-3.3,5.71-3.3h0s11.42-6.59,11.42-6.59h0s5.71-3.3,5.71-3.3h0s11.42-6.59,11.42-6.59h0s11.42-6.59,11.42-6.59h0s5.71-3.3,5.71-3.3h0s11.42-6.59,11.42-6.59h0s17.13-9.89,17.13-9.89h0s5.71-3.3,5.71-3.3h0s5.71-3.3,5.71-3.3h0s5.71-3.3,5.71-3.3h0l5.71-3.3h0s11.42-6.59,11.42-6.59h0s5.71-3.3,5.71-3.3h0s11.42-6.59,11.42-6.59h0s11.42-6.59,11.42-6.59h0l5.71-3.3h0s11.42-6.59,11.42-6.59h0s17.13-9.89,17.13-9.89h0s11.42-6.59,11.42-6.59h0s5.71-3.3,5.71-3.3l5.71-3.3h0s11.42-6.59,11.42-6.59h0s5.71-3.3,5.71-3.3h0s11.42-6.59,11.42-6.59h0s11.42-6.59,11.42-6.59l5.71-3.3h0s11.42-6.59,11.42-6.59h0s17.13-9.89,17.13-9.89h0s11.42-6.59,11.42-6.59h0l11.42-6.59h0s11.42-6.59,11.42-6.59h0s5.71-3.3,5.71-3.3h0s11.42-6.59,11.42-6.59h0s11.42-6.59,11.42-6.59V74.93h-59.8Z" fill="#0e1dee"/>
      <g>
        <g>
          <path d="M1839.44,252.98c-40.24,0-69.72-8.77-90.12-26.81-20.8-18.39-30.91-44.46-30.91-79.7V10.14h125.97V26.24h5.44C1860.43,9.67,1879.26,0,1903.44,0c38.26,0,62.98,24.33,62.98,61.99,0,16.6-4.89,30.87-13.91,41.56v23.85h5.76v125.57h-118.84Z" fill="#0e1dee"/>
          <rect x="1914.2" y="64.6" width="240.26" height="129.15" fill="#0e1dee"/>
          <path d="M2106.8,254.37V126.01h6.36V13.91h225.35V92.6c0,8.85-.84,19.88-3.61,32.22h25.07v127.76h-34.96c-40.23,0-62.13-5.42-83.52-17.29-28.76,12.67-62.21,19.08-99.74,19.08h-34.96Z" fill="#0e1dee"/>
          <path d="M2307.16,252.98V12.32h250V105.72c0,28.97-8.85,53.59-25.59,71.21-16.29,17.14-38.89,26.65-65.61,27.66-5.31,10.73-12.74,20.04-22.12,27.57-17.21,13.81-39.66,20.82-66.73,20.82h-69.94Z" fill="#0e1dee"/>
          <path d="M2533.16,252.98v-75.13h-29.02V20.47h58.83V6.76h134.72v13.71h59.63V122.61c0,40.91-10.03,71.41-30.67,93.25-23.6,24.97-59.2,37.11-108.84,37.11h-84.65Z" fill="#0e1dee"/>
          <path d="M2713.24,252.98V8.15h130.94v63.56c6.89,1.51,19.59,3.22,41.76,3.22h59.8V203.29h-59.8c-15.08,0-28.96-.72-41.76-2.19v51.88h-130.94Z" fill="#0e1dee"/>
        </g>
        <g>
          <path d="M1917.55,86.84v30.41h-108.13v23.85c0,17.69,6.16,21.27,45.12,21.27h68.77v55.65h-83.88c-63.8,0-86.06-24.25-86.06-71.55V45.1h56.05v16.1h65.79c.2-17.89,9.54-26.24,28.22-26.24s28.02,8.55,28.02,27.03c0,13.12-4.77,21.07-13.91,24.85Zm-14.11-32c-4.77,0-6.96,1.79-6.96,6.56,0,5.56,2.19,7.16,6.96,7.16s6.56-1.59,6.56-7.16c0-4.77-2.19-6.56-6.56-6.56Z" fill="#fff"/>
          <path d="M1949.16,158.79v-59.23h170.34v59.23h-170.34Z" fill="#fff"/>
          <path d="M2243.33,195.16c-24.65,14.51-57.64,24.25-101.57,24.25v-58.44c78.51,0,100.57-38.76,100.57-55.06v-4.17h-94.21V48.87h155.43v43.73c0,18.88-5.17,40.55-17.49,60.82,11.53,4.57,24.05,6.36,38.96,6.36v57.84c-44.72,0-59.23-6.96-81.69-22.46Z" fill="#fff"/>
          <path d="M2461.18,169.72h-21.07c-3.38,29.42-24.05,48.3-63.01,48.3h-34.98v-56.25h26.04c13.32,0,15.5-3.58,15.5-14.51v-33.79h72.35c3.98,0,8.75-2.98,8.75-8.94v-4.17h-122.64V47.28h180.08v58.44c0,40.35-22.26,64-61.02,64Z" fill="#fff"/>
          <path d="M2617.81,218.02h-49.69v-56.85h50.48c36.57,0,45.52-9.54,45.52-41.34v-5.76h-66.58v28.82h-58.44V55.43h58.83v-13.71h64.8v13.71h59.63V122.61c0,57.44-21.47,95.41-104.55,95.41Z" fill="#fff"/>
          <path d="M2885.94,168.33c-31.01,0-56.65-3.38-76.72-10.33v60.03h-61.02V43.11h61.02v41.34c0,18.88,31.01,25.44,76.72,25.44h24.85v58.44h-24.85Z" fill="#fff"/>
        </g>
      </g>
    </g>
  </g>
</svg>