<?xml version="1.0" encoding="UTF-8"?>
<svg id="_レイヤー_2" data-name="レイヤー 2" xmlns="http://www.w3.org/2000/svg" xmlns:xlink="http://www.w3.org/1999/xlink" viewBox="0 0 307.16 534.11">
  <defs>
    <clipPath id="clippath">
      <path d="M245.65,522.85L6.5,384.78V135.71c0-81.94,49.82-119.6,111.27-84.12l16.6,9.58c61.46,35.48,111.27,130.67,111.27,212.61v249.06Z" fill="none"/>
    </clipPath>
  </defs>
  <g id="_レイヤー_1-2" data-name="レイヤー 1">
    <g>
      <path d="M307.16,242.03c0-40.66-11.84-85.67-33.33-126.74-21.58-41.23-50.42-73.73-81.19-91.5l-16.6-9.58C147.19-2.45,119.02-4.53,96.73,8.34c-.03,.02-.05,.03-.08,.05-.03,.02-.07,.04-.1,.06-.03,.02-.05,.03-.08,.05-.03,.02-.07,.04-.1,.06-.03,.02-.05,.03-.08,.05-.03,.02-.07,.04-.1,.06-.03,.02-.05,.03-.08,.05-.03,.02-.07,.04-.1,.06-.03,.02-.05,.03-.08,.05-.03,.02-.07,.04-.1,.06-.03,.02-.05,.03-.08,.05-.03,.02-.07,.04-.1,.06-.03,.02-.05,.03-.08,.05-.03,.02-.07,.04-.1,.06-.03,.02-.05,.03-.08,.05-.03,.02-.07,.04-.1,.06-.03,.02-.05,.03-.08,.05-.03,.02-.07,.04-.1,.06-.03,.02-.05,.03-.08,.05-.03,.02-.07,.04-.1,.06-.03,.02-.05,.03-.08,.05-.03,.02-.07,.04-.1,.06-.03,.02-.06,.03-.08,.05-.03,.02-.07,.04-.1,.06-.03,.02-.05,.03-.08,.05-.03,.02-.07,.04-.1,.06-.03,.02-.05,.03-.08,.05-.03,.02-.07,.04-.1,.06-.03,.02-.05,.03-.08,.05-.03,.02-.07,.04-.1,.06-.03,.02-.05,.03-.08,.05-.03,.02-.07,.04-.1,.06-.03,.02-.05,.03-.08,.05-.03,.02-.07,.04-.1,.06-.03,.02-.05,.03-.08,.05-.03,.02-.07,.04-.1,.06-.03,.02-.05,.03-.08,.05-.03,.02-.07,.04-.1,.06-.03,.02-.05,.03-.08,.05-.03,.02-.07,.04-.1,.06-.03,.02-.05,.03-.08,.05-.03,.02-.07,.04-.1,.06-.03,.02-.05,.03-.08,.05-.03,.02-.07,.04-.1,.06-.03,.02-.05,.03-.08,.05-.03,.02-.07,.04-.1,.06-.03,.02-.05,.03-.08,.05-.03,.02-.07,.04-.1,.06-.03,.02-.05,.03-.08,.05-.03,.02-.07,.04-.1,.06-.03,.02-.05,.03-.08,.05-.03,.02-.07,.04-.1,.06-.03,.02-.05,.03-.08,.05-.03,.02-.07,.04-.1,.06-.03,.02-.05,.03-.08,.05-.03,.02-.07,.04-.1,.06-.03,.02-.05,.03-.08,.05-.03,.02-.07,.04-.1,.06-.03,.02-.05,.03-.08,.05-.03,.02-.07,.04-.1,.06-.03,.02-.05,.03-.08,.05-.03,.02-.07,.04-.1,.06-.03,.02-.05,.03-.08,.05-.03,.02-.07,.04-.1,.06-.03,.02-.05,.03-.08,.05-.03,.02-.07,.04-.1,.06-.03,.02-.05,.03-.08,.05-.03,.02-.07,.04-.1,.06-.03,.02-.06,.03-.08,.05-.03,.02-.07,.04-.1,.06-.03,.02-.05,.03-.08,.05-.03,.02-.07,.04-.1,.06-.03,.02-.05,.03-.08,.05-.03,.02-.07,.04-.1,.06-.03,.02-.05,.03-.08,.05-.03,.02-.07,.04-.1,.06-.03,.02-.05,.03-.08,.05-.03,.02-.07,.04-.1,.06-.03,.02-.05,.03-.08,.05-.03,.02-.07,.04-.1,.06-.03,.02-.05,.03-.08,.05-.03,.02-.07,.04-.1,.06-.03,.02-.05,.03-.08,.05-.03,.02-.07,.04-.1,.06-.03,.02-.05,.03-.08,.05-.03,.02-.07,.04-.1,.06-.03,.02-.05,.03-.08,.05-.03,.02-.07,.04-.1,.06-.03,.02-.05,.03-.08,.05-.03,.02-.07,.04-.1,.06-.03,.02-.05,.03-.08,.05-.03,.02-.07,.04-.1,.06-.03,.02-.05,.03-.08,.05-.03,.02-.07,.04-.1,.06-.03,.02-.05,.03-.08,.05-.03,.02-.07,.04-.1,.06-.03,.02-.05,.03-.08,.05-.03,.02-.07,.04-.1,.06-.03,.02-.05,.03-.08,.05-.03,.02-.07,.04-.1,.06-.03,.02-.05,.03-.08,.05-.03,.02-.07,.04-.1,.06-.03,.02-.06,.03-.08,.05-.03,.02-.07,.04-.1,.06-.03,.02-.05,.03-.08,.05-.03,.02-.07,.04-.1,.06-.03,.02-.05,.03-.08,.05-.03,.02-.07,.04-.1,.06-.03,.02-.06,.03-.08,.05-.03,.02-.07,.04-.1,.06-.03,.02-.05,.03-.08,.05-.03,.02-.07,.04-.1,.06-.03,.02-.05,.03-.08,.05-.03,.02-.07,.04-.1,.06-.03,.02-.05,.03-.08,.05-.03,.02-.07,.04-.1,.06-.03,.02-.05,.03-.08,.05-.03,.02-.07,.04-.1,.06-.03,.02-.05,.03-.08,.05-.03,.02-.07,.04-.1,.06-.03,.02-.05,.03-.08,.05-.03,.02-.07,.04-.1,.06-.03,.02-.05,.03-.08,.05-.03,.02-.07,.04-.1,.06-.03,.02-.05,.03-.08,.05-.03,.02-.07,.04-.1,.06-.03,.02-.05,.03-.08,.05-.03,.02-.07,.04-.1,.06-.03,.02-.06,.03-.08,.05-.03,.02-.07,.04-.1,.06-.03,.02-.05,.03-.08,.05-.03,.02-.07,.04-.1,.06-.03,.02-.05,.03-.08,.05-.03,.02-.07,.04-.1,.06-.03,.02-.06,.03-.08,.05-.03,.02-.07,.04-.1,.06-.03,.02-.05,.03-.08,.05-.03,.02-.07,.04-.1,.06-.03,.02-.05,.03-.08,.05-.03,.02-.07,.04-.1,.06-.03,.02-.05,.03-.08,.05-.03,.02-.07,.04-.1,.06-.03,.02-.05,.03-.08,.05-.03,.02-.07,.04-.1,.06-.03,.02-.05,.03-.08,.05-.03,.02-.07,.04-.1,.06-.03,.02-.05,.03-.08,.05-.03,.02-.07,.04-.1,.06-.03,.02-.06,.03-.08,.05-.03,.02-.07,.04-.1,.06-.03,.02-.05,.03-.08,.05-.03,.02-.07,.04-.1,.06-.03,.02-.05,.03-.08,.05-.03,.02-.07,.04-.1,.06-.03,.02-.05,.03-.08,.05-.03,.02-.07,.04-.1,.06-.03,.02-.05,.03-.08,.05-.03,.02-.07,.04-.1,.06-.03,.02-.05,.03-.08,.05-.03,.02-.07,.04-.1,.06-.03,.02-.05,.03-.08,.05-.03,.02-.07,.04-.1,.06-.03,.02-.05,.03-.08,.05-.03,.02-.07,.04-.1,.06-.03,.02-.05,.03-.08,.05-.03,.02-.07,.04-.1,.06-.03,.02-.05,.03-.08,.05-.03,.02-.07,.04-.1,.06-.03,.02-.05,.03-.08,.05-.03,.02-.07,.04-.1,.06-.03,.02-.05,.03-.08,.05-.03,.02-.07,.04-.1,.06-.03,.02-.05,.03-.08,.05-.03,.02-.07,.04-.1,.06-.03,.02-.06,.03-.08,.05-.03,.02-.07,.04-.1,.06-.03,.02-.05,.03-.08,.05-.03,.02-.07,.04-.1,.06-.03,.02-.05,.03-.08,.05-.03,.02-.07,.04-.1,.06-.03,.02-.05,.03-.08,.05-.03,.02-.07,.04-.1,.06-.03,.02-.05,.03-.08,.05-.03,.02-.07,.04-.1,.06-.03,.02-.05,.03-.08,.05-.03,.02-.07,.04-.1,.06-.03,.02-.05,.03-.08,.05-.03,.02-.07,.04-.1,.06-.03,.02-.06,.03-.08,.05-.03,.02-.07,.04-.1,.06-.03,.02-.05,.03-.08,.05-.03,.02-.07,.04-.1,.06-.03,.02-.05,.03-.08,.05-.03,.02-.07,.04-.1,.06-.03,.02-.05,.03-.08,.05-.03,.02-.07,.04-.1,.06-.03,.02-.05,.03-.08,.05-.03,.02-.07,.04-.1,.06-.03,.02-.05,.03-.08,.05-.03,.02-.07,.04-.1,.06-.03,.02-.05,.03-.08,.05-.03,.02-.07,.04-.1,.06-.03,.02-.05,.03-.08,.05-.03,.02-.07,.04-.1,.06-.03,.02-.05,.03-.08,.05-.03,.02-.07,.04-.1,.06-.03,.02-.05,.03-.08,.05-.03,.02-.07,.04-.1,.06-.03,.02-.06,.03-.08,.05-.03,.02-.07,.04-.1,.06-.03,.02-.05,.03-.08,.05-.03,.02-.07,.04-.1,.06-.03,.02-.05,.03-.08,.05-.03,.02-.07,.04-.1,.06-.03,.02-.06,.03-.08,.05-.03,.02-.07,.04-.1,.06-.03,.02-.05,.03-.08,.05-.03,.02-.07,.04-.1,.06-.03,.02-.05,.03-.08,.05-.03,.02-.07,.04-.1,.06-.03,.02-.05,.03-.08,.05-.03,.02-.07,.04-.1,.06-.03,.02-.05,.03-.08,.05-.03,.02-.07,.04-.1,.06-.03,.02-.05,.03-.08,.05-.03,.02-.07,.04-.1,.06-.03,.02-.05,.03-.08,.05-.03,.02-.07,.04-.1,.06-.03,.02-.05,.03-.08,.05-.03,.02-.07,.04-.1,.06-.03,.02-.05,.03-.08,.05-.03,.02-.07,.04-.1,.06-.03,.02-.05,.03-.08,.05-.03,.02-.07,.04-.1,.06-.03,.02-.05,.03-.08,.05-.03,.02-.07,.04-.1,.06-.03,.02-.06,.03-.08,.05-.03,.02-.07,.04-.1,.06-.03,.02-.05,.03-.08,.05-.03,.02-.07,.04-.1,.06-.03,.02-.05,.03-.08,.05-.03,.02-.07,.04-.1,.06-.03,.02-.05,.03-.08,.05-.03,.02-.07,.04-.1,.06-.03,.02-.05,.03-.08,.05-.03,.02-.07,.04-.1,.06-.03,.02-.05,.03-.08,.05-.03,.02-.07,.04-.1,.06-.03,.02-.05,.03-.08,.05-.03,.02-.07,.04-.1,.06-.03,.02-.05,.03-.08,.05-.03,.02-.07,.04-.1,.06-.03,.02-.05,.03-.08,.05-.03,.02-.07,.04-.1,.06-.03,.02-.05,.03-.08,.05-.03,.02-.07,.04-.1,.06-.03,.02-.05,.03-.08,.05-.03,.02-.07,.04-.1,.06-.03,.02-.05,.03-.08,.05-.03,.02-.07,.04-.1,.06-.03,.02-.05,.03-.08,.05-.03,.02-.07,.04-.1,.06-.03,.02-.06,.03-.08,.05-.03,.02-.07,.04-.1,.06-.03,.02-.05,.03-.08,.05-.03,.02-.07,.04-.1,.06-.03,.02-.05,.03-.08,.05-.03,.02-.07,.04-.1,.06-.03,.02-.05,.03-.08,.05-.03,.02-.07,.04-.1,.06-.03,.02-.05,.03-.08,.05-.03,.02-.07,.04-.1,.06-.03,.02-.05,.03-.08,.05-.03,.02-.07,.04-.1,.06-.03,.02-.05,.03-.08,.05-.03,.02-.07,.04-.1,.06-.03,.02-.06,.03-.08,.05-.03,.02-.07,.04-.1,.06-.03,.02-.05,.03-.08,.05-.03,.02-.07,.04-.1,.06-.03,.02-.05,.03-.08,.05-.03,.02-.07,.04-.1,.06-.03,.02-.06,.03-.08,.05-.03,.02-.07,.04-.1,.06-.03,.02-.05,.03-.08,.05-.03,.02-.07,.04-.1,.06-.03,.02-.05,.03-.08,.05-.03,.02-.07,.04-.1,.06-.03,.02-.05,.03-.08,.05-.03,.02-.07,.04-.1,.06-.03,.02-.05,.03-.08,.05-.03,.02-.07,.04-.1,.06-.03,.02-.05,.03-.08,.05-.03,.02-.07,.04-.1,.06-.03,.02-.05,.03-.08,.05-.03,.02-.07,.04-.1,.06-.03,.02-.05,.03-.08,.05-.03,.02-.07,.04-.1,.06-.03,.02-.05,.03-.08,.05-.03,.02-.07,.04-.1,.06-.03,.02-.05,.03-.08,.05-.03,.02-.07,.04-.1,.06-.03,.02-.06,.03-.08,.05-.03,.02-.07,.04-.1,.06-.03,.02-.05,.03-.08,.05-.03,.02-.07,.04-.1,.06-.03,.02-.05,.03-.08,.05-.03,.02-.07,.04-.1,.06-.03,.02-.05,.03-.08,.05-.03,.02-.07,.04-.1,.06-.03,.02-.05,.03-.08,.05-.03,.02-.07,.04-.1,.06-.03,.02-.05,.03-.08,.05-.03,.02-.07,.04-.1,.06-.03,.02-.05,.03-.08,.05-.03,.02-.07,.04-.1,.06-.03,.02-.05,.03-.08,.05-.03,.02-.07,.04-.1,.06-.03,.02-.05,.03-.08,.05-.03,.02-.07,.04-.1,.06-.03,.02-.05,.03-.08,.05-.03,.02-.07,.04-.1,.06-.03,.02-.06,.03-.08,.05-.03,.02-.07,.04-.1,.06-.03,.02-.05,.03-.08,.05-.03,.02-.07,.04-.1,.06-.03,.02-.05,.03-.08,.05-.03,.02-.07,.04-.1,.06-.03,.02-.05,.03-.08,.05-.03,.02-.07,.04-.1,.06-.03,.02-.05,.03-.08,.05-.03,.02-.07,.04-.1,.06-.03,.02-.05,.03-.08,.05-.03,.02-.07,.04-.1,.06-.03,.02-.05,.03-.08,.05-.03,.02-.07,.04-.1,.06-.03,.02-.05,.03-.08,.05-.03,.02-.07,.04-.1,.06-.03,.02-.05,.03-.08,.05-.03,.02-.07,.04-.1,.06-.03,.02-.05,.03-.08,.05-.03,.02-.07,.04-.1,.06-.03,.02-.05,.03-.08,.05-.03,.02-.07,.04-.1,.06-.03,.02-.05,.03-.08,.05-.03,.02-.07,.04-.1,.06-.03,.02-.05,.03-.08,.05-.03,.02-.07,.04-.1,.06-.03,.02-.06,.03-.08,.05-.03,.02-.07,.04-.1,.06-.03,.02-.05,.03-.08,.05-.03,.02-.07,.04-.1,.06-.03,.02-.05,.03-.08,.05-.03,.02-.07,.04-.1,.06-.03,.02-.05,.03-.08,.05-.03,.02-.07,.04-.1,.06-.03,.02-.06,.03-.08,.05-.03,.02-.07,.04-.1,.06-.03,.02-.05,.03-.08,.05-.03,.02-.07,.04-.1,.06-.03,.02-.05,.03-.08,.05-.03,.02-.07,.04-.1,.06-.03,.02-.06,.03-.08,.05-.03,.02-.07,.04-.1,.06-.03,.02-.05,.03-.08,.05-.03,.02-.07,.04-.1,.06-.03,.02-.05,.03-.08,.05-.03,.02-.07,.04-.1,.06-.03,.02-.05,.03-.08,.05-.03,.02-.07,.04-.1,.06-.03,.02-.05,.03-.08,.05-.03,.02-.07,.04-.1,.06-.03,.02-.05,.03-.08,.05-.03,.02-.07,.04-.1,.06-.03,.02-.05,.03-.08,.05-.03,.02-.07,.04-.1,.06-.03,.02-.05,.03-.08,.05-.03,.02-.07,.04-.1,.06-.03,.02-.05,.03-.08,.05-.03,.02-.07,.04-.1,.06-.03,.02-.05,.03-.08,.05-.03,.02-.07,.04-.1,.06-.03,.02-.05,.03-.08,.05-.03,.02-.07,.04-.1,.06-.03,.02-.05,.03-.08,.05-.03,.02-.07,.04-.1,.06-.03,.02-.05,.03-.08,.05-.03,.02-.07,.04-.1,.06-.03,.02-.05,.03-.08,.05-.03,.02-.07,.04-.1,.06-.03,.02-.05,.03-.08,.05-.03,.02-.07,.04-.1,.06-.03,.02-.05,.03-.08,.05-.03,.02-.07,.04-.1,.06-.03,.02-.05,.03-.08,.05-.03,.02-.07,.04-.1,.06-.03,.02-.05,.03-.08,.05-.03,.02-.07,.04-.1,.06-.03,.02-.05,.03-.08,.05-.03,.02-.07,.04-.1,.06-.03,.02-.05,.03-.08,.05-.03,.02-.07,.04-.1,.06-.03,.02-.05,.03-.08,.05-.03,.02-.07,.04-.1,.06-.03,.02-.05,.03-.08,.05-.03,.02-.07,.04-.1,.06-.03,.02-.05,.03-.08,.05-.03,.02-.07,.04-.1,.06-.03,.02-.05,.03-.08,.05-.03,.02-.07,.04-.1,.06-.03,.02-.05,.03-.08,.05-.03,.02-.07,.04-.1,.06-.03,.02-.05,.03-.08,.05-.03,.02-.07,.04-.1,.06-.03,.02-.05,.03-.08,.05-.03,.02-.07,.04-.1,.06-.03,.02-.05,.03-.08,.05-.03,.02-.07,.04-.1,.06-.03,.02-.05,.03-.08,.05-.03,.02-.07,.04-.1,.06-.03,.02-.05,.03-.08,.05-.03,.02-.07,.04-.1,.06-.03,.02-.05,.03-.08,.05-.03,.02-.07,.04-.1,.06-.03,.02-.05,.03-.08,.05-.03,.02-.07,.04-.1,.06-.03,.02-.05,.03-.08,.05-.03,.02-.07,.04-.1,.06-.03,.02-.05,.03-.08,.05-.03,.02-.07,.04-.1,.06-.03,.02-.05,.03-.08,.05-.03,.02-.07,.04-.1,.06-.03,.02-.05,.03-.08,.05-.03,.02-.07,.04-.1,.06-.03,.02-.05,.03-.08,.05-.03,.02-.07,.04-.1,.06-.03,.02-.05,.03-.08,.05-.03,.02-.07,.04-.1,.06-.03,.02-.05,.03-.08,.05-.03,.02-.07,.04-.1,.06-.03,.02-.05,.03-.08,.05-.03,.02-.07,.04-.1,.06-.03,.02-.05,.03-.08,.05-.03,.02-.07,.04-.1,.06-.03,.02-.05,.03-.08,.05-.03,.02-.07,.04-.1,.06-.03,.02-.05,.03-.08,.05-.03,.02-.07,.04-.1,.06-.03,.02-.05,.03-.08,.05-.03,.02-.07,.04-.1,.06-.03,.02-.06,.03-.08,.05-.03,.02-.07,.04-.1,.06-.03,.02-.05,.03-.08,.05-.03,.02-.07,.04-.1,.06-.03,.02-.05,.03-.08,.05-.03,.02-.07,.04-.1,.06-.03,.02-.05,.03-.08,.05-.03,.02-.07,.04-.1,.06-.03,.02-.05,.03-.08,.05-.03,.02-.07,.04-.1,.06-.03,.02-.05,.03-.08,.05-.03,.02-.07,.04-.1,.06-.03,.02-.05,.03-.08,.05-.03,.02-.07,.04-.1,.06-.03,.02-.05,.03-.08,.05-.03,.02-.07,.04-.1,.06-.03,.02-.05,.03-.08,.05-.03,.02-.07,.04-.1,.06-.03,.02-.05,.03-.08,.05-.03,.02-.07,.04-.1,.06-.03,.02-.05,.03-.08,.05-.03,.02-.07,.04-.1,.06-.03,.02-.05,.03-.08,.05-.03,.02-.07,.04-.1,.06-.03,.02-.05,.03-.08,.05-.03,.02-.07,.04-.1,.06-.03,.02-.05,.03-.08,.05-.03,.02-.07,.04-.1,.06-.03,.02-.05,.03-.08,.05-.03,.02-.07,.04-.1,.06-.03,.02-.05,.03-.08,.05-.03,.02-.07,.04-.1,.06-.03,.02-.05,.03-.08,.05-.03,.02-.07,.04-.1,.06-.03,.02-.05,.03-.08,.05-.03,.02-.07,.04-.1,.06-.03,.02-.05,.03-.08,.05-.03,.02-.07,.04-.1,.06-.03,.02-.05,.03-.08,.05-.03,.02-.07,.04-.1,.06-.03,.02-.05,.03-.08,.05-.03,.02-.07,.04-.1,.06-.03,.02-.05,.03-.08,.05-.03,.02-.07,.04-.1,.06-.03,.02-.06,.03-.08,.05-.03,.02-.07,.04-.1,.06-.03,.02-.06,.03-.08,.05-.03,.02-.07,.04-.1,.06-.03,.02-.05,.03-.08,.05-.03,.02-.07,.04-.1,.06-.03,.02-.05,.03-.08,.05-.03,.02-.07,.04-.1,.06-.03,.02-.05,.03-.08,.05-.03,.02-.07,.04-.1,.06-.03,.02-.05,.03-.08,.05-.03,.02-.07,.04-.1,.06-.03,.02-.05,.03-.08,.05-.03,.02-.07,.04-.1,.06-.03,.02-.05,.03-.08,.05-.03,.02-.07,.04-.1,.06-.03,.02-.05,.03-.08,.05-.03,.02-.07,.04-.1,.06-.03,.02-.05,.03-.08,.05-.03,.02-.07,.04-.1,.06-.03,.02-.05,.03-.08,.05-.03,.02-.07,.04-.1,.06-.03,.02-.05,.03-.08,.05-.03,.02-.07,.04-.1,.06-.03,.02-.05,.03-.08,.05-.03,.02-.07,.04-.1,.06-.03,.02-.05,.03-.08,.05-.03,.02-.07,.04-.1,.06-.03,.02-.06,.03-.08,.05-.03,.02-.07,.04-.1,.06-.03,.02-.05,.03-.08,.05-.03,.02-.07,.04-.1,.06-.03,.02-.05,.03-.08,.05-.03,.02-.07,.04-.1,.06-.03,.02-.05,.03-.08,.05-.03,.02-.07,.04-.1,.06-.03,.02-.06,.03-.08,.05-.03,.02-.07,.04-.1,.06-.03,.02-.05,.03-.08,.05-.03,.02-.07,.04-.1,.06-.03,.02-.05,.03-.08,.05-.03,.02-.07,.04-.1,.06-.03,.02-.06,.03-.08,.05-.03,.02-.07,.04-.1,.06-.03,.02-.05,.03-.08,.05-.03,.02-.07,.04-.1,.06-.03,.02-.05,.03-.08,.05-.03,.02-.07,.04-.1,.06-.03,.02-.05,.03-.08,.05-.03,.02-.07,.04-.1,.06-.03,.02-.05,.03-.08,.05-.03,.02-.07,.04-.1,.06-.03,.02-.05,.03-.08,.05-.03,.02-.07,.04-.1,.06-.03,.02-.05,.03-.08,.05-.03,.02-.07,.04-.1,.06-.03,.02-.05,.03-.08,.05-.03,.02-.07,.04-.1,.06-.03,.02-.05,.03-.08,.05-.03,.02-.07,.04-.1,.06-.03,.02-.05,.03-.08,.05-.03,.02-.07,.04-.1,.06-.03,.02-.06,.03-.08,.05-.03,.02-.07,.04-.1,.06-.03,.02-.05,.03-.08,.05-.03,.02-.07,.04-.1,.06-.03,.02-.05,.03-.08,.05-.03,.02-.07,.04-.1,.06-.03,.02-.06,.03-.08,.05-.03,.02-.07,.04-.1,.06-.03,.02-.05,.03-.08,.05-.03,.02-.07,.04-.1,.06-.03,.02-.05,.03-.08,.05-.03,.02-.07,.04-.1,.06-.03,.02-.05,.03-.08,.05-.03,.02-.07,.04-.1,.06-.03,.02-.05,.03-.08,.05-.03,.02-.07,.04-.1,.06-.03,.02-.05,.03-.08,.05-.03,.02-.07,.04-.1,.06-.03,.02-.05,.03-.08,.05-.03,.02-.07,.04-.1,.06-.03,.02-.06,.03-.08,.05-.03,.02-.07,.04-.1,.06-.03,.02-.05,.03-.08,.05-.03,.02-.07,.04-.1,.06-.03,.02-.05,.03-.08,.05-.03,.02-.07,.04-.1,.06-.03,.02-.06,.03-.08,.05-.03,.02-.07,.04-.1,.06-.03,.02-.05,.03-.08,.05-.03,.02-.07,.04-.1,.06-.03,.02-.05,.03-.08,.05-.03,.02-.07,.04-.1,.06-.03,.02-.06,.03-.08,.05-.03,.02-.07,.04-.1,.06-.03,.02-.05,.03-.08,.05-.03,.02-.07,.04-.1,.06-.03,.02-.05,.03-.08,.05-.03,.02-.07,.04-.1,.06-.03,.02-.05,.03-.08,.05-.03,.02-.07,.04-.1,.06-.03,.02-.06,.03-.08,.05-.03,.02-.07,.04-.1,.06-.03,.02-.05,.03-.08,.05-.03,.02-.07,.04-.1,.06-.03,.02-.05,.03-.08,.05-.03,.02-.07,.04-.1,.06C15.2,55.4,0,90.26,0,135.72v252.82l252.15,145.58v-.21l.18,.11v-.21l.18,.11v-.21l.18,.11v-.21l.18,.11v-.21l.18,.11v-.21l.18,.11v-.21l.18,.11v-.21l.18,.11v-.21l.18,.11v-.21l.18,.11v-.21l.18,.11v-.21l.18,.11v-.21l.18,.11v-.21l.18,.11v-.21l.18,.11v-.21l.18,.11v-.21l.18,.11v-.21l.18,.11v-.21l.18,.11v-.21l.18,.11v-.21l.18,.11v-.21l.18,.11v-.21l.18,.11v-.21l.18,.11v-.21l.18,.11v-.21l.18,.11v-.21l.18,.11v-.21l.18,.11v-.21l.18,.11v-.21l.18,.11v-.21l.18,.11v-.21l.18,.11v-.21l.18,.11v-.21l.18,.11v-.21l.18,.11v-.21l.18,.11v-.21l.18,.11v-.21l.18,.11v-.21l.18,.11v-.21l.18,.11v-.21l.18,.11v-.21l.18,.11v-.21l.18,.11v-.21l.18,.11v-.21l.18,.11v-.21l.18,.11v-.21l.18,.11v-.21l.18,.11v-.21l.18,.11v-.21l.18,.11v-.21l.18,.11v-.21l.18,.11v-.21l.18,.11v-.21l.18,.11v-.21l.18,.11v-.21l.18,.11v-.21l.18,.11v-.21l.18,.11v-.21l.18,.11v-.21l.18,.11v-.21l.18,.11v-.21l.18,.11v-.21l.18,.11v-.21l.18,.11v-.21l.18,.11v-.21l.18,.11v-.21l.18,.11v-.21l.18,.11v-.21l.18,.11v-.21l.18,.11v-.21l.18,.11v-.21l.18,.11v-.21l.18,.11v-.21l.18,.11v-.21l.18,.11v-.21l.18,.11v-.21l.18,.11v-.21l.18,.11v-.21l.18,.11v-.21l.18,.11v-.21l.18,.11v-.21l.18,.11v-.21l.18,.11v-.21l.18,.11v-.21l.18,.11v-.21l.18,.11v-.21l.18,.11v-.21l.18,.11v-.21l.18,.11v-.21l.18,.11v-.21l.18,.11v-.21l.18,.11v-.21l.18,.11v-.21l.18,.11v-.21l.18,.11v-.21l.18,.11v-.21l.18,.11v-.21l.18,.11v-.21l.18,.11v-.21l.18,.11v-.21l.18,.11v-.21l.18,.11v-.21l.18,.11v-.21l.18,.11v-.21l.18,.11v-.21l.18,.11v-.21l.18,.11v-.21l.18,.11v-.21l.18,.11v-.21l.18,.11v-.21l.18,.11v-.21l.18,.11v-.21l.18,.11v-.21l.18,.11v-.21l.18,.11v-.21l.18,.11v-.21l.18,.11v-.21l.18,.11v-.21l.18,.11v-.21l.18,.11v-.21l.18,.11v-.21l.18,.11v-.21l.18,.11v-.21l.18,.11v-.21l.18,.11v-.21l.18,.11v-.21l.18,.11v-.21l.18,.11v-.21l.18,.11v-.21l.18,.11v-.21l.18,.11v-.21l.18,.11v-.21l.18,.11v-.21l.18,.11v-.21l.18,.11v-.21l.18,.11v-.21l.18,.11v-.21l.18,.11v-.21l.18,.11v-.21l.18,.11v-.21l.18,.11v-.21l.18,.11v-.21l.18,.11v-.21l.18,.11v-.21l.18,.11v-.21l.18,.11v-.21l.18,.11v-.21l.18,.11v-.21l.18,.11v-.21l.18,.11v-.21l.18,.11v-.21l.18,.11v-.21l.18,.11v-.21l.18,.11v-.21l.18,.11v-.21l.18,.11v-.21l.18,.11v-.21l.18,.11v-.21l.18,.11v-.21l.18,.11v-.21l.18,.11v-.21l.18,.11v-.21l.18,.11v-.21l.18,.11v-.21l.18,.11v-.21l.18,.11v-.21l.18,.11v-.21l.18,.11v-.21l.18,.11v-.21l.18,.11v-.21l.18,.11v-.21l.18,.11v-.21l.18,.11v-.21l.18,.11v-.21l.18,.11v-.21l.18,.11v-.21l.18,.11v-.21l.18,.11v-.21l.18,.11v-.21l.18,.11v-.21l.18,.11v-.21l.18,.11v-.21l.18,.11v-.21l.18,.11v-.21l.18,.11v-.21l.18,.11v-.21l.18,.11v-.21l.18,.11v-.21l.18,.11v-.21l.18,.11v-.21l.18,.11v-.21l.18,.11v-.21l.18,.11v-.21l.18,.11v-.21l.18,.11v-.21l.18,.11v-.21l.18,.11v-.21l.18,.11v-.21l.18,.11v-.21l.18,.11v-.21l.18,.11v-.21l.18,.11v-.21l.18,.11v-.21l.18,.11v-.21l.18,.11v-.21l.18,.11v-.21l.18,.11v-.21l.18,.11v-.21l.18,.11v-.21l.18,.11v-.21l.18,.11v-.21l.18,.11v-.21l.18,.11v-.21l.18,.11v-.21l.18,.11v-.21l.18,.11v-.21l.18,.11v-.21l.18,.11v-.21l.18,.11v-.21l.18,.11v-.21l.18,.11v-.21l.18,.11v-.21l.18,.11v-.21l.18,.11v-.21l.18,.11v-.21l.18,.11v-.21l.18,.11v-.21l.18,.11v-.21l.18,.11v-.21l.18,.11v-.21l.18,.11v-.21l.18,.11v-.21l.18,.11v-.21l.18,.11v-.21l.18,.11v-.21l.18,.11v-.21l.18,.11v-.21l.18,.11v-.21l.18,.11v-.21l.18,.11v-.21l.18,.11v-.21l.18,.11v-.21l.18,.11v-.21l.18,.11v-.21l.18,.11v-.21l.18,.11v-.21l.18,.11v-.21l.18,.11v-.21l.18,.11v-.21l.18,.11v-.21l.18,.11v-.21l.18,.11v-.21l.18,.11v-.21l.18,.11v-.21l.18,.11v-.21l.18,.11v-.21l.18,.11v-.21l.18,.11v-.21l.18,.11v-.21l.18,.11v-.21l.18,.11v-.21l.18,.11v-.21l.18,.11v-.21l.18,.11v-.21l.18,.11v-.21l.18,.11v-.21l.18,.11v-.21l.18,.11v-.21l.18,.11v-.21l.18,.11v-.21l.18,.11v-.21l.18,.11v-.21l.18,.11v-.21l.18,.11v-.21l.18,.11v-.21l.18,.11v-.21l.18,.11v-.21l.18,.11v-.21l.18,.11v-.21l.18,.11v-.21l.18,.11v-.21l.18,.11v-.21l.18,.11v-.21l.18,.11v-.21l.18,.11v-.21l.18,.11v-.21l.18,.11v-.21l.18,.11v-.21l.18,.11v-.21l.18,.11v-.21l.18,.11v-.21l.18,.11v-.21l.18,.11v-.21l.18,.11v-.21l.18,.11v-.21l.18,.11v-.21l.18,.11v-.21l.18,.11v-.21l.18,.11v-.21l.18,.11v-.21l.18,.11V242.03Z" fill="#c30d23"/>
      <g>
        <g clip-path="url(#clippath)">
          <g>
            <path d="M79.35,429.46c-35.25-90.85-14.33-168.91,46.72-174.37C55.58,214.39-1.57,247.39-1.57,328.79c0,81.4,57.15,180.39,127.65,221.09,23.25,13.43,45.05,18.83,63.83,17.13-44.08-25.49-86.93-76.66-110.55-137.54Z" fill="#898989"/>
            <path d="M172.8,483.41c-61.05-75.95-81.97-178.17-46.72-228.32-61.05,5.45-81.97,83.52-46.72,174.37,35.25,90.85,113.32,160.08,174.37,154.62,20.14-1.8,35.91-11.5,46.74-26.95-38.19,3.36-86.75-22.82-127.66-73.72Z" fill="#9fa0a0"/>
            <path d="M253.72,476.19c-70.5-40.7-127.65-139.69-127.65-221.09-35.25,50.15-14.33,152.37,46.72,228.32,61.05,75.95,139.12,96.87,174.37,46.72,11.63-16.54,17.14-38.75,17.12-63.81-22.07,31.31-63.32,37.13-110.57,9.86Z" fill="#898989"/>
            <path d="M300.45,409.72c-61.05,5.45-139.12-63.78-174.37-154.62,0,81.4,57.15,180.39,127.65,221.09,70.5,40.7,127.65,7.71,127.65-73.69,0-26.85-6.22-55.61-17.08-83.57-.04,50.87-22.93,87.14-63.84,90.79Z" fill="#9fa0a0"/>
            <path d="M300.45,301.82c-35.25,50.15-113.32,29.23-174.37-46.72,35.25,90.85,113.32,160.08,174.37,154.62,61.05-5.45,81.97-83.52,46.72-174.37-11.63-29.97-27.91-57.58-46.71-80.93,22,56.8,23.61,113.79-.01,147.4Z" fill="#898989"/>
            <path d="M253.72,181.4c0,81.4-57.15,114.4-127.65,73.69,61.05,75.95,139.12,96.87,174.37,46.72,35.25-50.15,14.33-152.37-46.72-228.32-20.14-25.05-42.13-44.11-63.82-56.61,38.15,47.51,63.82,109.96,63.82,164.51Z" fill="#9fa0a0"/>
            <path d="M172.8,80.73c35.25,90.85,14.33,168.91-46.72,174.37,70.5,40.7,127.65,7.71,127.65-73.69,0-81.4-57.15-180.39-127.65-221.09-23.25-13.43-45.05-18.83-63.83-17.13C106.32-31.32,149.17,19.85,172.8,80.73Z" fill="#898989"/>
            <path d="M79.35,26.78c61.05,75.95,81.97,178.17,46.72,228.32,61.05-5.45,81.97-83.52,46.72-174.37C137.55-10.12,59.48-79.34-1.57-73.89c-20.14,1.8-35.91,11.5-46.74,26.95C-10.12-50.3,38.44-24.12,79.35,26.78Z" fill="#9fa0a0"/>
            <path d="M-1.57,34.01c70.5,40.7,127.65,139.69,127.65,221.09,35.25-50.15,14.33-152.37-46.72-228.32C18.3-49.17-59.77-70.09-95.02-19.95c-11.63,16.54-17.14,38.75-17.12,63.81C-90.07,12.55-48.82,6.73-1.57,34.01Z" fill="#898989"/>
            <path d="M-48.3,100.47c61.05-5.45,139.12,63.78,174.37,154.62,0-81.4-57.15-180.39-127.65-221.09-70.5-40.7-127.65-7.71-127.65,73.69,0,26.85,6.22,55.61,17.08,83.57,.04-50.87,22.93-87.14,63.84-90.79Z" fill="#9fa0a0"/>
            <path d="M-48.3,208.37c35.25-50.15,113.32-29.23,174.37,46.72C90.83,164.25,12.76,95.02-48.3,100.47c-61.05,5.45-81.97,83.52-46.72,174.37,11.63,29.97,27.91,57.58,46.71,80.93-22-56.8-23.61-113.79,.01-147.4Z" fill="#898989"/>
            <path d="M-1.57,328.79c0-81.4,57.15-114.4,127.65-73.69C65.02,179.15-13.05,158.23-48.3,208.37c-35.25,50.15-14.33,152.37,46.72,228.32,20.14,25.05,42.13,44.11,63.82,56.61C24.09,445.79-1.57,383.34-1.57,328.79Z" fill="#9fa0a0"/>
          </g>
        </g>
        <path d="M252.15,534.11L0,388.53V135.71C0,90.25,15.2,55.4,41.71,40.09c22.29-12.87,50.46-10.79,79.31,5.87l16.6,9.58c30.78,17.77,59.61,50.26,81.19,91.5,21.49,41.07,33.33,86.08,33.33,126.74v260.32ZM13,381.02l226.15,130.57v-237.81c0-79.74-48.46-172.59-108.02-206.98l-16.6-9.58c-24.66-14.24-48.21-16.32-66.31-5.87-22.38,12.92-35.21,43.67-35.21,84.36v245.31Z" fill="#c30d23"/>
      </g>
    </g>
  </g>
</svg>