<?xml version="1.0" encoding="UTF-8"?>
<svg id="_レイヤー_2" data-name="レイヤー 2" xmlns="http://www.w3.org/2000/svg" xmlns:xlink="http://www.w3.org/1999/xlink" viewBox="0 0 307.16 534.11">
  <defs>
    <clipPath id="clippath">
      <path d="M245.65,522.85L6.5,384.78V135.71c0-81.94,49.82-119.6,111.27-84.12l16.6,9.58c61.46,35.48,111.27,130.67,111.27,212.61v249.06Z" fill="none"/>
    </clipPath>
  </defs>
  <g id="_レイヤー_1-2" data-name="レイヤー 1">
    <g>
      <path d="M307.16,242.03c0-40.66-11.84-85.67-33.33-126.74-21.58-41.23-50.42-73.73-81.19-91.5l-16.6-9.58C147.19-2.45,119.02-4.53,96.73,8.34c-.03,.02-.05,.03-.08,.05-.03,.02-.07,.04-.1,.06-.03,.02-.05,.03-.08,.05-.03,.02-.07,.04-.1,.06-.03,.02-.05,.03-.08,.05-.03,.02-.07,.04-.1,.06-.03,.02-.05,.03-.08,.05-.03,.02-.07,.04-.1,.06-.03,.02-.05,.03-.08,.05-.03,.02-.07,.04-.1,.06-.03,.02-.05,.03-.08,.05-.03,.02-.07,.04-.1,.06-.03,.02-.05,.03-.08,.05-.03,.02-.07,.04-.1,.06-.03,.02-.05,.03-.08,.05-.03,.02-.07,.04-.1,.06-.03,.02-.05,.03-.08,.05-.03,.02-.07,.04-.1,.06-.03,.02-.05,.03-.08,.05-.03,.02-.07,.04-.1,.06-.03,.02-.05,.03-.08,.05-.03,.02-.07,.04-.1,.06-.03,.02-.06,.03-.08,.05-.03,.02-.07,.04-.1,.06-.03,.02-.05,.03-.08,.05-.03,.02-.07,.04-.1,.06-.03,.02-.05,.03-.08,.05-.03,.02-.07,.04-.1,.06-.03,.02-.05,.03-.08,.05-.03,.02-.07,.04-.1,.06-.03,.02-.05,.03-.08,.05-.03,.02-.07,.04-.1,.06-.03,.02-.05,.03-.08,.05-.03,.02-.07,.04-.1,.06-.03,.02-.05,.03-.08,.05-.03,.02-.07,.04-.1,.06-.03,.02-.05,.03-.08,.05-.03,.02-.07,.04-.1,.06-.03,.02-.05,.03-.08,.05-.03,.02-.07,.04-.1,.06-.03,.02-.05,.03-.08,.05-.03,.02-.07,.04-.1,.06-.03,.02-.05,.03-.08,.05-.03,.02-.07,.04-.1,.06-.03,.02-.05,.03-.08,.05-.03,.02-.07,.04-.1,.06-.03,.02-.05,.03-.08,.05-.03,.02-.07,.04-.1,.06-.03,.02-.05,.03-.08,.05-.03,.02-.07,.04-.1,.06-.03,.02-.05,.03-.08,.05-.03,.02-.07,.04-.1,.06-.03,.02-.05,.03-.08,.05-.03,.02-.07,.04-.1,.06-.03,.02-.05,.03-.08,.05-.03,.02-.07,.04-.1,.06-.03,.02-.05,.03-.08,.05-.03,.02-.07,.04-.1,.06-.03,.02-.05,.03-.08,.05-.03,.02-.07,.04-.1,.06-.03,.02-.05,.03-.08,.05-.03,.02-.07,.04-.1,.06-.03,.02-.05,.03-.08,.05-.03,.02-.07,.04-.1,.06-.03,.02-.05,.03-.08,.05-.03,.02-.07,.04-.1,.06-.03,.02-.05,.03-.08,.05-.03,.02-.07,.04-.1,.06-.03,.02-.06,.03-.08,.05-.03,.02-.07,.04-.1,.06-.03,.02-.05,.03-.08,.05-.03,.02-.07,.04-.1,.06-.03,.02-.05,.03-.08,.05-.03,.02-.07,.04-.1,.06-.03,.02-.05,.03-.08,.05-.03,.02-.07,.04-.1,.06-.03,.02-.05,.03-.08,.05-.03,.02-.07,.04-.1,.06-.03,.02-.05,.03-.08,.05-.03,.02-.07,.04-.1,.06-.03,.02-.05,.03-.08,.05-.03,.02-.07,.04-.1,.06-.03,.02-.05,.03-.08,.05-.03,.02-.07,.04-.1,.06-.03,.02-.05,.03-.08,.05-.03,.02-.07,.04-.1,.06-.03,.02-.05,.03-.08,.05-.03,.02-.07,.04-.1,.06-.03,.02-.05,.03-.08,.05-.03,.02-.07,.04-.1,.06-.03,.02-.05,.03-.08,.05-.03,.02-.07,.04-.1,.06-.03,.02-.05,.03-.08,.05-.03,.02-.07,.04-.1,.06-.03,.02-.05,.03-.08,.05-.03,.02-.07,.04-.1,.06-.03,.02-.05,.03-.08,.05-.03,.02-.07,.04-.1,.06-.03,.02-.05,.03-.08,.05-.03,.02-.07,.04-.1,.06-.03,.02-.05,.03-.08,.05-.03,.02-.07,.04-.1,.06-.03,.02-.06,.03-.08,.05-.03,.02-.07,.04-.1,.06-.03,.02-.05,.03-.08,.05-.03,.02-.07,.04-.1,.06-.03,.02-.05,.03-.08,.05-.03,.02-.07,.04-.1,.06-.03,.02-.06,.03-.08,.05-.03,.02-.07,.04-.1,.06-.03,.02-.05,.03-.08,.05-.03,.02-.07,.04-.1,.06-.03,.02-.05,.03-.08,.05-.03,.02-.07,.04-.1,.06-.03,.02-.05,.03-.08,.05-.03,.02-.07,.04-.1,.06-.03,.02-.05,.03-.08,.05-.03,.02-.07,.04-.1,.06-.03,.02-.05,.03-.08,.05-.03,.02-.07,.04-.1,.06-.03,.02-.05,.03-.08,.05-.03,.02-.07,.04-.1,.06-.03,.02-.05,.03-.08,.05-.03,.02-.07,.04-.1,.06-.03,.02-.05,.03-.08,.05-.03,.02-.07,.04-.1,.06-.03,.02-.05,.03-.08,.05-.03,.02-.07,.04-.1,.06-.03,.02-.06,.03-.08,.05-.03,.02-.07,.04-.1,.06-.03,.02-.05,.03-.08,.05-.03,.02-.07,.04-.1,.06-.03,.02-.05,.03-.08,.05-.03,.02-.07,.04-.1,.06-.03,.02-.06,.03-.08,.05-.03,.02-.07,.04-.1,.06-.03,.02-.05,.03-.08,.05-.03,.02-.07,.04-.1,.06-.03,.02-.05,.03-.08,.05-.03,.02-.07,.04-.1,.06-.03,.02-.05,.03-.08,.05-.03,.02-.07,.04-.1,.06-.03,.02-.05,.03-.08,.05-.03,.02-.07,.04-.1,.06-.03,.02-.05,.03-.08,.05-.03,.02-.07,.04-.1,.06-.03,.02-.05,.03-.08,.05-.03,.02-.07,.04-.1,.06-.03,.02-.06,.03-.08,.05-.03,.02-.07,.04-.1,.06-.03,.02-.05,.03-.08,.05-.03,.02-.07,.04-.1,.06-.03,.02-.05,.03-.08,.05-.03,.02-.07,.04-.1,.06-.03,.02-.05,.03-.08,.05-.03,.02-.07,.04-.1,.06-.03,.02-.05,.03-.08,.05-.03,.02-.07,.04-.1,.06-.03,.02-.05,.03-.08,.05-.03,.02-.07,.04-.1,.06-.03,.02-.05,.03-.08,.05-.03,.02-.07,.04-.1,.06-.03,.02-.05,.03-.08,.05-.03,.02-.07,.04-.1,.06-.03,.02-.05,.03-.08,.05-.03,.02-.07,.04-.1,.06-.03,.02-.05,.03-.08,.05-.03,.02-.07,.04-.1,.06-.03,.02-.05,.03-.08,.05-.03,.02-.07,.04-.1,.06-.03,.02-.05,.03-.08,.05-.03,.02-.07,.04-.1,.06-.03,.02-.05,.03-.08,.05-.03,.02-.07,.04-.1,.06-.03,.02-.06,.03-.08,.05-.03,.02-.07,.04-.1,.06-.03,.02-.05,.03-.08,.05-.03,.02-.07,.04-.1,.06-.03,.02-.05,.03-.08,.05-.03,.02-.07,.04-.1,.06-.03,.02-.05,.03-.08,.05-.03,.02-.07,.04-.1,.06-.03,.02-.05,.03-.08,.05-.03,.02-.07,.04-.1,.06-.03,.02-.05,.03-.08,.05-.03,.02-.07,.04-.1,.06-.03,.02-.05,.03-.08,.05-.03,.02-.07,.04-.1,.06-.03,.02-.06,.03-.08,.05-.03,.02-.07,.04-.1,.06-.03,.02-.05,.03-.08,.05-.03,.02-.07,.04-.1,.06-.03,.02-.05,.03-.08,.05-.03,.02-.07,.04-.1,.06-.03,.02-.05,.03-.08,.05-.03,.02-.07,.04-.1,.06-.03,.02-.05,.03-.08,.05-.03,.02-.07,.04-.1,.06-.03,.02-.05,.03-.08,.05-.03,.02-.07,.04-.1,.06-.03,.02-.05,.03-.08,.05-.03,.02-.07,.04-.1,.06-.03,.02-.05,.03-.08,.05-.03,.02-.07,.04-.1,.06-.03,.02-.05,.03-.08,.05-.03,.02-.07,.04-.1,.06-.03,.02-.05,.03-.08,.05-.03,.02-.07,.04-.1,.06-.03,.02-.06,.03-.08,.05-.03,.02-.07,.04-.1,.06-.03,.02-.05,.03-.08,.05-.03,.02-.07,.04-.1,.06-.03,.02-.05,.03-.08,.05-.03,.02-.07,.04-.1,.06-.03,.02-.06,.03-.08,.05-.03,.02-.07,.04-.1,.06-.03,.02-.05,.03-.08,.05-.03,.02-.07,.04-.1,.06-.03,.02-.05,.03-.08,.05-.03,.02-.07,.04-.1,.06-.03,.02-.05,.03-.08,.05-.03,.02-.07,.04-.1,.06-.03,.02-.05,.03-.08,.05-.03,.02-.07,.04-.1,.06-.03,.02-.05,.03-.08,.05-.03,.02-.07,.04-.1,.06-.03,.02-.05,.03-.08,.05-.03,.02-.07,.04-.1,.06-.03,.02-.05,.03-.08,.05-.03,.02-.07,.04-.1,.06-.03,.02-.05,.03-.08,.05-.03,.02-.07,.04-.1,.06-.03,.02-.05,.03-.08,.05-.03,.02-.07,.04-.1,.06-.03,.02-.05,.03-.08,.05-.03,.02-.07,.04-.1,.06-.03,.02-.06,.03-.08,.05-.03,.02-.07,.04-.1,.06-.03,.02-.05,.03-.08,.05-.03,.02-.07,.04-.1,.06-.03,.02-.05,.03-.08,.05-.03,.02-.07,.04-.1,.06-.03,.02-.05,.03-.08,.05-.03,.02-.07,.04-.1,.06-.03,.02-.05,.03-.08,.05-.03,.02-.07,.04-.1,.06-.03,.02-.05,.03-.08,.05-.03,.02-.07,.04-.1,.06-.03,.02-.05,.03-.08,.05-.03,.02-.07,.04-.1,.06-.03,.02-.05,.03-.08,.05-.03,.02-.07,.04-.1,.06-.03,.02-.05,.03-.08,.05-.03,.02-.07,.04-.1,.06-.03,.02-.05,.03-.08,.05-.03,.02-.07,.04-.1,.06-.03,.02-.05,.03-.08,.05-.03,.02-.07,.04-.1,.06-.03,.02-.05,.03-.08,.05-.03,.02-.07,.04-.1,.06-.03,.02-.05,.03-.08,.05-.03,.02-.07,.04-.1,.06-.03,.02-.06,.03-.08,.05-.03,.02-.07,.04-.1,.06-.03,.02-.05,.03-.08,.05-.03,.02-.07,.04-.1,.06-.03,.02-.05,.03-.08,.05-.03,.02-.07,.04-.1,.06-.03,.02-.05,.03-.08,.05-.03,.02-.07,.04-.1,.06-.03,.02-.05,.03-.08,.05-.03,.02-.07,.04-.1,.06-.03,.02-.05,.03-.08,.05-.03,.02-.07,.04-.1,.06-.03,.02-.05,.03-.08,.05-.03,.02-.07,.04-.1,.06-.03,.02-.06,.03-.08,.05-.03,.02-.07,.04-.1,.06-.03,.02-.05,.03-.08,.05-.03,.02-.07,.04-.1,.06-.03,.02-.05,.03-.08,.05-.03,.02-.07,.04-.1,.06-.03,.02-.06,.03-.08,.05-.03,.02-.07,.04-.1,.06-.03,.02-.05,.03-.08,.05-.03,.02-.07,.04-.1,.06-.03,.02-.05,.03-.08,.05-.03,.02-.07,.04-.1,.06-.03,.02-.05,.03-.08,.05-.03,.02-.07,.04-.1,.06-.03,.02-.05,.03-.08,.05-.03,.02-.07,.04-.1,.06-.03,.02-.05,.03-.08,.05-.03,.02-.07,.04-.1,.06-.03,.02-.05,.03-.08,.05-.03,.02-.07,.04-.1,.06-.03,.02-.05,.03-.08,.05-.03,.02-.07,.04-.1,.06-.03,.02-.05,.03-.08,.05-.03,.02-.07,.04-.1,.06-.03,.02-.05,.03-.08,.05-.03,.02-.07,.04-.1,.06-.03,.02-.06,.03-.08,.05-.03,.02-.07,.04-.1,.06-.03,.02-.05,.03-.08,.05-.03,.02-.07,.04-.1,.06-.03,.02-.05,.03-.08,.05-.03,.02-.07,.04-.1,.06-.03,.02-.05,.03-.08,.05-.03,.02-.07,.04-.1,.06-.03,.02-.05,.03-.08,.05-.03,.02-.07,.04-.1,.06-.03,.02-.05,.03-.08,.05-.03,.02-.07,.04-.1,.06-.03,.02-.05,.03-.08,.05-.03,.02-.07,.04-.1,.06-.03,.02-.05,.03-.08,.05-.03,.02-.07,.04-.1,.06-.03,.02-.05,.03-.08,.05-.03,.02-.07,.04-.1,.06-.03,.02-.05,.03-.08,.05-.03,.02-.07,.04-.1,.06-.03,.02-.06,.03-.08,.05-.03,.02-.07,.04-.1,.06-.03,.02-.05,.03-.08,.05-.03,.02-.07,.04-.1,.06-.03,.02-.05,.03-.08,.05-.03,.02-.07,.04-.1,.06-.03,.02-.05,.03-.08,.05-.03,.02-.07,.04-.1,.06-.03,.02-.05,.03-.08,.05-.03,.02-.07,.04-.1,.06-.03,.02-.05,.03-.08,.05-.03,.02-.07,.04-.1,.06-.03,.02-.05,.03-.08,.05-.03,.02-.07,.04-.1,.06-.03,.02-.05,.03-.08,.05-.03,.02-.07,.04-.1,.06-.03,.02-.05,.03-.08,.05-.03,.02-.07,.04-.1,.06-.03,.02-.05,.03-.08,.05-.03,.02-.07,.04-.1,.06-.03,.02-.05,.03-.08,.05-.03,.02-.07,.04-.1,.06-.03,.02-.05,.03-.08,.05-.03,.02-.07,.04-.1,.06-.03,.02-.05,.03-.08,.05-.03,.02-.07,.04-.1,.06-.03,.02-.06,.03-.08,.05-.03,.02-.07,.04-.1,.06-.03,.02-.05,.03-.08,.05-.03,.02-.07,.04-.1,.06-.03,.02-.05,.03-.08,.05-.03,.02-.07,.04-.1,.06-.03,.02-.05,.03-.08,.05-.03,.02-.07,.04-.1,.06-.03,.02-.06,.03-.08,.05-.03,.02-.07,.04-.1,.06-.03,.02-.05,.03-.08,.05-.03,.02-.07,.04-.1,.06-.03,.02-.05,.03-.08,.05-.03,.02-.07,.04-.1,.06-.03,.02-.06,.03-.08,.05-.03,.02-.07,.04-.1,.06-.03,.02-.05,.03-.08,.05-.03,.02-.07,.04-.1,.06-.03,.02-.05,.03-.08,.05-.03,.02-.07,.04-.1,.06-.03,.02-.05,.03-.08,.05-.03,.02-.07,.04-.1,.06-.03,.02-.05,.03-.08,.05-.03,.02-.07,.04-.1,.06-.03,.02-.05,.03-.08,.05-.03,.02-.07,.04-.1,.06-.03,.02-.05,.03-.08,.05-.03,.02-.07,.04-.1,.06-.03,.02-.05,.03-.08,.05-.03,.02-.07,.04-.1,.06-.03,.02-.05,.03-.08,.05-.03,.02-.07,.04-.1,.06-.03,.02-.05,.03-.08,.05-.03,.02-.07,.04-.1,.06-.03,.02-.05,.03-.08,.05-.03,.02-.07,.04-.1,.06-.03,.02-.05,.03-.08,.05-.03,.02-.07,.04-.1,.06-.03,.02-.05,.03-.08,.05-.03,.02-.07,.04-.1,.06-.03,.02-.05,.03-.08,.05-.03,.02-.07,.04-.1,.06-.03,.02-.05,.03-.08,.05-.03,.02-.07,.04-.1,.06-.03,.02-.05,.03-.08,.05-.03,.02-.07,.04-.1,.06-.03,.02-.05,.03-.08,.05-.03,.02-.07,.04-.1,.06-.03,.02-.05,.03-.08,.05-.03,.02-.07,.04-.1,.06-.03,.02-.05,.03-.08,.05-.03,.02-.07,.04-.1,.06-.03,.02-.05,.03-.08,.05-.03,.02-.07,.04-.1,.06-.03,.02-.05,.03-.08,.05-.03,.02-.07,.04-.1,.06-.03,.02-.05,.03-.08,.05-.03,.02-.07,.04-.1,.06-.03,.02-.05,.03-.08,.05-.03,.02-.07,.04-.1,.06-.03,.02-.05,.03-.08,.05-.03,.02-.07,.04-.1,.06-.03,.02-.05,.03-.08,.05-.03,.02-.07,.04-.1,.06-.03,.02-.05,.03-.08,.05-.03,.02-.07,.04-.1,.06-.03,.02-.05,.03-.08,.05-.03,.02-.07,.04-.1,.06-.03,.02-.05,.03-.08,.05-.03,.02-.07,.04-.1,.06-.03,.02-.05,.03-.08,.05-.03,.02-.07,.04-.1,.06-.03,.02-.05,.03-.08,.05-.03,.02-.07,.04-.1,.06-.03,.02-.05,.03-.08,.05-.03,.02-.07,.04-.1,.06-.03,.02-.05,.03-.08,.05-.03,.02-.07,.04-.1,.06-.03,.02-.05,.03-.08,.05-.03,.02-.07,.04-.1,.06-.03,.02-.05,.03-.08,.05-.03,.02-.07,.04-.1,.06-.03,.02-.05,.03-.08,.05-.03,.02-.07,.04-.1,.06-.03,.02-.05,.03-.08,.05-.03,.02-.07,.04-.1,.06-.03,.02-.05,.03-.08,.05-.03,.02-.07,.04-.1,.06-.03,.02-.05,.03-.08,.05-.03,.02-.07,.04-.1,.06-.03,.02-.05,.03-.08,.05-.03,.02-.07,.04-.1,.06-.03,.02-.05,.03-.08,.05-.03,.02-.07,.04-.1,.06-.03,.02-.05,.03-.08,.05-.03,.02-.07,.04-.1,.06-.03,.02-.05,.03-.08,.05-.03,.02-.07,.04-.1,.06-.03,.02-.05,.03-.08,.05-.03,.02-.07,.04-.1,.06-.03,.02-.05,.03-.08,.05-.03,.02-.07,.04-.1,.06-.03,.02-.06,.03-.08,.05-.03,.02-.07,.04-.1,.06-.03,.02-.05,.03-.08,.05-.03,.02-.07,.04-.1,.06-.03,.02-.05,.03-.08,.05-.03,.02-.07,.04-.1,.06-.03,.02-.05,.03-.08,.05-.03,.02-.07,.04-.1,.06-.03,.02-.05,.03-.08,.05-.03,.02-.07,.04-.1,.06-.03,.02-.05,.03-.08,.05-.03,.02-.07,.04-.1,.06-.03,.02-.05,.03-.08,.05-.03,.02-.07,.04-.1,.06-.03,.02-.05,.03-.08,.05-.03,.02-.07,.04-.1,.06-.03,.02-.05,.03-.08,.05-.03,.02-.07,.04-.1,.06-.03,.02-.05,.03-.08,.05-.03,.02-.07,.04-.1,.06-.03,.02-.05,.03-.08,.05-.03,.02-.07,.04-.1,.06-.03,.02-.05,.03-.08,.05-.03,.02-.07,.04-.1,.06-.03,.02-.05,.03-.08,.05-.03,.02-.07,.04-.1,.06-.03,.02-.05,.03-.08,.05-.03,.02-.07,.04-.1,.06-.03,.02-.05,.03-.08,.05-.03,.02-.07,.04-.1,.06-.03,.02-.05,.03-.08,.05-.03,.02-.07,.04-.1,.06-.03,.02-.05,.03-.08,.05-.03,.02-.07,.04-.1,.06-.03,.02-.05,.03-.08,.05-.03,.02-.07,.04-.1,.06-.03,.02-.05,.03-.08,.05-.03,.02-.07,.04-.1,.06-.03,.02-.05,.03-.08,.05-.03,.02-.07,.04-.1,.06-.03,.02-.05,.03-.08,.05-.03,.02-.07,.04-.1,.06-.03,.02-.05,.03-.08,.05-.03,.02-.07,.04-.1,.06-.03,.02-.06,.03-.08,.05-.03,.02-.07,.04-.1,.06-.03,.02-.06,.03-.08,.05-.03,.02-.07,.04-.1,.06-.03,.02-.05,.03-.08,.05-.03,.02-.07,.04-.1,.06-.03,.02-.05,.03-.08,.05-.03,.02-.07,.04-.1,.06-.03,.02-.05,.03-.08,.05-.03,.02-.07,.04-.1,.06-.03,.02-.05,.03-.08,.05-.03,.02-.07,.04-.1,.06-.03,.02-.05,.03-.08,.05-.03,.02-.07,.04-.1,.06-.03,.02-.05,.03-.08,.05-.03,.02-.07,.04-.1,.06-.03,.02-.05,.03-.08,.05-.03,.02-.07,.04-.1,.06-.03,.02-.05,.03-.08,.05-.03,.02-.07,.04-.1,.06-.03,.02-.05,.03-.08,.05-.03,.02-.07,.04-.1,.06-.03,.02-.05,.03-.08,.05-.03,.02-.07,.04-.1,.06-.03,.02-.05,.03-.08,.05-.03,.02-.07,.04-.1,.06-.03,.02-.05,.03-.08,.05-.03,.02-.07,.04-.1,.06-.03,.02-.06,.03-.08,.05-.03,.02-.07,.04-.1,.06-.03,.02-.05,.03-.08,.05-.03,.02-.07,.04-.1,.06-.03,.02-.05,.03-.08,.05-.03,.02-.07,.04-.1,.06-.03,.02-.05,.03-.08,.05-.03,.02-.07,.04-.1,.06-.03,.02-.06,.03-.08,.05-.03,.02-.07,.04-.1,.06-.03,.02-.05,.03-.08,.05-.03,.02-.07,.04-.1,.06-.03,.02-.05,.03-.08,.05-.03,.02-.07,.04-.1,.06-.03,.02-.06,.03-.08,.05-.03,.02-.07,.04-.1,.06-.03,.02-.05,.03-.08,.05-.03,.02-.07,.04-.1,.06-.03,.02-.05,.03-.08,.05-.03,.02-.07,.04-.1,.06-.03,.02-.05,.03-.08,.05-.03,.02-.07,.04-.1,.06-.03,.02-.05,.03-.08,.05-.03,.02-.07,.04-.1,.06-.03,.02-.05,.03-.08,.05-.03,.02-.07,.04-.1,.06-.03,.02-.05,.03-.08,.05-.03,.02-.07,.04-.1,.06-.03,.02-.05,.03-.08,.05-.03,.02-.07,.04-.1,.06-.03,.02-.05,.03-.08,.05-.03,.02-.07,.04-.1,.06-.03,.02-.05,.03-.08,.05-.03,.02-.07,.04-.1,.06-.03,.02-.06,.03-.08,.05-.03,.02-.07,.04-.1,.06-.03,.02-.05,.03-.08,.05-.03,.02-.07,.04-.1,.06-.03,.02-.05,.03-.08,.05-.03,.02-.07,.04-.1,.06-.03,.02-.06,.03-.08,.05-.03,.02-.07,.04-.1,.06-.03,.02-.05,.03-.08,.05-.03,.02-.07,.04-.1,.06-.03,.02-.05,.03-.08,.05-.03,.02-.07,.04-.1,.06-.03,.02-.05,.03-.08,.05-.03,.02-.07,.04-.1,.06-.03,.02-.05,.03-.08,.05-.03,.02-.07,.04-.1,.06-.03,.02-.05,.03-.08,.05-.03,.02-.07,.04-.1,.06-.03,.02-.05,.03-.08,.05-.03,.02-.07,.04-.1,.06-.03,.02-.06,.03-.08,.05-.03,.02-.07,.04-.1,.06-.03,.02-.05,.03-.08,.05-.03,.02-.07,.04-.1,.06-.03,.02-.05,.03-.08,.05-.03,.02-.07,.04-.1,.06-.03,.02-.06,.03-.08,.05-.03,.02-.07,.04-.1,.06-.03,.02-.05,.03-.08,.05-.03,.02-.07,.04-.1,.06-.03,.02-.05,.03-.08,.05-.03,.02-.07,.04-.1,.06-.03,.02-.06,.03-.08,.05-.03,.02-.07,.04-.1,.06-.03,.02-.05,.03-.08,.05-.03,.02-.07,.04-.1,.06-.03,.02-.05,.03-.08,.05-.03,.02-.07,.04-.1,.06-.03,.02-.05,.03-.08,.05-.03,.02-.07,.04-.1,.06-.03,.02-.06,.03-.08,.05-.03,.02-.07,.04-.1,.06-.03,.02-.05,.03-.08,.05-.03,.02-.07,.04-.1,.06-.03,.02-.05,.03-.08,.05-.03,.02-.07,.04-.1,.06C15.2,55.4,0,90.26,0,135.72v252.82l252.15,145.58v-.21l.18,.11v-.21l.18,.11v-.21l.18,.11v-.21l.18,.11v-.21l.18,.11v-.21l.18,.11v-.21l.18,.11v-.21l.18,.11v-.21l.18,.11v-.21l.18,.11v-.21l.18,.11v-.21l.18,.11v-.21l.18,.11v-.21l.18,.11v-.21l.18,.11v-.21l.18,.11v-.21l.18,.11v-.21l.18,.11v-.21l.18,.11v-.21l.18,.11v-.21l.18,.11v-.21l.18,.11v-.21l.18,.11v-.21l.18,.11v-.21l.18,.11v-.21l.18,.11v-.21l.18,.11v-.21l.18,.11v-.21l.18,.11v-.21l.18,.11v-.21l.18,.11v-.21l.18,.11v-.21l.18,.11v-.21l.18,.11v-.21l.18,.11v-.21l.18,.11v-.21l.18,.11v-.21l.18,.11v-.21l.18,.11v-.21l.18,.11v-.21l.18,.11v-.21l.18,.11v-.21l.18,.11v-.21l.18,.11v-.21l.18,.11v-.21l.18,.11v-.21l.18,.11v-.21l.18,.11v-.21l.18,.11v-.21l.18,.11v-.21l.18,.11v-.21l.18,.11v-.21l.18,.11v-.21l.18,.11v-.21l.18,.11v-.21l.18,.11v-.21l.18,.11v-.21l.18,.11v-.21l.18,.11v-.21l.18,.11v-.21l.18,.11v-.21l.18,.11v-.21l.18,.11v-.21l.18,.11v-.21l.18,.11v-.21l.18,.11v-.21l.18,.11v-.21l.18,.11v-.21l.18,.11v-.21l.18,.11v-.21l.18,.11v-.21l.18,.11v-.21l.18,.11v-.21l.18,.11v-.21l.18,.11v-.21l.18,.11v-.21l.18,.11v-.21l.18,.11v-.21l.18,.11v-.21l.18,.11v-.21l.18,.11v-.21l.18,.11v-.21l.18,.11v-.21l.18,.11v-.21l.18,.11v-.21l.18,.11v-.21l.18,.11v-.21l.18,.11v-.21l.18,.11v-.21l.18,.11v-.21l.18,.11v-.21l.18,.11v-.21l.18,.11v-.21l.18,.11v-.21l.18,.11v-.21l.18,.11v-.21l.18,.11v-.21l.18,.11v-.21l.18,.11v-.21l.18,.11v-.21l.18,.11v-.21l.18,.11v-.21l.18,.11v-.21l.18,.11v-.21l.18,.11v-.21l.18,.11v-.21l.18,.11v-.21l.18,.11v-.21l.18,.11v-.21l.18,.11v-.21l.18,.11v-.21l.18,.11v-.21l.18,.11v-.21l.18,.11v-.21l.18,.11v-.21l.18,.11v-.21l.18,.11v-.21l.18,.11v-.21l.18,.11v-.21l.18,.11v-.21l.18,.11v-.21l.18,.11v-.21l.18,.11v-.21l.18,.11v-.21l.18,.11v-.21l.18,.11v-.21l.18,.11v-.21l.18,.11v-.21l.18,.11v-.21l.18,.11v-.21l.18,.11v-.21l.18,.11v-.21l.18,.11v-.21l.18,.11v-.21l.18,.11v-.21l.18,.11v-.21l.18,.11v-.21l.18,.11v-.21l.18,.11v-.21l.18,.11v-.21l.18,.11v-.21l.18,.11v-.21l.18,.11v-.21l.18,.11v-.21l.18,.11v-.21l.18,.11v-.21l.18,.11v-.21l.18,.11v-.21l.18,.11v-.21l.18,.11v-.21l.18,.11v-.21l.18,.11v-.21l.18,.11v-.21l.18,.11v-.21l.18,.11v-.21l.18,.11v-.21l.18,.11v-.21l.18,.11v-.21l.18,.11v-.21l.18,.11v-.21l.18,.11v-.21l.18,.11v-.21l.18,.11v-.21l.18,.11v-.21l.18,.11v-.21l.18,.11v-.21l.18,.11v-.21l.18,.11v-.21l.18,.11v-.21l.18,.11v-.21l.18,.11v-.21l.18,.11v-.21l.18,.11v-.21l.18,.11v-.21l.18,.11v-.21l.18,.11v-.21l.18,.11v-.21l.18,.11v-.21l.18,.11v-.21l.18,.11v-.21l.18,.11v-.21l.18,.11v-.21l.18,.11v-.21l.18,.11v-.21l.18,.11v-.21l.18,.11v-.21l.18,.11v-.21l.18,.11v-.21l.18,.11v-.21l.18,.11v-.21l.18,.11v-.21l.18,.11v-.21l.18,.11v-.21l.18,.11v-.21l.18,.11v-.21l.18,.11v-.21l.18,.11v-.21l.18,.11v-.21l.18,.11v-.21l.18,.11v-.21l.18,.11v-.21l.18,.11v-.21l.18,.11v-.21l.18,.11v-.21l.18,.11v-.21l.18,.11v-.21l.18,.11v-.21l.18,.11v-.21l.18,.11v-.21l.18,.11v-.21l.18,.11v-.21l.18,.11v-.21l.18,.11v-.21l.18,.11v-.21l.18,.11v-.21l.18,.11v-.21l.18,.11v-.21l.18,.11v-.21l.18,.11v-.21l.18,.11v-.21l.18,.11v-.21l.18,.11v-.21l.18,.11v-.21l.18,.11v-.21l.18,.11v-.21l.18,.11v-.21l.18,.11v-.21l.18,.11v-.21l.18,.11v-.21l.18,.11v-.21l.18,.11v-.21l.18,.11v-.21l.18,.11v-.21l.18,.11v-.21l.18,.11v-.21l.18,.11v-.21l.18,.11v-.21l.18,.11v-.21l.18,.11v-.21l.18,.11v-.21l.18,.11v-.21l.18,.11v-.21l.18,.11v-.21l.18,.11v-.21l.18,.11v-.21l.18,.11v-.21l.18,.11v-.21l.18,.11v-.21l.18,.11v-.21l.18,.11v-.21l.18,.11v-.21l.18,.11v-.21l.18,.11v-.21l.18,.11v-.21l.18,.11v-.21l.18,.11v-.21l.18,.11v-.21l.18,.11v-.21l.18,.11v-.21l.18,.11v-.21l.18,.11v-.21l.18,.11v-.21l.18,.11v-.21l.18,.11v-.21l.18,.11v-.21l.18,.11v-.21l.18,.11v-.21l.18,.11v-.21l.18,.11v-.21l.18,.11v-.21l.18,.11v-.21l.18,.11v-.21l.18,.11v-.21l.18,.11v-.21l.18,.11v-.21l.18,.11v-.21l.18,.11v-.21l.18,.11v-.21l.18,.11v-.21l.18,.11v-.21l.18,.11v-.21l.18,.11v-.21l.18,.11v-.21l.18,.11v-.21l.18,.11v-.21l.18,.11v-.21l.18,.11v-.21l.18,.11v-.21l.18,.11v-.21l.18,.11v-.21l.18,.11v-.21l.18,.11v-.21l.18,.11v-.21l.18,.11v-.21l.18,.11v-.21l.18,.11v-.21l.18,.11v-.21l.18,.11v-.21l.18,.11v-.21l.18,.11v-.21l.18,.11V242.03Z" fill="#c30d23"/>
      <g>
        <g clip-path="url(#clippath)">
          <g>
            <path d="M202.37,488.06c-66.25-66.09-100.4-170.39-76.29-232.96-54.01,21.14-61.05,110.05-15.73,198.57,45.32,88.52,125.83,143.14,179.84,122,17.81-6.97,30.51-21.32,37.91-40.6-33.79,13.17-81.33-2.71-125.73-47.01Z" fill="#898989"/>
            <path d="M273.95,460.03c-69.43-25.95-135.63-117.7-147.88-204.94-24.11,62.57,10.05,166.87,76.29,232.96,66.25,66.09,139.5,68.94,163.61,6.37,7.95-20.64,9.56-45.82,5.78-72.67-15.11,39.08-51.28,55.66-97.8,38.27Z" fill="#9fa0a0"/>
            <path d="M305.91,377.09c-54.01,21.14-134.52-33.47-179.84-122,12.24,87.23,78.45,178.99,147.88,204.94,69.43,25.95,115.79-23.73,103.54-110.97-4.04-28.77-13.95-58.04-27.91-85.27,7.61,54.52-7.48,99.13-43.68,113.3Z" fill="#898989"/>
            <path d="M289.68,261.46c-24.11,62.57-97.36,59.72-163.61-6.37,45.32,88.52,125.83,143.14,179.84,122,54.01-21.14,61.05-110.05,15.73-198.57-14.95-29.2-33.72-54.7-54.12-75.02,28.3,55.35,38.31,116.03,22.16,157.96Z" fill="#9fa0a0"/>
            <path d="M229.62,144.13c12.24,87.23-34.12,136.92-103.54,110.97,66.25,66.09,139.5,68.94,163.61,6.37,24.11-62.57-10.05-166.87-76.29-232.96-21.85-21.8-44.46-36.71-65.82-44.67,41.4,41.35,73.85,101.84,82.05,160.3Z" fill="#898989"/>
            <path d="M141.81,56.53c45.32,88.52,38.27,177.42-15.73,198.57,69.43,25.95,115.79-23.73,103.54-110.97C217.38,56.9,151.17-34.86,81.74-60.81c-22.9-8.56-43.29-8.89-59.89-2.35C65.26-46.89,111.44-2.79,141.81,56.53Z" fill="#9fa0a0"/>
            <path d="M49.78,22.13c66.25,66.09,100.4,170.39,76.29,232.96,54.01-21.14,61.05-110.05,15.73-198.57C96.49-31.99,15.98-86.61-38.03-65.47c-17.81,6.97-30.51,21.32-37.91,40.6C-42.15-38.04,5.39-22.16,49.78,22.13Z" fill="#898989"/>
            <path d="M-21.8,50.16C47.63,76.11,113.83,167.86,126.07,255.1c24.11-62.57-10.05-166.87-76.29-232.96C-16.47-43.96-89.72-46.81-113.83,15.77c-7.95,20.64-9.56,45.82-5.78,72.67,15.11-39.08,51.28-55.66,97.8-38.27Z" fill="#9fa0a0"/>
            <path d="M-53.76,133.1C.24,111.96,80.76,166.58,126.07,255.1,113.83,167.86,47.63,76.11-21.8,50.16c-69.43-25.95-115.79,23.73-103.54,110.97,4.04,28.77,13.95,58.04,27.91,85.27-7.61-54.52,7.48-99.13,43.68-113.3Z" fill="#898989"/>
            <path d="M-37.54,248.73c24.11-62.57,97.36-59.72,163.61,6.37C80.76,166.58,.24,111.96-53.76,133.1c-54.01,21.14-61.05,110.05-15.73,198.57,14.95,29.2,33.72,54.7,54.12,75.02-28.3-55.35-38.31-116.03-22.16-157.96Z" fill="#9fa0a0"/>
            <path d="M22.53,366.06c-12.24-87.23,34.12-136.92,103.54-110.97C59.83,189.01-13.42,186.16-37.54,248.73c-24.11,62.57,10.05,166.87,76.29,232.96,21.85,21.8,44.46,36.71,65.82,44.67-41.4-41.35-73.85-101.84-82.05-160.3Z" fill="#898989"/>
            <path d="M110.34,453.66c-45.32-88.52-38.27-177.42,15.73-198.57-69.43-25.95-115.79,23.73-103.54,110.97,12.24,87.23,78.45,178.99,147.88,204.94,22.9,8.56,43.29,8.89,59.89,2.35-43.41-16.27-89.59-60.37-119.96-119.69Z" fill="#9fa0a0"/>
          </g>
        </g>
        <path d="M252.15,534.11L0,388.53V135.71C0,90.25,15.2,55.4,41.71,40.09c22.29-12.87,50.46-10.79,79.31,5.87l16.6,9.58c30.78,17.77,59.61,50.26,81.19,91.5,21.5,41.07,33.33,86.08,33.33,126.74v260.32ZM13,381.02l226.15,130.57v-237.8c0-79.74-48.46-172.59-108.02-206.98l-16.6-9.58c-24.66-14.24-48.21-16.32-66.31-5.87-22.38,12.92-35.21,43.67-35.21,84.36v245.31Z" fill="#c30d23"/>
      </g>
    </g>
  </g>
</svg>