<?xml version="1.0" encoding="UTF-8"?>
<svg id="_レイヤー_1" data-name="レイヤー 1" xmlns="http://www.w3.org/2000/svg" xmlns:xlink="http://www.w3.org/1999/xlink" viewBox="0 0 3872.13 2177.01">
  <defs>
    <clipPath id="clippath">
      <rect x="0" width="3872.13" height="2177.01" fill="none"/>
    </clipPath>
  </defs>
  <g clip-path="url(#clippath)">
    <g>
      <path d="M2691.99,2709.59c-656.39-238.91-994.83-964.69-755.92-1621.08-535.1,449-604.89,1246.76-155.89,1781.86,449,535.1,1246.77,604.89,1781.86,155.89,176.5-148.1,302.33-334.15,375.67-536.19-334.79,280.41-805.82,379.63-1245.71,219.52Z" fill="#898989"/>
      <path d="M3401.25,2114.44c-687.91,121.3-1343.89-338.03-1465.19-1025.94-238.91,656.39,99.53,1382.18,755.92,1621.08,656.39,238.91,1382.18-99.53,1621.08-755.92,78.8-216.5,94.75-440.55,57.24-652.19-149.73,410.24-508.05,731.68-969.06,812.97Z" fill="#9fa0a0"/>
      <path d="M3717.92,1244.4c-535.1,449-1332.86,379.2-1781.86-155.89,121.3,687.91,777.28,1147.23,1465.19,1025.94,687.91-121.3,1147.23-777.29,1025.94-1465.19-40.01-226.9-138.21-428.9-276.52-593.43,75.45,430.14-74.14,887.68-432.74,1188.58Z" fill="#898989"/>
      <path d="M3557.14,332.58c-238.91,656.39-964.69,994.83-1621.08,755.92,449,535.1,1246.76,604.89,1781.86,155.89,535.1-449,604.89-1246.77,155.89-1781.86-148.1-176.5-334.15-302.33-536.19-375.67,280.41,334.79,379.63,805.82,219.52,1245.71Z" fill="#9fa0a0"/>
      <path d="M2962-376.69c121.3,687.91-338.03,1343.89-1025.94,1465.19,656.39,238.91,1382.18-99.53,1621.08-755.92,238.91-656.39-99.53-1382.18-755.92-1621.08-216.5-78.8-440.55-94.75-652.19-57.24,410.24,149.73,731.68,508.05,812.97,969.06Z" fill="#898989"/>
      <path d="M2091.95-693.36c449,535.1,379.2,1332.86-155.89,1781.86,687.91-121.3,1147.23-777.28,1025.94-1465.19-121.3-687.91-777.29-1147.23-1465.19-1025.94-226.9,40.01-428.9,138.21-593.43,276.52,430.14-75.45,887.68,74.14,1188.58,432.74Z" fill="#9fa0a0"/>
      <path d="M1180.14-532.58c656.39,238.91,994.83,964.69,755.92,1621.08,535.1-449,604.89-1246.76,155.89-1781.86-449-535.1-1246.77-604.89-1781.86-155.89C133.6-701.15,7.76-515.1-65.57-313.06c334.79-280.41,805.82-379.63,1245.71-219.52Z" fill="#898989"/>
      <path d="M470.87,62.57C1158.78-58.73,1814.77,400.6,1936.06,1088.5c238.91-656.39-99.53-1382.18-755.92-1621.08C523.75-771.49-202.03-433.05-440.94,223.34c-78.8,216.5-94.75,440.55-57.24,652.19C-348.45,465.3,9.87,143.85,470.87,62.57Z" fill="#9fa0a0"/>
      <path d="M154.2,932.61c535.1-449,1332.86-379.2,1781.86,155.89C1814.77,400.6,1158.78-58.73,470.87,62.57-217.03,183.86-676.36,839.85-555.06,1527.76c40.01,226.9,138.21,428.9,276.52,593.43-75.45-430.14,74.14-887.68,432.74-1188.58Z" fill="#898989"/>
      <path d="M314.98,1844.43c238.91-656.39,964.69-994.83,1621.08-755.92C1487.06,553.41,689.3,483.61,154.2,932.61-380.89,1381.61-450.69,2179.38-1.69,2714.47c148.1,176.5,334.15,302.33,536.19,375.67-280.41-334.79-379.63-805.82-219.52-1245.71Z" fill="#9fa0a0"/>
      <path d="M910.13,2553.69c-121.3-687.91,338.03-1343.89,1025.94-1465.19-656.39-238.91-1382.18,99.53-1621.08,755.92-238.91,656.39,99.53,1382.18,755.92,1621.08,216.5,78.8,440.55,94.75,652.19,57.24-410.24-149.73-731.68-508.05-812.97-969.06Z" fill="#898989"/>
      <path d="M1780.17,2870.36c-449-535.1-379.2-1332.86,155.89-1781.86-687.91,121.3-1147.23,777.28-1025.94,1465.19,121.3,687.91,777.29,1147.23,1465.19,1025.94,226.9-40.01,428.9-138.21,593.43-276.52-430.14,75.45-887.68-74.14-1188.58-432.74Z" fill="#9fa0a0"/>
    </g>
  </g>
</svg>