<?xml version="1.0" encoding="UTF-8"?>
<svg id="_レイヤー_1" data-name="レイヤー 1" xmlns="http://www.w3.org/2000/svg" xmlns:xlink="http://www.w3.org/1999/xlink" viewBox="0 0 3872.13 2177.01">
  <defs>
    <clipPath id="clippath">
      <rect x="0" y="0" width="3872.13" height="2177.01" fill="none"/>
    </clipPath>
  </defs>
  <g clip-path="url(#clippath)">
    <g>
      <path d="M1473.12,2816.22c-349.26-604.94-141.99-1378.46,462.94-1727.72-698.52,0-1264.78,566.26-1264.78,1264.78s566.26,1264.78,1264.78,1264.78c230.4,0,446.39-61.64,632.44-169.27-436.71-.39-861.32-227.16-1095.38-632.56Z" fill="#898989"/>
      <path d="M2399,2816.22c-604.94-349.26-812.2-1122.79-462.94-1727.72-604.93,349.26-812.2,1122.78-462.94,1727.72,349.26,604.94,1122.79,812.2,1727.72,462.94,199.53-115.2,355.77-276.57,463.07-462.81-378.4,218.01-859.5,233.93-1264.9-.13Z" fill="#9fa0a0"/>
      <path d="M3200.84,2353.28c-698.52,0-1264.78-566.26-1264.78-1264.78-349.26,604.93-141.99,1378.46,462.94,1727.72,604.94,349.26,1378.46,141.99,1727.72-462.94,115.2-199.53,169.82-417.4,169.62-632.34-218.7,378-627.38,632.34-1095.5,632.34Z" fill="#898989"/>
      <path d="M3663.78,1551.44c-604.94,349.26-1378.46,141.99-1727.72-462.94,0,698.52,566.26,1264.78,1264.78,1264.78,698.52,0,1264.78-566.26,1264.78-1264.78,0-230.4-61.64-446.39-169.27-632.44-.39,436.71-227.16,861.32-632.56,1095.38Z" fill="#9fa0a0"/>
      <path d="M3663.78,625.56c-349.26,604.94-1122.79,812.2-1727.72,462.94,349.26,604.93,1122.78,812.2,1727.72,462.94,604.94-349.26,812.2-1122.79,462.94-1727.72-115.2-199.53-276.57-355.77-462.81-463.07,218.01,378.4,233.93,859.5-.13,1264.9Z" fill="#898989"/>
      <path d="M3200.84-176.27c0,698.52-566.26,1264.78-1264.78,1264.78,604.93,349.26,1378.46,141.99,1727.72-462.94,349.26-604.94,141.99-1378.46-462.94-1727.72-199.53-115.2-417.4-169.82-632.34-169.62,378,218.7,632.34,627.38,632.34,1095.5Z" fill="#9fa0a0"/>
      <path d="M2399-639.22c349.26,604.94,141.99,1378.46-462.94,1727.72,698.52,0,1264.78-566.26,1264.78-1264.78,0-698.52-566.26-1264.78-1264.78-1264.78-230.4,0-446.39,61.64-632.44,169.27,436.71,.39,861.32,227.16,1095.38,632.56Z" fill="#898989"/>
      <path d="M1473.12-639.21c604.94,349.26,812.2,1122.79,462.94,1727.72,604.93-349.26,812.2-1122.78,462.94-1727.72-349.26-604.94-1122.79-812.2-1727.72-462.94-199.53,115.2-355.77,276.57-463.07,462.81,378.4-218.01,859.5-233.93,1264.9,.13Z" fill="#9fa0a0"/>
      <path d="M671.28-176.27c698.52,0,1264.78,566.26,1264.78,1264.78,349.26-604.93,141.99-1378.46-462.94-1727.72C868.19-988.47,94.66-781.21-254.6-176.27-369.8,23.26-424.41,241.13-424.22,456.07-205.52,78.06,203.17-176.27,671.28-176.27Z" fill="#898989"/>
      <path d="M208.34,625.56c604.94-349.26,1378.46-141.99,1727.72,462.94,0-698.52-566.26-1264.78-1264.78-1264.78-698.52,0-1264.78,566.26-1264.78,1264.78,0,230.4,61.64,446.39,169.27,632.44,.39-436.71,227.16-861.32,632.56-1095.38Z" fill="#9fa0a0"/>
      <path d="M208.34,1551.45c349.26-604.94,1122.79-812.2,1727.72-462.94C1586.8,483.57,813.28,276.3,208.34,625.56-396.59,974.82-603.86,1748.35-254.6,2353.28c115.2,199.53,276.57,355.77,462.81,463.07-218.01-378.4-233.93-859.5,.13-1264.9Z" fill="#898989"/>
      <path d="M671.29,2353.28c0-698.52,566.26-1264.78,1264.78-1264.78-604.93-349.26-1378.46-141.99-1727.72,462.94-349.26,604.94-141.99,1378.46,462.94,1727.72,199.53,115.2,417.4,169.82,632.34,169.62-378-218.7-632.34-627.38-632.34-1095.5Z" fill="#9fa0a0"/>
    </g>
  </g>
</svg>