<?xml version="1.0" encoding="UTF-8"?>
<svg id="_レイヤー_1" data-name="レイヤー 1" xmlns="http://www.w3.org/2000/svg" xmlns:xlink="http://www.w3.org/1999/xlink" viewBox="0 0 3872.13 2177.01">
  <defs>
    <clipPath id="clippath">
      <rect y="0" width="3872.13" height="2177.01" fill="none"/>
    </clipPath>
  </defs>
  <g clip-path="url(#clippath)">
    <g>
      <polygon points="2087.02 1362.57 1844.78 1222.72 2087.01 1082.87 2329.25 1222.72 2087.02 1362.57" fill="none"/>
      <path d="M2168.02,1141.09h.02l-.14-.27c-.6-1.33-1.29-2.65-2.09-3.95l-78.69-148.61s-74.44,140.59-78.68,148.6c-.81,1.31-1.5,2.64-2.11,3.99,0,0-.13,.25-.13,.25h.02c-7.04,15.95,.23,33.57,21.85,46.05,32.62,18.83,85.5,18.83,118.11,0,21.62-12.48,28.89-30.1,21.85-46.05Z" fill="#c30d23" stroke="#fff" stroke-miterlimit="10" stroke-width="2"/>
      <path d="M2289.04,1211.02h.02l-.14-.27c-.6-1.33-1.29-2.65-2.09-3.95l-78.69-148.61s-74.44,140.59-78.68,148.6c-.81,1.31-1.5,2.64-2.11,3.99,0,0-.13,.25-.13,.25h.02c-7.04,15.95,.23,33.57,21.85,46.05,32.62,18.83,85.5,18.83,118.11,0,21.62-12.48,28.89-30.1,21.85-46.05Z" fill="#c30d23" stroke="#fff" stroke-miterlimit="10" stroke-width="2"/>
      <path d="M2046.58,1211.14h.02l-.14-.27c-.6-1.33-1.29-2.65-2.09-3.95l-78.69-148.61s-74.44,140.59-78.68,148.6c-.81,1.31-1.5,2.64-2.11,3.99,0,0-.13,.25-.13,.25h.02c-7.04,15.95,.23,33.57,21.85,46.05,32.62,18.83,85.5,18.83,118.11,0,21.62-12.48,28.89-30.1,21.85-46.05Z" fill="#c30d23" stroke="#fff" stroke-miterlimit="10" stroke-width="2"/>
      <path d="M2167.92,1280.94h.02l-.14-.27c-.6-1.33-1.29-2.65-2.09-3.95l-78.69-148.61s-74.44,140.59-78.68,148.6c-.81,1.31-1.5,2.64-2.11,3.99,0,0-.13,.25-.13,.25h.02c-7.04,15.95,.23,33.57,21.85,46.05,32.62,18.83,85.5,18.83,118.11,0,21.62-12.48,28.89-30.1,21.85-46.05Z" fill="#c30d23" stroke="#fff" stroke-miterlimit="10" stroke-width="2"/>
    </g>
    <g>
      <polygon points="3783.36 663.32 3541.13 523.46 3783.36 383.61 4025.59 523.47 3783.36 663.32" fill="none"/>
      <path d="M3864.36,441.83h.02l-.14-.27c-.6-1.33-1.29-2.65-2.09-3.95l-78.69-148.61s-74.44,140.59-78.68,148.6c-.81,1.31-1.5,2.64-2.11,3.99,0,0-.13,.25-.13,.25h.02c-7.04,15.95,.23,33.57,21.85,46.05,32.62,18.83,85.5,18.83,118.11,0,21.62-12.48,28.89-30.1,21.85-46.05Z" fill="#c30d23" stroke="#fff" stroke-miterlimit="10" stroke-width="2"/>
      <path d="M3985.38,511.76h.02l-.14-.27c-.6-1.33-1.29-2.65-2.09-3.95l-78.69-148.61s-74.44,140.59-78.68,148.6c-.81,1.31-1.5,2.64-2.11,3.99,0,0-.13,.25-.13,.25h.02c-7.04,15.95,.23,33.57,21.85,46.05,32.62,18.83,85.5,18.83,118.11,0,21.62-12.48,28.89-30.1,21.85-46.05Z" fill="#c30d23" stroke="#fff" stroke-miterlimit="10" stroke-width="2"/>
      <path d="M3742.93,511.89h.02l-.14-.27c-.6-1.33-1.29-2.65-2.09-3.95l-78.69-148.61s-74.44,140.59-78.68,148.6c-.81,1.31-1.5,2.64-2.11,3.99,0,0-.13,.25-.13,.25h.02c-7.04,15.95,.23,33.57,21.85,46.05,32.62,18.83,85.5,18.83,118.11,0,21.62-12.48,28.89-30.1,21.85-46.05Z" fill="#c30d23" stroke="#fff" stroke-miterlimit="10" stroke-width="2"/>
      <path d="M3864.27,581.69h.02l-.14-.27c-.6-1.33-1.29-2.65-2.09-3.95l-78.69-148.61s-74.44,140.59-78.68,148.6c-.81,1.31-1.5,2.64-2.11,3.99,0,0-.13,.25-.13,.25h.02c-7.04,15.95,.23,33.57,21.85,46.05,32.62,18.83,85.5,18.83,118.11,0,21.62-12.48,28.89-30.1,21.85-46.05Z" fill="#c30d23" stroke="#fff" stroke-miterlimit="10" stroke-width="2"/>
    </g>
  </g>
</svg>