<?xml version="1.0" encoding="UTF-8"?>
<svg id="_レイヤー_1" data-name="レイヤー 1" xmlns="http://www.w3.org/2000/svg" xmlns:xlink="http://www.w3.org/1999/xlink" viewBox="0 0 3872.13 2177.01">
  <defs>
    <clipPath id="clippath">
      <rect y="-2429.24" width="3872.13" height="2177.01" fill="none"/>
    </clipPath>
    <linearGradient id="_名称未設定グラデーション_53" data-name="名称未設定グラデーション 53" x1="1473.66" y1="1228.38" x2="1629.42" y2="954.01" gradientUnits="userSpaceOnUse">
      <stop offset="0" stop-color="#c30d23" stop-opacity=".5"/>
      <stop offset=".5" stop-color="#c30d23" stop-opacity="0"/>
    </linearGradient>
    <linearGradient id="_名称未設定グラデーション_53-2" data-name="名称未設定グラデーション 53" x1="-4883.29" y1="1228.38" x2="-4727.53" y2="954.01" gradientTransform="translate(-3635.01) rotate(-180) scale(1 -1)" xlink:href="#_名称未設定グラデーション_53"/>
    <linearGradient id="_名称未設定グラデーション_53-3" data-name="名称未設定グラデーション 53" x1="1199.5" y1="1392.14" x2="1283.01" y2="1245.03" xlink:href="#_名称未設定グラデーション_53"/>
    <linearGradient id="_名称未設定グラデーション_53-4" data-name="名称未設定グラデーション 53" x1="-5157.45" y1="1392.14" x2="-5073.94" y2="1245.03" gradientTransform="translate(-3634.64) rotate(-180) scale(1 -1)" xlink:href="#_名称未設定グラデーション_53"/>
  </defs>
  <g clip-path="url(#clippath)">
    <g>
      <g>
        <polygon points="326.75 230.2 4509.7 -2184.83 4509.7 -1626.29 326.75 788.74 326.75 230.2" fill="#c9caca"/>
        <path d="M4509.32-2184.18v557.67L327.13,788.09V230.41L4509.32-2184.18m.75-1.3L326.38,229.98V789.39L4510.07-1626.07v-559.41h0Z" fill="#231815"/>
      </g>
      <g>
        <polygon points="1603.6 -227.29 1845.09 -366.71 1845.09 -87.87 1603.6 51.55 1603.6 -227.29" fill="#c9caca"/>
        <path d="M1844.71-366.06V-88.09l-240.74,138.99V-227.07l240.74-138.99m.75-1.3l-242.24,139.86V52.2l242.24-139.86V-367.36h0Z" fill="#231815"/>
      </g>
      <g>
        <polygon points="1361.36 -87.43 1602.85 -226.86 1602.85 51.98 1361.36 191.4 1361.36 -87.43" fill="#c9caca"/>
        <path d="M1602.48-226.21V51.76l-240.74,138.99V-87.22l240.74-138.99m.75-1.3l-242.24,139.86V192.05l242.24-139.86V-227.51h0Z" fill="#231815"/>
      </g>
      <g>
        <polygon points="1119.13 -227.28 1360.61 -366.7 1360.61 -87.87 1119.13 51.56 1119.13 -227.28" fill="#c9caca"/>
        <path d="M1360.24-366.05V-88.08l-240.74,138.99V-227.06l240.74-138.99m.75-1.3l-242.24,139.86V52.21l242.24-139.86V-367.35h0Z" fill="#231815"/>
      </g>
      <g>
        <polygon points="1119.13 52.42 1360.61 -87 1360.61 191.84 1119.13 331.26 1119.13 52.42" fill="#c9caca"/>
        <path d="M1360.24-86.35V191.62l-240.74,138.99V52.64l240.74-138.99m.75-1.3l-242.24,139.86V331.91l242.24-139.86V-87.65h0Z" fill="#231815"/>
      </g>
      <g>
        <polygon points="876.89 -87.43 1118.38 -226.85 1118.38 51.99 876.89 191.41 876.89 -87.43" fill="#c9caca"/>
        <path d="M1118-226.2V51.77l-240.74,138.99V-87.21l240.74-138.99m.75-1.3l-242.24,139.86V192.06l242.24-139.86V-227.5h0Z" fill="#231815"/>
      </g>
      <g>
        <polygon points="876.89 192.28 1118.38 52.85 1118.38 331.69 876.89 471.12 876.89 192.28" fill="#c9caca"/>
        <path d="M1118,53.5V331.48l-240.74,138.99V192.49l240.74-138.99m.75-1.3l-242.24,139.86V471.76l242.24-139.86V52.21h0Z" fill="#231815"/>
      </g>
      <g>
        <polygon points="634.65 52.43 876.14 -86.99 876.14 191.84 634.65 331.27 634.65 52.43" fill="#c9caca"/>
        <path d="M875.76-86.34V191.63l-240.74,138.99V52.65l240.74-138.99m.75-1.3L634.28,52.21V331.92l242.24-139.86V-87.64h0Z" fill="#231815"/>
      </g>
      <g>
        <polygon points="634.65 332.13 876.14 192.71 876.14 471.55 634.65 610.97 634.65 332.13" fill="#c9caca"/>
        <path d="M875.76,193.36V471.33l-240.74,138.99V332.35l240.74-138.99m.75-1.3l-242.24,139.86v279.7l242.24-139.86V192.06h0Z" fill="#231815"/>
      </g>
      <g>
        <polygon points="392.41 192.29 633.9 52.86 633.9 331.7 392.41 471.12 392.41 192.29" fill="#c9caca"/>
        <path d="M633.53,53.51V331.48l-240.74,138.99V192.5L633.53,53.51m.75-1.3l-242.24,139.86V471.77l242.24-139.86V52.21h0Z" fill="#231815"/>
      </g>
      <g>
        <polygon points="392.41 471.99 633.9 332.57 633.9 611.4 392.41 750.83 392.41 471.99" fill="#c9caca"/>
        <path d="M633.53,333.22v277.97l-240.74,138.99V472.21l240.74-138.99m.75-1.3l-242.24,139.86v279.7l242.24-139.86V331.92h0Z" fill="#231815"/>
      </g>
    </g>
    <g>
      <g>
        <polygon points="392.9 -87.71 634.38 -227.12 875.87 -87.7 634.39 51.72 392.9 -87.71" fill="#f7f8f8"/>
        <path d="M634.38-226.69l240.74,138.99L634.39,51.28,393.65-87.71l240.73-138.99m0-.87L392.15-87.71,634.39,52.15l242.23-139.85-242.24-139.86h0Z" fill="#231815"/>
      </g>
      <g>
        <polygon points="-91.56 -87.71 149.92 -227.13 391.4 -87.71 149.92 51.71 -91.56 -87.71" fill="#f7f8f8"/>
        <path d="M149.92-226.7L390.65-87.71,149.92,51.28-90.81-87.71,149.92-226.7m0-.87L-92.31-87.71,149.92,52.15,392.15-87.71,149.92-227.56h0Z" fill="#231815"/>
      </g>
      <g>
        <polygon points="150.67 52.15 392.15 -87.27 633.64 52.15 392.16 191.57 150.67 52.15" fill="#f7f8f8"/>
        <path d="M392.15-86.84L632.89,52.15l-240.73,138.99L151.42,52.15,392.15-86.84m0-.87L149.92,52.15l242.24,139.86L634.39,52.15,392.15-87.71h0Z" fill="#231815"/>
      </g>
    </g>
  </g>
  <polygon points="1604.13 1362.7 1656.29 1232.72 1360.92 1062.84 1360.97 1222.85 1604.13 1362.7" fill="url(#_名称未設定グラデーション_53)"/>
  <polygon points="1117.82 1362.7 1065.66 1232.72 1361.02 1062.84 1360.97 1222.85 1117.82 1362.7" fill="url(#_名称未設定グラデーション_53-2)"/>
  <path d="M1360.69,1228.75l233.13,134.09-232.66,133.82-233.13-134.09,232.66-133.82m0-5.77l-242.69,139.59,243.15,139.86,242.69-139.59-243.15-139.86h0Z" fill="#c30d23"/>
  <polygon points="1118 1362.57 1065.84 1232.53 1361.2 1402.42 1361.15 1502.43 1118 1362.57" fill="url(#_名称未設定グラデーション_53-3)"/>
  <polygon points="1604.31 1362.57 1656.47 1232.53 1361.1 1402.42 1361.15 1502.43 1604.31 1362.57" fill="url(#_名称未設定グラデーション_53-4)"/>
</svg>