<?xml version="1.0" encoding="UTF-8"?>
<svg id="_レイヤー_2" data-name="レイヤー 2" xmlns="http://www.w3.org/2000/svg" viewBox="0 0 142.81 262.71">
  <g id="_レイヤー_1-2" data-name="レイヤー 1">
    <g>
      <ellipse cx="65.7" cy="234.73" rx="48.46" ry="27.98" fill="#898989"/>
      <g>
        <g>
          <ellipse cx="70.41" cy="30.96" rx="27" ry="15.59" transform="translate(8.39 76.46) rotate(-60)" fill="#dcdddd"/>
          <ellipse cx="70.41" cy="30.96" rx="20.05" ry="11.58" transform="translate(8.39 76.46) rotate(-60)" fill="#dcdddd"/>
          <polygon points="65.52 236.18 65.52 174.62 65.23 176.02 20.12 239.73 7.98 227.36 41.27 173.89 45.49 142.31 45.49 105.01 42.18 108.45 15.45 164.15 0 159.39 24.59 99.31 26.48 94.69 30.46 89.94 55.13 60.47 85.84 42.59 103.21 41.8 127.99 0 142.81 6.02 108.71 71.94 95.53 74.47 95.53 115.37 86.39 224.13 65.52 236.18" fill="#dcdddd"/>
          <polygon points="135.89 10.66 128.19 7.53 104.19 47.99 82.01 49.01 81.96 48.89 59.06 62.11 59.02 62.26 30.1 96.79 30.19 96.99 29.98 96.92 6.51 154.25 14.54 156.72 39.11 105.55 50.4 93.8 50.4 139.94 45.83 174.16 14.56 224.39 21.22 231.18 60.95 175.06 70.43 129.57 70.43 227.68 81.96 221.02 86.96 161.52 90.62 117.91 90.62 69.43 107.12 66.26 135.89 10.66" fill="#dcdddd"/>
        </g>
        <g>
          <ellipse cx="70.41" cy="30.96" rx="20.05" ry="11.58" transform="translate(8.39 76.46) rotate(-60)" fill="#444" stroke="#444" stroke-miterlimit="10" stroke-width=".22"/>
          <polygon points="90.62 68.68 50.4 91.9 59.06 62.11 81.96 48.89 90.62 68.68" fill="#444" stroke="#444" stroke-miterlimit="10" stroke-width=".22"/>
          <polygon points="90.62 117.91 50.4 141.13 50.4 91.9 90.62 68.68 90.62 117.91" fill="#444" stroke="#444" stroke-miterlimit="10" stroke-width=".24"/>
          <g>
            <polygon points="90.62 117.91 70.43 129.57 70.43 171.06 86.96 161.52 90.62 117.91" fill="#444" stroke="#444" stroke-miterlimit="10" stroke-width=".22"/>
            <polygon points="70.43 171.06 70.43 227.68 81.96 221.02 86.96 161.52 70.43 171.06" fill="#444" stroke="#444" stroke-miterlimit="10" stroke-width=".22"/>
          </g>
          <g>
            <polygon points="70.43 129.57 51.11 134.62 45.16 179.2 60.95 175.06 70.43 129.57" fill="#444" stroke="#444" stroke-miterlimit="10" stroke-width=".22"/>
            <polygon points="51.36 165.29 14.56 224.39 21.22 231.18 60.95 175.06 51.36 165.29" fill="#444" stroke="#444" stroke-miterlimit="10" stroke-width=".22"/>
          </g>
          <g>
            <polygon points="65.7 77.87 59.08 62.19 30.1 96.79 35.53 109.27 65.7 77.87" fill="#444" stroke="#444" stroke-miterlimit="10" stroke-width=".2"/>
            <polygon points="29.98 96.92 6.51 154.25 14.54 156.72 41.54 100.48 29.98 96.92" fill="#444" stroke="#444" stroke-miterlimit="10" stroke-width=".2"/>
          </g>
          <g>
            <polygon points="76.28 72.18 81.89 49.02 111.73 47.64 107.12 66.26 76.28 72.18" fill="#444" stroke="#444" stroke-miterlimit="10" stroke-width=".2"/>
            <polygon points="96.03 61.76 128.19 7.53 135.89 10.66 107.12 66.26 96.03 61.76" fill="#444" stroke="#444" stroke-miterlimit="10" stroke-width=".2"/>
          </g>
        </g>
      </g>
    </g>
  </g>
</svg>