<?xml version="1.0" encoding="UTF-8"?>
<svg id="_レイヤー_2" data-name="レイヤー 2" xmlns="http://www.w3.org/2000/svg" viewBox="0 0 484.47 559.41">
  <g id="_レイヤー_1-2" data-name="レイヤー 1">
    <g>
      <g>
        <polygon points="2 139.85 242.23 1.15 482.47 139.86 242.24 278.55 2 139.85" fill="#f7f8f8"/>
        <path d="M242.23,2.31l238.24,137.55-238.23,137.54L4,139.85,242.23,2.31m0-2.31L0,139.85l242.24,139.86,242.23-139.85L242.23,0h0Z" fill="#231815"/>
      </g>
      <g>
        <polygon points="243.24 280.29 483.47 141.59 483.47 418.98 243.24 557.68 243.24 280.29" fill="#c9caca"/>
        <path d="M482.47,143.32V418.4l-238.24,137.55V280.86l238.24-137.55m2-3.46l-242.24,139.86v279.7l242.24-139.86V139.85h0Z" fill="#231815"/>
      </g>
      <g>
        <polygon points="1 418.98 1 141.59 241.24 280.29 241.24 557.68 1 418.98" fill="#9fa0a0"/>
        <path d="M2,143.32l238.24,137.55v275.08L2,418.4V143.32m-2-3.46V419.56l242.24,139.86V279.71L0,139.85H0Z" fill="#231815"/>
      </g>
    </g>
  </g>
</svg>